<svg xmlns="http://www.w3.org/2000/svg" xmlns:xlink="http://www.w3.org/1999/xlink" width="200" zoomAndPan="magnify" viewBox="0 0 150 93.749996" height="125" preserveAspectRatio="xMidYMid meet" version="1.0"><defs><g/><clipPath id="f7051a02a8"><path d="M 78.242188 60.007812 L 88.597656 60.007812 L 88.597656 70.363281 L 78.242188 70.363281 Z M 78.242188 60.007812 " clip-rule="nonzero"/></clipPath><clipPath id="9a486ce917"><path d="M 83.421875 60.007812 C 80.5625 60.007812 78.242188 62.328125 78.242188 65.1875 C 78.242188 68.046875 80.5625 70.363281 83.421875 70.363281 C 86.28125 70.363281 88.597656 68.046875 88.597656 65.1875 C 88.597656 62.328125 86.28125 60.007812 83.421875 60.007812 Z M 83.421875 60.007812 " clip-rule="nonzero"/></clipPath><clipPath id="cccb0c9026"><path d="M 100.472656 60.007812 L 110.828125 60.007812 L 110.828125 70.363281 L 100.472656 70.363281 Z M 100.472656 60.007812 " clip-rule="nonzero"/></clipPath><clipPath id="a1bc7a2be3"><path d="M 105.648438 60.007812 C 102.789062 60.007812 100.472656 62.328125 100.472656 65.1875 C 100.472656 68.046875 102.789062 70.363281 105.648438 70.363281 C 108.507812 70.363281 110.828125 68.046875 110.828125 65.1875 C 110.828125 62.328125 108.507812 60.007812 105.648438 60.007812 Z M 105.648438 60.007812 " clip-rule="nonzero"/></clipPath><clipPath id="c35b503c5a"><path d="M 74.082031 23.128906 L 92.78125 23.128906 L 92.78125 35.097656 L 74.082031 35.097656 Z M 74.082031 23.128906 " clip-rule="nonzero"/></clipPath><clipPath id="6521624957"><path d="M 95.777344 29.519531 L 114.476562 29.519531 L 114.476562 34.953125 L 95.777344 34.953125 Z M 95.777344 29.519531 " clip-rule="nonzero"/></clipPath></defs><g clip-path="url(#f7051a02a8)"><g clip-path="url(#9a486ce917)"><path stroke-linecap="butt" transform="matrix(0.748005, 0, 0, 0.748005, 78.242965, 60.009404)" fill="none" stroke-linejoin="miter" d="M 6.923628 -0.00212772 C 3.100961 -0.00212772 -0.00103902 3.099873 -0.00103902 6.92254 C -0.00103902 10.745207 3.100961 13.841985 6.923628 13.841985 C 10.746295 13.841985 13.843073 10.745207 13.843073 6.92254 C 13.843073 3.099873 10.746295 -0.00212772 6.923628 -0.00212772 Z M 6.923628 -0.00212772 " stroke="#263f6a" stroke-width="4" stroke-opacity="1" stroke-miterlimit="4"/></g></g><g clip-path="url(#cccb0c9026)"><g clip-path="url(#a1bc7a2be3)"><path stroke-linecap="butt" transform="matrix(0.748005, 0, 0, 0.748005, 100.47105, 60.009404)" fill="none" stroke-linejoin="miter" d="M 6.921592 -0.00212772 C 3.098925 -0.00212772 0.00214695 3.099873 0.00214695 6.92254 C 0.00214695 10.745207 3.098925 13.841985 6.921592 13.841985 C 10.744259 13.841985 13.846259 10.745207 13.846259 6.92254 C 13.846259 3.099873 10.744259 -0.00212772 6.921592 -0.00212772 Z M 6.921592 -0.00212772 " stroke="#263f6a" stroke-width="4" stroke-opacity="1" stroke-miterlimit="4"/></g></g><path stroke-linecap="butt" transform="matrix(0.748005, 0, 0, 0.748005, 111.727005, 37.322832)" fill="none" stroke-linejoin="miter" d="M -0.000591159 37.257191 L 3.278965 37.257191 C 4.145854 37.257191 4.981409 36.912524 5.597632 36.296302 C 6.213854 35.68008 6.558521 34.849746 6.558521 33.977635 L 6.558521 0.00185439 " stroke="#263f6a" stroke-width="2" stroke-opacity="1" stroke-miterlimit="4"/><path stroke-linecap="butt" transform="matrix(0.748005, 0, 0, 0.748005, 71.6867, 47.16112)" fill="none" stroke-linejoin="miter" d="M 0.00106975 1.001378 L 4.09007 1.001378 C 5.494848 1.001378 6.638515 2.139823 6.638515 3.549823 C 6.638515 4.959823 7.782182 6.10349 9.192182 6.10349 L 13.249849 6.10349 " stroke="#d2492a" stroke-width="2" stroke-opacity="1" stroke-miterlimit="4"/><path stroke-linecap="round" transform="matrix(0.748005, 0, 0, 0.748005, 71.6867, 47.16112)" fill="none" stroke-linejoin="round" d="M 19.746294 6.10349 C 19.746294 7.758934 18.404182 9.101046 16.748738 9.101046 C 15.088071 9.101046 13.74596 7.758934 13.74596 6.10349 C 13.74596 4.448045 15.088071 3.105934 16.748738 3.105934 C 18.404182 3.105934 19.746294 4.448045 19.746294 6.10349 " stroke="#d2492a" stroke-width="2" stroke-opacity="1" stroke-miterlimit="4"/><path stroke-linecap="butt" transform="matrix(0.748005, 0, 0, 0.748005, 71.595316, 53.172339)" fill="none" stroke-linejoin="miter" d="M -0.002094 4.438269 L 22.568352 4.438269 C 23.518797 4.438269 24.286464 3.670602 24.286464 2.720157 C 24.286464 1.769713 25.059353 1.002046 26.009797 1.002046 L 46.15191 1.002046 " stroke="#d2492a" stroke-width="2" stroke-opacity="1" stroke-miterlimit="4"/><path stroke-linecap="round" transform="matrix(0.748005, 0, 0, 0.748005, 71.595316, 53.172339)" fill="none" stroke-linejoin="round" d="M 52.653577 1.002046 C 52.653577 2.657491 51.306244 3.999602 49.650799 3.999602 C 47.995354 3.999602 46.653243 2.657491 46.653243 1.002046 C 46.653243 -0.658621 47.995354 -2.000732 49.650799 -2.000732 C 51.306244 -2.000732 52.653577 -0.658621 52.653577 1.002046 " stroke="#d2492a" stroke-width="2" stroke-opacity="1" stroke-miterlimit="4"/><path stroke-linecap="butt" transform="matrix(0.403164, -0.630056, 0.630056, 0.403164, 100.841767, 53.816715)" fill="none" stroke-linejoin="miter" d="M 0.00187196 1.000125 L 8.024436 1.000073 " stroke="#d2492a" stroke-width="2" stroke-opacity="1" stroke-miterlimit="4"/><path stroke-linecap="round" transform="matrix(0.403164, -0.630056, 0.630056, 0.403164, 100.841767, 53.816715)" fill="none" stroke-linejoin="round" d="M 14.527397 0.999018 C 14.526735 2.654801 13.184723 3.997122 11.524542 3.999275 C 9.86876 3.998612 8.526438 2.6566 8.5271 1.000818 C 8.527763 -0.654964 9.869775 -1.997286 11.529956 -1.999438 C 13.185738 -1.998776 14.52806 -0.656764 14.527397 0.999018 " stroke="#d2492a" stroke-width="2" stroke-opacity="1" stroke-miterlimit="4"/><path stroke-linecap="butt" transform="matrix(0.748005, 0, 0, 0.748005, 91.661164, 46.524904)" fill="none" stroke-linejoin="miter" d="M 7.497764 1.000706 L 8.959987 1.000706 C 9.346431 1.000706 9.717209 1.152151 9.993987 1.428929 C 10.265542 1.700484 10.422209 2.071262 10.422209 2.462929 L 10.422209 3.230595 C 10.422209 3.825929 10.657209 4.395151 11.074987 4.812929 C 11.492765 5.230707 12.061987 5.465707 12.652098 5.465707 L 16.417321 5.465707 " stroke="#d2492a" stroke-width="2" stroke-opacity="1" stroke-miterlimit="4"/><path stroke-linecap="round" transform="matrix(0.748005, 0, 0, 0.748005, 91.661164, 46.524904)" fill="none" stroke-linejoin="round" d="M 1.001319 1.000706 C 1.001319 -0.654738 2.343431 -2.002072 3.998875 -2.002072 C 5.65432 -2.002072 7.001653 -0.654738 7.001653 1.000706 C 7.001653 2.656151 5.65432 3.998262 3.998875 3.998262 C 2.343431 3.998262 1.001319 2.656151 1.001319 1.000706 " stroke="#d2492a" stroke-width="2" stroke-opacity="1" stroke-miterlimit="4"/><path stroke-linecap="butt" transform="matrix(0.748005, 0, 0, 0.748005, 71.595316, 40.184098)" fill="none" stroke-linejoin="miter" d="M -0.002094 1.001993 L 33.655131 1.001993 " stroke="#d2492a" stroke-width="2" stroke-opacity="1" stroke-miterlimit="4"/><path stroke-linecap="round" transform="matrix(0.748005, 0, 0, 0.748005, 71.595316, 40.184098)" fill="none" stroke-linejoin="round" d="M 40.156798 1.001993 C 40.156798 2.657437 38.814687 3.999548 37.159242 3.999548 C 35.498576 3.999548 34.156464 2.657437 34.156464 1.001993 C 34.156464 -0.658674 35.498576 -2.000785 37.159242 -2.000785 C 38.814687 -2.000785 40.156798 -0.658674 40.156798 1.001993 " stroke="#d2492a" stroke-width="2" stroke-opacity="1" stroke-miterlimit="4"/><path stroke-linecap="butt" transform="matrix(0.748005, 0, 0, 0.748005, 79.941281, 40.932103)" fill="none" stroke-linejoin="miter" d="M 0.997612 0.00199262 L 0.997612 5.600215 C 0.997612 6.357438 1.3005 7.088549 1.838389 7.626438 C 2.376278 8.164327 3.102167 8.461993 3.864612 8.461993 L 6.72639 8.461993 " stroke="#d2492a" stroke-width="2" stroke-opacity="1" stroke-miterlimit="4"/><path stroke-linecap="round" transform="matrix(0.748005, 0, 0, 0.748005, 79.941281, 40.932103)" fill="none" stroke-linejoin="round" d="M 13.228057 8.461993 C 13.228057 10.12266 11.885946 11.464771 10.225279 11.464771 C 8.569834 11.464771 7.227723 10.12266 7.227723 8.461993 C 7.227723 6.806549 8.569834 5.464438 10.225279 5.464438 C 11.885946 5.464438 13.228057 6.806549 13.228057 8.461993 " stroke="#d2492a" stroke-width="2" stroke-opacity="1" stroke-miterlimit="4"/><path stroke-linecap="butt" transform="matrix(0.748005, 0, 0, 0.748005, 71.483532, 37.322832)" fill="none" stroke-linejoin="miter" d="M 0.998571 0.00185439 L 0.998571 33.857524 C 0.998571 35.732302 2.523461 37.257191 4.398238 37.257191 L 7.803128 37.257191 " stroke="#263f6a" stroke-width="2" stroke-opacity="1" stroke-miterlimit="4"/><path stroke-linecap="butt" transform="matrix(0.748005, 0, 0, 0.748005, 89.529445, 64.442734)" fill="none" stroke-linejoin="miter" d="M 0.00241327 1.000891 L 13.350414 1.000891 " stroke="#263f6a" stroke-width="2" stroke-opacity="1" stroke-miterlimit="4"/><path stroke-linecap="round" transform="matrix(0.748005, 0, 0, 0.748005, 68.982696, 35.938605)" fill="none" stroke-linejoin="miter" d="M 0.99969 1.001189 L 67.04514 1.001189 " stroke="#263f6a" stroke-width="2" stroke-opacity="1" stroke-miterlimit="4"/><path stroke-linecap="round" transform="matrix(0.748005, 0, 0, 0.748005, 68.982696, 35.302385)" fill="none" stroke-linejoin="miter" d="M 0.99969 1.000523 L 67.04514 1.000523 " stroke="#263f6a" stroke-width="2" stroke-opacity="1" stroke-miterlimit="4"/><g clip-path="url(#c35b503c5a)"><path fill="#263f6a" d="M 92.738281 21.0625 L 92.738281 17.816406 C 92.734375 17.65625 92.707031 17.5 92.644531 17.351562 C 92.582031 17.203125 92.492188 17.070312 92.378906 16.957031 C 92.265625 16.84375 92.132812 16.753906 91.984375 16.691406 C 91.835938 16.632812 91.679688 16.601562 91.519531 16.601562 L 75.300781 16.601562 C 75.136719 16.601562 74.984375 16.632812 74.835938 16.691406 C 74.683594 16.753906 74.554688 16.84375 74.441406 16.957031 C 74.324219 17.070312 74.238281 17.203125 74.175781 17.351562 C 74.113281 17.5 74.082031 17.65625 74.082031 17.816406 L 74.082031 21.0625 C 74.082031 21.222656 74.113281 21.378906 74.175781 21.527344 C 74.238281 21.675781 74.324219 21.808594 74.441406 21.921875 C 74.554688 22.035156 74.683594 22.121094 74.835938 22.183594 C 74.984375 22.246094 75.136719 22.277344 75.300781 22.277344 L 75.300781 23.089844 C 75.136719 23.089844 74.984375 23.121094 74.835938 23.179688 C 74.683594 23.242188 74.554688 23.332031 74.441406 23.445312 C 74.324219 23.558594 74.238281 23.691406 74.175781 23.839844 C 74.113281 23.988281 74.082031 24.144531 74.082031 24.304688 L 74.082031 27.550781 C 74.082031 27.710938 74.113281 27.867188 74.175781 28.015625 C 74.238281 28.164062 74.324219 28.292969 74.441406 28.410156 C 74.554688 28.523438 74.683594 28.609375 74.835938 28.671875 C 74.984375 28.734375 75.136719 28.765625 75.300781 28.765625 L 75.300781 29.578125 C 75.136719 29.578125 74.984375 29.609375 74.835938 29.667969 C 74.683594 29.730469 74.554688 29.820312 74.441406 29.933594 C 74.324219 30.046875 74.238281 30.179688 74.175781 30.328125 C 74.113281 30.476562 74.082031 30.632812 74.082031 30.792969 L 74.082031 34.039062 C 74.082031 34.199219 74.113281 34.355469 74.175781 34.503906 C 74.238281 34.652344 74.324219 34.78125 74.441406 34.898438 C 74.554688 35.011719 74.683594 35.097656 74.835938 35.160156 C 74.984375 35.222656 75.136719 35.253906 75.300781 35.253906 L 91.519531 35.253906 C 91.679688 35.253906 91.835938 35.222656 91.984375 35.160156 C 92.132812 35.097656 92.265625 35.011719 92.378906 34.898438 C 92.492188 34.78125 92.582031 34.652344 92.644531 34.503906 C 92.707031 34.355469 92.734375 34.199219 92.738281 34.039062 L 92.738281 30.792969 C 92.734375 30.632812 92.707031 30.476562 92.644531 30.328125 C 92.582031 30.179688 92.492188 30.046875 92.378906 29.933594 C 92.265625 29.820312 92.132812 29.730469 91.984375 29.667969 C 91.835938 29.609375 91.679688 29.578125 91.519531 29.578125 L 91.519531 28.765625 C 91.679688 28.765625 91.835938 28.734375 91.984375 28.671875 C 92.132812 28.609375 92.265625 28.523438 92.378906 28.410156 C 92.492188 28.292969 92.582031 28.164062 92.644531 28.015625 C 92.707031 27.867188 92.734375 27.710938 92.738281 27.550781 L 92.738281 24.304688 C 92.734375 24.144531 92.707031 23.988281 92.644531 23.839844 C 92.582031 23.691406 92.492188 23.558594 92.378906 23.445312 C 92.265625 23.332031 92.132812 23.242188 91.984375 23.179688 C 91.835938 23.121094 91.679688 23.089844 91.519531 23.089844 L 91.519531 22.277344 C 91.679688 22.277344 91.835938 22.246094 91.984375 22.183594 C 92.132812 22.121094 92.265625 22.035156 92.378906 21.921875 C 92.492188 21.808594 92.582031 21.675781 92.644531 21.527344 C 92.707031 21.378906 92.734375 21.222656 92.738281 21.0625 Z M 74.894531 21.0625 L 74.894531 17.816406 C 74.894531 17.703125 74.933594 17.609375 75.011719 17.53125 C 75.09375 17.449219 75.1875 17.410156 75.300781 17.410156 L 91.519531 17.410156 C 91.632812 17.410156 91.726562 17.449219 91.804688 17.53125 C 91.886719 17.609375 91.925781 17.703125 91.925781 17.816406 L 91.925781 21.0625 C 91.925781 21.171875 91.886719 21.269531 91.804688 21.347656 C 91.726562 21.425781 91.632812 21.464844 91.519531 21.464844 L 75.300781 21.464844 C 75.1875 21.464844 75.09375 21.425781 75.011719 21.347656 C 74.933594 21.269531 74.894531 21.171875 74.894531 21.0625 Z M 91.925781 30.792969 L 91.925781 34.039062 C 91.925781 34.148438 91.886719 34.246094 91.804688 34.324219 C 91.726562 34.402344 91.632812 34.441406 91.519531 34.441406 L 75.300781 34.441406 C 75.1875 34.441406 75.09375 34.402344 75.011719 34.324219 C 74.933594 34.246094 74.894531 34.148438 74.894531 34.039062 L 74.894531 30.792969 C 74.894531 30.679688 74.933594 30.585938 75.011719 30.507812 C 75.09375 30.425781 75.1875 30.386719 75.300781 30.386719 L 91.519531 30.386719 C 91.632812 30.386719 91.726562 30.425781 91.804688 30.507812 C 91.886719 30.585938 91.925781 30.679688 91.925781 30.792969 Z M 90.707031 29.578125 L 76.109375 29.578125 L 76.109375 28.765625 L 90.707031 28.765625 Z M 91.925781 24.304688 L 91.925781 27.550781 C 91.925781 27.660156 91.886719 27.757812 91.804688 27.835938 C 91.726562 27.914062 91.632812 27.953125 91.519531 27.953125 L 75.300781 27.953125 C 75.1875 27.953125 75.09375 27.914062 75.011719 27.835938 C 74.933594 27.757812 74.894531 27.660156 74.894531 27.550781 L 74.894531 24.304688 C 74.894531 24.191406 74.933594 24.097656 75.011719 24.019531 C 75.09375 23.9375 75.1875 23.898438 75.300781 23.898438 L 91.519531 23.898438 C 91.632812 23.898438 91.726562 23.9375 91.804688 24.019531 C 91.886719 24.097656 91.925781 24.191406 91.925781 24.304688 Z M 90.707031 23.089844 L 76.109375 23.089844 L 76.109375 22.277344 L 90.707031 22.277344 Z M 90.707031 23.089844 " fill-opacity="1" fill-rule="nonzero"/></g><path fill="#263f6a" d="M 76.921875 24.710938 C 76.761719 24.710938 76.605469 24.742188 76.457031 24.804688 C 76.308594 24.863281 76.175781 24.953125 76.0625 25.066406 C 75.949219 25.179688 75.859375 25.3125 75.796875 25.460938 C 75.734375 25.609375 75.707031 25.765625 75.707031 25.925781 C 75.707031 26.089844 75.734375 26.242188 75.796875 26.390625 C 75.859375 26.542969 75.949219 26.671875 76.0625 26.789062 C 76.175781 26.902344 76.308594 26.988281 76.457031 27.050781 C 76.605469 27.113281 76.761719 27.144531 76.921875 27.144531 C 77.082031 27.144531 77.238281 27.113281 77.386719 27.050781 C 77.535156 26.988281 77.667969 26.902344 77.78125 26.789062 C 77.894531 26.671875 77.984375 26.542969 78.046875 26.390625 C 78.105469 26.242188 78.136719 26.089844 78.136719 25.925781 C 78.136719 25.765625 78.105469 25.609375 78.046875 25.460938 C 77.984375 25.3125 77.894531 25.179688 77.78125 25.066406 C 77.667969 24.953125 77.535156 24.867188 77.386719 24.804688 C 77.238281 24.742188 77.082031 24.710938 76.921875 24.710938 Z M 76.921875 26.332031 C 76.808594 26.332031 76.714844 26.292969 76.636719 26.214844 C 76.554688 26.132812 76.515625 26.039062 76.515625 25.925781 C 76.515625 25.816406 76.554688 25.71875 76.636719 25.640625 C 76.714844 25.5625 76.808594 25.523438 76.921875 25.523438 C 77.035156 25.523438 77.128906 25.5625 77.207031 25.640625 C 77.289062 25.71875 77.328125 25.816406 77.328125 25.925781 C 77.328125 26.039062 77.289062 26.132812 77.207031 26.214844 C 77.128906 26.292969 77.035156 26.332031 76.921875 26.332031 Z M 76.921875 26.332031 " fill-opacity="1" fill-rule="nonzero"/><path fill="#263f6a" d="M 80.570312 24.710938 C 80.410156 24.710938 80.253906 24.742188 80.105469 24.804688 C 79.957031 24.863281 79.824219 24.953125 79.710938 25.066406 C 79.597656 25.179688 79.507812 25.3125 79.449219 25.460938 C 79.386719 25.609375 79.355469 25.765625 79.355469 25.925781 C 79.355469 26.089844 79.386719 26.242188 79.449219 26.390625 C 79.507812 26.542969 79.597656 26.671875 79.710938 26.789062 C 79.824219 26.902344 79.957031 26.988281 80.105469 27.050781 C 80.253906 27.113281 80.410156 27.144531 80.570312 27.144531 C 80.734375 27.144531 80.886719 27.113281 81.035156 27.050781 C 81.1875 26.988281 81.316406 26.902344 81.429688 26.789062 C 81.546875 26.671875 81.632812 26.542969 81.695312 26.390625 C 81.757812 26.242188 81.789062 26.089844 81.789062 25.925781 C 81.789062 25.765625 81.757812 25.609375 81.695312 25.460938 C 81.632812 25.3125 81.546875 25.179688 81.429688 25.066406 C 81.316406 24.953125 81.183594 24.867188 81.035156 24.804688 C 80.886719 24.742188 80.734375 24.710938 80.570312 24.710938 Z M 80.570312 26.332031 C 80.460938 26.332031 80.363281 26.292969 80.285156 26.214844 C 80.207031 26.132812 80.164062 26.039062 80.164062 25.925781 C 80.164062 25.816406 80.207031 25.71875 80.285156 25.640625 C 80.363281 25.5625 80.460938 25.523438 80.570312 25.523438 C 80.683594 25.523438 80.777344 25.5625 80.859375 25.640625 C 80.9375 25.71875 80.976562 25.816406 80.976562 25.925781 C 80.976562 26.039062 80.9375 26.132812 80.859375 26.214844 C 80.777344 26.292969 80.683594 26.332031 80.570312 26.332031 Z M 80.570312 26.332031 " fill-opacity="1" fill-rule="nonzero"/><path fill="#263f6a" d="M 90.707031 25.523438 L 85.03125 25.523438 C 84.917969 25.523438 84.824219 25.5625 84.746094 25.640625 C 84.664062 25.71875 84.625 25.816406 84.625 25.925781 C 84.625 26.039062 84.664062 26.132812 84.746094 26.214844 C 84.824219 26.292969 84.917969 26.332031 85.03125 26.332031 L 90.707031 26.332031 C 90.820312 26.332031 90.917969 26.292969 90.996094 26.214844 C 91.074219 26.132812 91.113281 26.039062 91.113281 25.925781 C 91.113281 25.816406 91.074219 25.71875 90.996094 25.640625 C 90.917969 25.5625 90.820312 25.523438 90.707031 25.523438 Z M 90.707031 25.523438 " fill-opacity="1" fill-rule="nonzero"/><path fill="#263f6a" d="M 76.921875 31.199219 C 76.761719 31.199219 76.605469 31.230469 76.457031 31.292969 C 76.308594 31.351562 76.175781 31.441406 76.0625 31.554688 C 75.949219 31.667969 75.859375 31.800781 75.796875 31.949219 C 75.734375 32.097656 75.707031 32.253906 75.707031 32.414062 C 75.707031 32.578125 75.734375 32.730469 75.796875 32.878906 C 75.859375 33.03125 75.949219 33.160156 76.0625 33.273438 C 76.175781 33.390625 76.308594 33.476562 76.457031 33.539062 C 76.605469 33.601562 76.761719 33.632812 76.921875 33.632812 C 77.082031 33.632812 77.238281 33.601562 77.386719 33.539062 C 77.535156 33.476562 77.667969 33.390625 77.78125 33.273438 C 77.894531 33.160156 77.984375 33.03125 78.046875 32.878906 C 78.105469 32.730469 78.136719 32.578125 78.136719 32.414062 C 78.136719 32.253906 78.105469 32.097656 78.046875 31.949219 C 77.984375 31.800781 77.894531 31.667969 77.78125 31.554688 C 77.667969 31.441406 77.535156 31.351562 77.386719 31.292969 C 77.238281 31.230469 77.082031 31.199219 76.921875 31.199219 Z M 76.921875 32.820312 C 76.808594 32.820312 76.714844 32.78125 76.636719 32.703125 C 76.554688 32.621094 76.515625 32.527344 76.515625 32.414062 C 76.515625 32.304688 76.554688 32.207031 76.636719 32.128906 C 76.714844 32.050781 76.808594 32.007812 76.921875 32.007812 C 77.035156 32.007812 77.128906 32.050781 77.207031 32.128906 C 77.289062 32.207031 77.328125 32.304688 77.328125 32.414062 C 77.328125 32.527344 77.289062 32.621094 77.207031 32.703125 C 77.128906 32.78125 77.035156 32.820312 76.921875 32.820312 Z M 76.921875 32.820312 " fill-opacity="1" fill-rule="nonzero"/><path fill="#263f6a" d="M 80.570312 31.199219 C 80.410156 31.199219 80.253906 31.230469 80.105469 31.292969 C 79.957031 31.351562 79.824219 31.441406 79.710938 31.554688 C 79.597656 31.667969 79.507812 31.800781 79.449219 31.949219 C 79.386719 32.097656 79.355469 32.253906 79.355469 32.414062 C 79.355469 32.578125 79.386719 32.730469 79.449219 32.878906 C 79.507812 33.03125 79.597656 33.160156 79.710938 33.273438 C 79.824219 33.390625 79.957031 33.476562 80.105469 33.539062 C 80.253906 33.601562 80.410156 33.632812 80.570312 33.632812 C 80.734375 33.632812 80.886719 33.601562 81.035156 33.539062 C 81.1875 33.476562 81.316406 33.390625 81.429688 33.273438 C 81.546875 33.160156 81.632812 33.03125 81.695312 32.878906 C 81.757812 32.730469 81.789062 32.578125 81.789062 32.414062 C 81.789062 32.253906 81.757812 32.097656 81.695312 31.949219 C 81.632812 31.800781 81.546875 31.667969 81.429688 31.554688 C 81.316406 31.441406 81.183594 31.351562 81.035156 31.292969 C 80.886719 31.230469 80.734375 31.199219 80.570312 31.199219 Z M 80.570312 32.820312 C 80.460938 32.820312 80.363281 32.78125 80.285156 32.703125 C 80.207031 32.621094 80.164062 32.527344 80.164062 32.414062 C 80.164062 32.304688 80.207031 32.207031 80.285156 32.128906 C 80.363281 32.050781 80.460938 32.007812 80.570312 32.007812 C 80.683594 32.007812 80.777344 32.050781 80.859375 32.128906 C 80.9375 32.207031 80.976562 32.304688 80.976562 32.414062 C 80.976562 32.527344 80.9375 32.621094 80.859375 32.703125 C 80.777344 32.78125 80.683594 32.820312 80.570312 32.820312 Z M 80.570312 32.820312 " fill-opacity="1" fill-rule="nonzero"/><path fill="#263f6a" d="M 90.707031 32.007812 L 85.03125 32.007812 C 84.917969 32.007812 84.824219 32.050781 84.746094 32.128906 C 84.664062 32.207031 84.625 32.304688 84.625 32.414062 C 84.625 32.527344 84.664062 32.621094 84.746094 32.703125 C 84.824219 32.78125 84.917969 32.820312 85.03125 32.820312 L 90.707031 32.820312 C 90.820312 32.820312 90.917969 32.78125 90.996094 32.703125 C 91.074219 32.621094 91.113281 32.527344 91.113281 32.414062 C 91.113281 32.304688 91.074219 32.207031 90.996094 32.128906 C 90.917969 32.050781 90.820312 32.007812 90.707031 32.007812 Z M 90.707031 32.007812 " fill-opacity="1" fill-rule="nonzero"/><g clip-path="url(#6521624957)"><path fill="#263f6a" d="M 114.769531 20.792969 L 114.769531 17.492188 C 114.769531 17.324219 114.738281 17.167969 114.675781 17.015625 C 114.609375 16.863281 114.523438 16.730469 114.40625 16.613281 C 114.289062 16.5 114.15625 16.410156 114.003906 16.347656 C 113.851562 16.285156 113.695312 16.25 113.53125 16.25 L 97.015625 16.25 C 96.851562 16.25 96.691406 16.285156 96.542969 16.347656 C 96.390625 16.410156 96.253906 16.5 96.140625 16.613281 C 96.023438 16.730469 95.933594 16.863281 95.871094 17.015625 C 95.808594 17.167969 95.777344 17.324219 95.777344 17.492188 L 95.777344 20.792969 C 95.777344 20.957031 95.808594 21.117188 95.871094 21.265625 C 95.933594 21.417969 96.023438 21.550781 96.140625 21.667969 C 96.253906 21.785156 96.390625 21.875 96.542969 21.9375 C 96.691406 22 96.851562 22.03125 97.015625 22.03125 L 97.015625 22.859375 C 96.851562 22.859375 96.691406 22.890625 96.542969 22.953125 C 96.390625 23.015625 96.253906 23.105469 96.140625 23.222656 C 96.023438 23.335938 95.933594 23.472656 95.871094 23.621094 C 95.808594 23.773438 95.777344 23.933594 95.777344 24.097656 L 95.777344 27.398438 C 95.777344 27.5625 95.808594 27.722656 95.871094 27.875 C 95.933594 28.023438 96.023438 28.160156 96.140625 28.273438 C 96.253906 28.390625 96.390625 28.480469 96.542969 28.542969 C 96.691406 28.605469 96.851562 28.636719 97.015625 28.636719 L 97.015625 29.464844 C 96.851562 29.464844 96.691406 29.496094 96.542969 29.558594 C 96.390625 29.621094 96.253906 29.710938 96.140625 29.828125 C 96.023438 29.941406 95.933594 30.078125 95.871094 30.230469 C 95.808594 30.378906 95.777344 30.539062 95.777344 30.703125 L 95.777344 34.003906 C 95.777344 34.167969 95.808594 34.328125 95.871094 34.480469 C 95.933594 34.628906 96.023438 34.765625 96.140625 34.878906 C 96.253906 34.996094 96.390625 35.085938 96.542969 35.148438 C 96.691406 35.210938 96.851562 35.242188 97.015625 35.242188 L 113.53125 35.242188 C 113.695312 35.242188 113.851562 35.210938 114.003906 35.148438 C 114.15625 35.085938 114.289062 34.996094 114.40625 34.878906 C 114.523438 34.765625 114.609375 34.628906 114.675781 34.480469 C 114.738281 34.328125 114.769531 34.167969 114.769531 34.003906 L 114.769531 30.703125 C 114.769531 30.539062 114.738281 30.378906 114.675781 30.230469 C 114.609375 30.078125 114.523438 29.941406 114.40625 29.828125 C 114.289062 29.710938 114.15625 29.621094 114.003906 29.558594 C 113.851562 29.496094 113.695312 29.464844 113.53125 29.464844 L 113.53125 28.636719 C 113.695312 28.636719 113.851562 28.605469 114.003906 28.542969 C 114.15625 28.480469 114.289062 28.390625 114.40625 28.273438 C 114.523438 28.160156 114.609375 28.023438 114.675781 27.875 C 114.738281 27.722656 114.769531 27.5625 114.769531 27.398438 L 114.769531 24.097656 C 114.769531 23.933594 114.738281 23.773438 114.675781 23.621094 C 114.609375 23.472656 114.523438 23.335938 114.40625 23.222656 C 114.289062 23.105469 114.15625 23.015625 114.003906 22.953125 C 113.851562 22.890625 113.695312 22.859375 113.53125 22.859375 L 113.53125 22.03125 C 113.695312 22.03125 113.851562 22 114.003906 21.9375 C 114.15625 21.875 114.289062 21.785156 114.40625 21.667969 C 114.523438 21.550781 114.609375 21.417969 114.675781 21.265625 C 114.738281 21.117188 114.769531 20.957031 114.769531 20.792969 Z M 96.601562 20.792969 L 96.601562 17.492188 C 96.601562 17.375 96.644531 17.277344 96.722656 17.199219 C 96.804688 17.117188 96.902344 17.078125 97.015625 17.078125 L 113.53125 17.078125 C 113.644531 17.078125 113.742188 17.117188 113.820312 17.199219 C 113.902344 17.277344 113.941406 17.375 113.941406 17.492188 L 113.941406 20.792969 C 113.941406 20.90625 113.902344 21.003906 113.820312 21.085938 C 113.742188 21.164062 113.644531 21.207031 113.53125 21.207031 L 97.015625 21.207031 C 96.902344 21.207031 96.804688 21.164062 96.722656 21.085938 C 96.644531 21.003906 96.601562 20.90625 96.601562 20.792969 Z M 113.941406 30.703125 L 113.941406 34.003906 C 113.941406 34.121094 113.902344 34.214844 113.820312 34.296875 C 113.742188 34.378906 113.644531 34.417969 113.53125 34.417969 L 97.015625 34.417969 C 96.902344 34.417969 96.804688 34.378906 96.722656 34.296875 C 96.644531 34.214844 96.601562 34.121094 96.601562 34.003906 L 96.601562 30.703125 C 96.601562 30.589844 96.644531 30.492188 96.722656 30.410156 C 96.804688 30.328125 96.902344 30.289062 97.015625 30.289062 L 113.53125 30.289062 C 113.644531 30.289062 113.742188 30.328125 113.820312 30.410156 C 113.902344 30.492188 113.941406 30.589844 113.941406 30.703125 Z M 112.703125 29.464844 L 97.839844 29.464844 L 97.839844 28.636719 L 112.703125 28.636719 Z M 113.941406 24.097656 L 113.941406 27.398438 C 113.941406 27.511719 113.902344 27.609375 113.820312 27.691406 C 113.742188 27.773438 113.644531 27.8125 113.53125 27.8125 L 97.015625 27.8125 C 96.902344 27.8125 96.804688 27.773438 96.722656 27.691406 C 96.644531 27.609375 96.601562 27.511719 96.601562 27.398438 L 96.601562 24.097656 C 96.601562 23.980469 96.644531 23.886719 96.722656 23.804688 C 96.804688 23.722656 96.902344 23.683594 97.015625 23.683594 L 113.53125 23.683594 C 113.644531 23.683594 113.742188 23.722656 113.820312 23.804688 C 113.902344 23.886719 113.941406 23.980469 113.941406 24.097656 Z M 112.703125 22.859375 L 97.839844 22.859375 L 97.839844 22.03125 L 112.703125 22.03125 Z M 112.703125 22.859375 " fill-opacity="1" fill-rule="nonzero"/></g><path fill="#263f6a" d="M 98.667969 31.113281 C 98.503906 31.113281 98.34375 31.148438 98.191406 31.210938 C 98.039062 31.273438 97.90625 31.363281 97.789062 31.476562 C 97.675781 31.59375 97.585938 31.726562 97.523438 31.878906 C 97.460938 32.03125 97.429688 32.191406 97.429688 32.355469 C 97.429688 32.519531 97.460938 32.675781 97.523438 32.828125 C 97.585938 32.980469 97.675781 33.113281 97.789062 33.230469 C 97.90625 33.347656 98.039062 33.433594 98.191406 33.5 C 98.34375 33.5625 98.503906 33.59375 98.667969 33.59375 C 98.832031 33.59375 98.988281 33.5625 99.140625 33.5 C 99.292969 33.433594 99.425781 33.347656 99.542969 33.230469 C 99.660156 33.113281 99.75 32.980469 99.8125 32.828125 C 99.875 32.675781 99.90625 32.519531 99.90625 32.355469 C 99.90625 32.191406 99.875 32.03125 99.8125 31.878906 C 99.746094 31.726562 99.65625 31.59375 99.542969 31.476562 C 99.425781 31.363281 99.292969 31.273438 99.140625 31.210938 C 98.988281 31.148438 98.832031 31.117188 98.667969 31.113281 Z M 98.667969 32.765625 C 98.550781 32.765625 98.457031 32.726562 98.375 32.644531 C 98.292969 32.566406 98.253906 32.46875 98.253906 32.355469 C 98.253906 32.238281 98.292969 32.140625 98.375 32.0625 C 98.457031 31.980469 98.550781 31.941406 98.667969 31.941406 C 98.78125 31.941406 98.878906 31.980469 98.957031 32.0625 C 99.039062 32.140625 99.078125 32.238281 99.078125 32.355469 C 99.078125 32.46875 99.039062 32.566406 98.957031 32.644531 C 98.878906 32.726562 98.78125 32.765625 98.667969 32.765625 Z M 98.667969 32.765625 " fill-opacity="1" fill-rule="nonzero"/><path fill="#263f6a" d="M 102.382812 31.113281 C 102.21875 31.113281 102.058594 31.148438 101.910156 31.210938 C 101.757812 31.273438 101.621094 31.363281 101.507812 31.476562 C 101.390625 31.59375 101.300781 31.726562 101.238281 31.878906 C 101.175781 32.03125 101.144531 32.191406 101.144531 32.355469 C 101.144531 32.519531 101.175781 32.675781 101.238281 32.828125 C 101.300781 32.980469 101.390625 33.113281 101.507812 33.230469 C 101.621094 33.347656 101.757812 33.433594 101.910156 33.5 C 102.058594 33.5625 102.21875 33.59375 102.382812 33.59375 C 102.546875 33.59375 102.703125 33.5625 102.855469 33.5 C 103.007812 33.433594 103.140625 33.347656 103.257812 33.230469 C 103.375 33.113281 103.464844 32.980469 103.527344 32.828125 C 103.589844 32.675781 103.621094 32.519531 103.621094 32.355469 C 103.621094 32.191406 103.589844 32.03125 103.527344 31.878906 C 103.464844 31.726562 103.375 31.59375 103.257812 31.476562 C 103.140625 31.363281 103.007812 31.273438 102.855469 31.210938 C 102.703125 31.148438 102.546875 31.117188 102.382812 31.113281 Z M 102.382812 32.765625 C 102.269531 32.765625 102.171875 32.726562 102.089844 32.644531 C 102.011719 32.566406 101.96875 32.46875 101.96875 32.355469 C 101.96875 32.238281 102.011719 32.140625 102.089844 32.0625 C 102.171875 31.980469 102.269531 31.941406 102.382812 31.941406 C 102.496094 31.941406 102.59375 31.980469 102.675781 32.0625 C 102.753906 32.140625 102.796875 32.238281 102.796875 32.355469 C 102.796875 32.46875 102.753906 32.566406 102.675781 32.644531 C 102.59375 32.726562 102.496094 32.765625 102.382812 32.765625 Z M 102.382812 32.765625 " fill-opacity="1" fill-rule="nonzero"/><path fill="#263f6a" d="M 112.703125 31.941406 L 106.925781 31.941406 C 106.808594 31.941406 106.710938 31.980469 106.632812 32.0625 C 106.550781 32.140625 106.511719 32.238281 106.511719 32.355469 C 106.511719 32.46875 106.550781 32.566406 106.632812 32.644531 C 106.710938 32.726562 106.808594 32.765625 106.925781 32.765625 L 112.703125 32.765625 C 112.820312 32.765625 112.914062 32.726562 112.996094 32.644531 C 113.078125 32.566406 113.117188 32.46875 113.117188 32.355469 C 113.117188 32.238281 113.078125 32.140625 112.996094 32.0625 C 112.914062 31.980469 112.820312 31.941406 112.703125 31.941406 Z M 112.703125 31.941406 " fill-opacity="1" fill-rule="nonzero"/><g fill="#d2492a" fill-opacity="1"><g transform="translate(30.574757, 45.946205)"><g><path d="M 0.957031 0.046875 C 1.59375 0.046875 1.921875 -0.523438 1.921875 -1.171875 C 1.921875 -1.839844 1.59375 -2.402344 0.957031 -2.402344 C 0.320312 -2.402344 0 -1.839844 0 -1.171875 C 0 -0.523438 0.320312 0.046875 0.957031 0.046875 Z M 0.957031 -1.835938 C 1.210938 -1.835938 1.332031 -1.582031 1.332031 -1.171875 C 1.332031 -0.804688 1.210938 -0.511719 0.957031 -0.511719 C 0.710938 -0.511719 0.585938 -0.804688 0.585938 -1.171875 C 0.585938 -1.582031 0.710938 -1.835938 0.957031 -1.835938 Z M 0.957031 -1.835938 "/></g></g></g><g fill="#d2492a" fill-opacity="1"><g transform="translate(32.732837, 45.946205)"><g><path d="M 0.683594 -2.390625 L -0.0703125 -1.566406 L 0.320312 -1.179688 L 0.515625 -1.371094 L 0.515625 0 L 1.070312 0 L 1.070312 -2.390625 Z M 0.683594 -2.390625 "/></g></g></g><g fill="#d2492a" fill-opacity="1"><g transform="translate(34.069759, 45.946205)"><g><path d="M 0.683594 -2.390625 L -0.0703125 -1.566406 L 0.320312 -1.179688 L 0.515625 -1.371094 L 0.515625 0 L 1.070312 0 L 1.070312 -2.390625 Z M 0.683594 -2.390625 "/></g></g></g><g fill="#d2492a" fill-opacity="1"><g transform="translate(35.406682, 45.946205)"><g><path d="M 0.957031 0.046875 C 1.59375 0.046875 1.921875 -0.523438 1.921875 -1.171875 C 1.921875 -1.839844 1.59375 -2.402344 0.957031 -2.402344 C 0.320312 -2.402344 0 -1.839844 0 -1.171875 C 0 -0.523438 0.320312 0.046875 0.957031 0.046875 Z M 0.957031 -1.835938 C 1.210938 -1.835938 1.332031 -1.582031 1.332031 -1.171875 C 1.332031 -0.804688 1.210938 -0.511719 0.957031 -0.511719 C 0.710938 -0.511719 0.585938 -0.804688 0.585938 -1.171875 C 0.585938 -1.582031 0.710938 -1.835938 0.957031 -1.835938 Z M 0.957031 -1.835938 "/></g></g></g><g fill="#d2492a" fill-opacity="1"><g transform="translate(37.564762, 45.946205)"><g><path d="M 0.683594 -2.390625 L -0.0703125 -1.566406 L 0.320312 -1.179688 L 0.515625 -1.371094 L 0.515625 0 L 1.070312 0 L 1.070312 -2.390625 Z M 0.683594 -2.390625 "/></g></g></g><g fill="#d2492a" fill-opacity="1"><g transform="translate(38.901684, 45.946205)"><g><path d="M 0.683594 -2.390625 L -0.0703125 -1.566406 L 0.320312 -1.179688 L 0.515625 -1.371094 L 0.515625 0 L 1.070312 0 L 1.070312 -2.390625 Z M 0.683594 -2.390625 "/></g></g></g><g fill="#d2492a" fill-opacity="1"><g transform="translate(40.238607, 45.946205)"><g><path d="M 0.683594 -2.390625 L -0.0703125 -1.566406 L 0.320312 -1.179688 L 0.515625 -1.371094 L 0.515625 0 L 1.070312 0 L 1.070312 -2.390625 Z M 0.683594 -2.390625 "/></g></g></g><g fill="#d2492a" fill-opacity="1"><g transform="translate(41.575529, 45.946205)"><g><path d="M 0.683594 -2.390625 L -0.0703125 -1.566406 L 0.320312 -1.179688 L 0.515625 -1.371094 L 0.515625 0 L 1.070312 0 L 1.070312 -2.390625 Z M 0.683594 -2.390625 "/></g></g></g><g fill="#d2492a" fill-opacity="1"><g transform="translate(42.912452, 45.946205)"><g/></g></g><g fill="#d2492a" fill-opacity="1"><g transform="translate(43.764148, 45.946205)"><g><path d="M 0.957031 0.046875 C 1.59375 0.046875 1.921875 -0.523438 1.921875 -1.171875 C 1.921875 -1.839844 1.59375 -2.402344 0.957031 -2.402344 C 0.320312 -2.402344 0 -1.839844 0 -1.171875 C 0 -0.523438 0.320312 0.046875 0.957031 0.046875 Z M 0.957031 -1.835938 C 1.210938 -1.835938 1.332031 -1.582031 1.332031 -1.171875 C 1.332031 -0.804688 1.210938 -0.511719 0.957031 -0.511719 C 0.710938 -0.511719 0.585938 -0.804688 0.585938 -1.171875 C 0.585938 -1.582031 0.710938 -1.835938 0.957031 -1.835938 Z M 0.957031 -1.835938 "/></g></g></g><g fill="#d2492a" fill-opacity="1"><g transform="translate(45.922228, 45.946205)"><g><path d="M 0.683594 -2.390625 L -0.0703125 -1.566406 L 0.320312 -1.179688 L 0.515625 -1.371094 L 0.515625 0 L 1.070312 0 L 1.070312 -2.390625 Z M 0.683594 -2.390625 "/></g></g></g><g fill="#d2492a" fill-opacity="1"><g transform="translate(47.25915, 45.946205)"><g><path d="M 0.683594 -2.390625 L -0.0703125 -1.566406 L 0.320312 -1.179688 L 0.515625 -1.371094 L 0.515625 0 L 1.070312 0 L 1.070312 -2.390625 Z M 0.683594 -2.390625 "/></g></g></g><g fill="#d2492a" fill-opacity="1"><g transform="translate(48.596073, 45.946205)"><g><path d="M 0.683594 -2.390625 L -0.0703125 -1.566406 L 0.320312 -1.179688 L 0.515625 -1.371094 L 0.515625 0 L 1.070312 0 L 1.070312 -2.390625 Z M 0.683594 -2.390625 "/></g></g></g><g fill="#d2492a" fill-opacity="1"><g transform="translate(49.932996, 45.946205)"><g><path d="M 0.957031 0.046875 C 1.59375 0.046875 1.921875 -0.523438 1.921875 -1.171875 C 1.921875 -1.839844 1.59375 -2.402344 0.957031 -2.402344 C 0.320312 -2.402344 0 -1.839844 0 -1.171875 C 0 -0.523438 0.320312 0.046875 0.957031 0.046875 Z M 0.957031 -1.835938 C 1.210938 -1.835938 1.332031 -1.582031 1.332031 -1.171875 C 1.332031 -0.804688 1.210938 -0.511719 0.957031 -0.511719 C 0.710938 -0.511719 0.585938 -0.804688 0.585938 -1.171875 C 0.585938 -1.582031 0.710938 -1.835938 0.957031 -1.835938 Z M 0.957031 -1.835938 "/></g></g></g><g fill="#d2492a" fill-opacity="1"><g transform="translate(52.091075, 45.946205)"><g><path d="M 0.957031 0.046875 C 1.59375 0.046875 1.921875 -0.523438 1.921875 -1.171875 C 1.921875 -1.839844 1.59375 -2.402344 0.957031 -2.402344 C 0.320312 -2.402344 0 -1.839844 0 -1.171875 C 0 -0.523438 0.320312 0.046875 0.957031 0.046875 Z M 0.957031 -1.835938 C 1.210938 -1.835938 1.332031 -1.582031 1.332031 -1.171875 C 1.332031 -0.804688 1.210938 -0.511719 0.957031 -0.511719 C 0.710938 -0.511719 0.585938 -0.804688 0.585938 -1.171875 C 0.585938 -1.582031 0.710938 -1.835938 0.957031 -1.835938 Z M 0.957031 -1.835938 "/></g></g></g><g fill="#d2492a" fill-opacity="1"><g transform="translate(54.249155, 45.946205)"><g><path d="M 0.683594 -2.390625 L -0.0703125 -1.566406 L 0.320312 -1.179688 L 0.515625 -1.371094 L 0.515625 0 L 1.070312 0 L 1.070312 -2.390625 Z M 0.683594 -2.390625 "/></g></g></g><g fill="#d2492a" fill-opacity="1"><g transform="translate(55.586078, 45.946205)"><g><path d="M 0.957031 0.046875 C 1.59375 0.046875 1.921875 -0.523438 1.921875 -1.171875 C 1.921875 -1.839844 1.59375 -2.402344 0.957031 -2.402344 C 0.320312 -2.402344 0 -1.839844 0 -1.171875 C 0 -0.523438 0.320312 0.046875 0.957031 0.046875 Z M 0.957031 -1.835938 C 1.210938 -1.835938 1.332031 -1.582031 1.332031 -1.171875 C 1.332031 -0.804688 1.210938 -0.511719 0.957031 -0.511719 C 0.710938 -0.511719 0.585938 -0.804688 0.585938 -1.171875 C 0.585938 -1.582031 0.710938 -1.835938 0.957031 -1.835938 Z M 0.957031 -1.835938 "/></g></g></g><g fill="#d2492a" fill-opacity="1"><g transform="translate(57.744157, 45.946205)"><g><path d="M 0.957031 0.046875 C 1.59375 0.046875 1.921875 -0.523438 1.921875 -1.171875 C 1.921875 -1.839844 1.59375 -2.402344 0.957031 -2.402344 C 0.320312 -2.402344 0 -1.839844 0 -1.171875 C 0 -0.523438 0.320312 0.046875 0.957031 0.046875 Z M 0.957031 -1.835938 C 1.210938 -1.835938 1.332031 -1.582031 1.332031 -1.171875 C 1.332031 -0.804688 1.210938 -0.511719 0.957031 -0.511719 C 0.710938 -0.511719 0.585938 -0.804688 0.585938 -1.171875 C 0.585938 -1.582031 0.710938 -1.835938 0.957031 -1.835938 Z M 0.957031 -1.835938 "/></g></g></g><g fill="#d2492a" fill-opacity="1"><g transform="translate(59.902237, 45.946205)"><g><path d="M 0.683594 -2.390625 L -0.0703125 -1.566406 L 0.320312 -1.179688 L 0.515625 -1.371094 L 0.515625 0 L 1.070312 0 L 1.070312 -2.390625 Z M 0.683594 -2.390625 "/></g></g></g><g fill="#d2492a" fill-opacity="1"><g transform="translate(61.239159, 45.946205)"><g><path d="M 0.683594 -2.390625 L -0.0703125 -1.566406 L 0.320312 -1.179688 L 0.515625 -1.371094 L 0.515625 0 L 1.070312 0 L 1.070312 -2.390625 Z M 0.683594 -2.390625 "/></g></g></g><g fill="#d2492a" fill-opacity="1"><g transform="translate(62.576082, 45.946205)"><g><path d="M 0.957031 0.046875 C 1.59375 0.046875 1.921875 -0.523438 1.921875 -1.171875 C 1.921875 -1.839844 1.59375 -2.402344 0.957031 -2.402344 C 0.320312 -2.402344 0 -1.839844 0 -1.171875 C 0 -0.523438 0.320312 0.046875 0.957031 0.046875 Z M 0.957031 -1.835938 C 1.210938 -1.835938 1.332031 -1.582031 1.332031 -1.171875 C 1.332031 -0.804688 1.210938 -0.511719 0.957031 -0.511719 C 0.710938 -0.511719 0.585938 -0.804688 0.585938 -1.171875 C 0.585938 -1.582031 0.710938 -1.835938 0.957031 -1.835938 Z M 0.957031 -1.835938 "/></g></g></g><g fill="#d2492a" fill-opacity="1"><g transform="translate(64.734162, 45.946205)"><g><path d="M 0.957031 0.046875 C 1.59375 0.046875 1.921875 -0.523438 1.921875 -1.171875 C 1.921875 -1.839844 1.59375 -2.402344 0.957031 -2.402344 C 0.320312 -2.402344 0 -1.839844 0 -1.171875 C 0 -0.523438 0.320312 0.046875 0.957031 0.046875 Z M 0.957031 -1.835938 C 1.210938 -1.835938 1.332031 -1.582031 1.332031 -1.171875 C 1.332031 -0.804688 1.210938 -0.511719 0.957031 -0.511719 C 0.710938 -0.511719 0.585938 -0.804688 0.585938 -1.171875 C 0.585938 -1.582031 0.710938 -1.835938 0.957031 -1.835938 Z M 0.957031 -1.835938 "/></g></g></g><g fill="#d2492a" fill-opacity="1"><g transform="translate(66.892241, 45.946205)"><g><path d="M 0.683594 -2.390625 L -0.0703125 -1.566406 L 0.320312 -1.179688 L 0.515625 -1.371094 L 0.515625 0 L 1.070312 0 L 1.070312 -2.390625 Z M 0.683594 -2.390625 "/></g></g></g><g fill="#d2492a" fill-opacity="1"><g transform="translate(68.229164, 45.946205)"><g><path d="M 0.957031 0.046875 C 1.59375 0.046875 1.921875 -0.523438 1.921875 -1.171875 C 1.921875 -1.839844 1.59375 -2.402344 0.957031 -2.402344 C 0.320312 -2.402344 0 -1.839844 0 -1.171875 C 0 -0.523438 0.320312 0.046875 0.957031 0.046875 Z M 0.957031 -1.835938 C 1.210938 -1.835938 1.332031 -1.582031 1.332031 -1.171875 C 1.332031 -0.804688 1.210938 -0.511719 0.957031 -0.511719 C 0.710938 -0.511719 0.585938 -0.804688 0.585938 -1.171875 C 0.585938 -1.582031 0.710938 -1.835938 0.957031 -1.835938 Z M 0.957031 -1.835938 "/></g></g></g><g fill="#d2492a" fill-opacity="1"><g transform="translate(70.387244, 45.946205)"><g><path d="M 0.683594 -2.390625 L -0.0703125 -1.566406 L 0.320312 -1.179688 L 0.515625 -1.371094 L 0.515625 0 L 1.070312 0 L 1.070312 -2.390625 Z M 0.683594 -2.390625 "/></g></g></g><g fill="#d2492a" fill-opacity="1"><g transform="translate(71.725961, 45.946205)"><g/></g></g><g fill="#d2492a" fill-opacity="1"><g transform="translate(44.523147, 50.8859)"><g><path d="M 0.957031 0.046875 C 1.59375 0.046875 1.921875 -0.523438 1.921875 -1.171875 C 1.921875 -1.839844 1.59375 -2.402344 0.957031 -2.402344 C 0.320312 -2.402344 0 -1.839844 0 -1.171875 C 0 -0.523438 0.320312 0.046875 0.957031 0.046875 Z M 0.957031 -1.835938 C 1.210938 -1.835938 1.332031 -1.582031 1.332031 -1.171875 C 1.332031 -0.804688 1.210938 -0.511719 0.957031 -0.511719 C 0.710938 -0.511719 0.585938 -0.804688 0.585938 -1.171875 C 0.585938 -1.582031 0.710938 -1.835938 0.957031 -1.835938 Z M 0.957031 -1.835938 "/></g></g></g><g fill="#d2492a" fill-opacity="1"><g transform="translate(46.681226, 50.8859)"><g><path d="M 0.683594 -2.390625 L -0.0703125 -1.566406 L 0.320312 -1.179688 L 0.515625 -1.371094 L 0.515625 0 L 1.070312 0 L 1.070312 -2.390625 Z M 0.683594 -2.390625 "/></g></g></g><g fill="#d2492a" fill-opacity="1"><g transform="translate(48.018149, 50.8859)"><g><path d="M 0.683594 -2.390625 L -0.0703125 -1.566406 L 0.320312 -1.179688 L 0.515625 -1.371094 L 0.515625 0 L 1.070312 0 L 1.070312 -2.390625 Z M 0.683594 -2.390625 "/></g></g></g><g fill="#d2492a" fill-opacity="1"><g transform="translate(49.355071, 50.8859)"><g><path d="M 0.683594 -2.390625 L -0.0703125 -1.566406 L 0.320312 -1.179688 L 0.515625 -1.371094 L 0.515625 0 L 1.070312 0 L 1.070312 -2.390625 Z M 0.683594 -2.390625 "/></g></g></g><g fill="#d2492a" fill-opacity="1"><g transform="translate(50.691994, 50.8859)"><g><path d="M 0.957031 0.046875 C 1.59375 0.046875 1.921875 -0.523438 1.921875 -1.171875 C 1.921875 -1.839844 1.59375 -2.402344 0.957031 -2.402344 C 0.320312 -2.402344 0 -1.839844 0 -1.171875 C 0 -0.523438 0.320312 0.046875 0.957031 0.046875 Z M 0.957031 -1.835938 C 1.210938 -1.835938 1.332031 -1.582031 1.332031 -1.171875 C 1.332031 -0.804688 1.210938 -0.511719 0.957031 -0.511719 C 0.710938 -0.511719 0.585938 -0.804688 0.585938 -1.171875 C 0.585938 -1.582031 0.710938 -1.835938 0.957031 -1.835938 Z M 0.957031 -1.835938 "/></g></g></g><g fill="#d2492a" fill-opacity="1"><g transform="translate(52.850074, 50.8859)"><g><path d="M 0.957031 0.046875 C 1.59375 0.046875 1.921875 -0.523438 1.921875 -1.171875 C 1.921875 -1.839844 1.59375 -2.402344 0.957031 -2.402344 C 0.320312 -2.402344 0 -1.839844 0 -1.171875 C 0 -0.523438 0.320312 0.046875 0.957031 0.046875 Z M 0.957031 -1.835938 C 1.210938 -1.835938 1.332031 -1.582031 1.332031 -1.171875 C 1.332031 -0.804688 1.210938 -0.511719 0.957031 -0.511719 C 0.710938 -0.511719 0.585938 -0.804688 0.585938 -1.171875 C 0.585938 -1.582031 0.710938 -1.835938 0.957031 -1.835938 Z M 0.957031 -1.835938 "/></g></g></g><g fill="#d2492a" fill-opacity="1"><g transform="translate(55.008153, 50.8859)"><g><path d="M 0.683594 -2.390625 L -0.0703125 -1.566406 L 0.320312 -1.179688 L 0.515625 -1.371094 L 0.515625 0 L 1.070312 0 L 1.070312 -2.390625 Z M 0.683594 -2.390625 "/></g></g></g><g fill="#d2492a" fill-opacity="1"><g transform="translate(56.345076, 50.8859)"><g><path d="M 0.683594 -2.390625 L -0.0703125 -1.566406 L 0.320312 -1.179688 L 0.515625 -1.371094 L 0.515625 0 L 1.070312 0 L 1.070312 -2.390625 Z M 0.683594 -2.390625 "/></g></g></g><g fill="#d2492a" fill-opacity="1"><g transform="translate(57.681999, 50.8859)"><g/></g></g><g fill="#d2492a" fill-opacity="1"><g transform="translate(58.533695, 50.8859)"><g><path d="M 0.957031 0.046875 C 1.59375 0.046875 1.921875 -0.523438 1.921875 -1.171875 C 1.921875 -1.839844 1.59375 -2.402344 0.957031 -2.402344 C 0.320312 -2.402344 0 -1.839844 0 -1.171875 C 0 -0.523438 0.320312 0.046875 0.957031 0.046875 Z M 0.957031 -1.835938 C 1.210938 -1.835938 1.332031 -1.582031 1.332031 -1.171875 C 1.332031 -0.804688 1.210938 -0.511719 0.957031 -0.511719 C 0.710938 -0.511719 0.585938 -0.804688 0.585938 -1.171875 C 0.585938 -1.582031 0.710938 -1.835938 0.957031 -1.835938 Z M 0.957031 -1.835938 "/></g></g></g><g fill="#d2492a" fill-opacity="1"><g transform="translate(60.691774, 50.8859)"><g><path d="M 0.683594 -2.390625 L -0.0703125 -1.566406 L 0.320312 -1.179688 L 0.515625 -1.371094 L 0.515625 0 L 1.070312 0 L 1.070312 -2.390625 Z M 0.683594 -2.390625 "/></g></g></g><g fill="#d2492a" fill-opacity="1"><g transform="translate(62.028697, 50.8859)"><g><path d="M 0.683594 -2.390625 L -0.0703125 -1.566406 L 0.320312 -1.179688 L 0.515625 -1.371094 L 0.515625 0 L 1.070312 0 L 1.070312 -2.390625 Z M 0.683594 -2.390625 "/></g></g></g><g fill="#d2492a" fill-opacity="1"><g transform="translate(63.36562, 50.8859)"><g><path d="M 0.957031 0.046875 C 1.59375 0.046875 1.921875 -0.523438 1.921875 -1.171875 C 1.921875 -1.839844 1.59375 -2.402344 0.957031 -2.402344 C 0.320312 -2.402344 0 -1.839844 0 -1.171875 C 0 -0.523438 0.320312 0.046875 0.957031 0.046875 Z M 0.957031 -1.835938 C 1.210938 -1.835938 1.332031 -1.582031 1.332031 -1.171875 C 1.332031 -0.804688 1.210938 -0.511719 0.957031 -0.511719 C 0.710938 -0.511719 0.585938 -0.804688 0.585938 -1.171875 C 0.585938 -1.582031 0.710938 -1.835938 0.957031 -1.835938 Z M 0.957031 -1.835938 "/></g></g></g><g fill="#d2492a" fill-opacity="1"><g transform="translate(65.523699, 50.8859)"><g><path d="M 0.957031 0.046875 C 1.59375 0.046875 1.921875 -0.523438 1.921875 -1.171875 C 1.921875 -1.839844 1.59375 -2.402344 0.957031 -2.402344 C 0.320312 -2.402344 0 -1.839844 0 -1.171875 C 0 -0.523438 0.320312 0.046875 0.957031 0.046875 Z M 0.957031 -1.835938 C 1.210938 -1.835938 1.332031 -1.582031 1.332031 -1.171875 C 1.332031 -0.804688 1.210938 -0.511719 0.957031 -0.511719 C 0.710938 -0.511719 0.585938 -0.804688 0.585938 -1.171875 C 0.585938 -1.582031 0.710938 -1.835938 0.957031 -1.835938 Z M 0.957031 -1.835938 "/></g></g></g><g fill="#d2492a" fill-opacity="1"><g transform="translate(67.681779, 50.8859)"><g><path d="M 0.683594 -2.390625 L -0.0703125 -1.566406 L 0.320312 -1.179688 L 0.515625 -1.371094 L 0.515625 0 L 1.070312 0 L 1.070312 -2.390625 Z M 0.683594 -2.390625 "/></g></g></g><g fill="#d2492a" fill-opacity="1"><g transform="translate(69.018701, 50.8859)"><g><path d="M 0.957031 0.046875 C 1.59375 0.046875 1.921875 -0.523438 1.921875 -1.171875 C 1.921875 -1.839844 1.59375 -2.402344 0.957031 -2.402344 C 0.320312 -2.402344 0 -1.839844 0 -1.171875 C 0 -0.523438 0.320312 0.046875 0.957031 0.046875 Z M 0.957031 -1.835938 C 1.210938 -1.835938 1.332031 -1.582031 1.332031 -1.171875 C 1.332031 -0.804688 1.210938 -0.511719 0.957031 -0.511719 C 0.710938 -0.511719 0.585938 -0.804688 0.585938 -1.171875 C 0.585938 -1.582031 0.710938 -1.835938 0.957031 -1.835938 Z M 0.957031 -1.835938 "/></g></g></g><g fill="#d2492a" fill-opacity="1"><g transform="translate(71.178205, 50.8859)"><g/></g></g><g fill="#d2492a" fill-opacity="1"><g transform="translate(55.909536, 55.663925)"><g><path d="M 0.683594 -2.390625 L -0.0703125 -1.566406 L 0.320312 -1.179688 L 0.515625 -1.371094 L 0.515625 0 L 1.070312 0 L 1.070312 -2.390625 Z M 0.683594 -2.390625 "/></g></g></g><g fill="#d2492a" fill-opacity="1"><g transform="translate(57.246459, 55.663925)"><g><path d="M 0.957031 0.046875 C 1.59375 0.046875 1.921875 -0.523438 1.921875 -1.171875 C 1.921875 -1.839844 1.59375 -2.402344 0.957031 -2.402344 C 0.320312 -2.402344 0 -1.839844 0 -1.171875 C 0 -0.523438 0.320312 0.046875 0.957031 0.046875 Z M 0.957031 -1.835938 C 1.210938 -1.835938 1.332031 -1.582031 1.332031 -1.171875 C 1.332031 -0.804688 1.210938 -0.511719 0.957031 -0.511719 C 0.710938 -0.511719 0.585938 -0.804688 0.585938 -1.171875 C 0.585938 -1.582031 0.710938 -1.835938 0.957031 -1.835938 Z M 0.957031 -1.835938 "/></g></g></g><g fill="#d2492a" fill-opacity="1"><g transform="translate(59.404538, 55.663925)"><g><path d="M 0.683594 -2.390625 L -0.0703125 -1.566406 L 0.320312 -1.179688 L 0.515625 -1.371094 L 0.515625 0 L 1.070312 0 L 1.070312 -2.390625 Z M 0.683594 -2.390625 "/></g></g></g><g fill="#d2492a" fill-opacity="1"><g transform="translate(60.741461, 55.663925)"><g><path d="M 0.683594 -2.390625 L -0.0703125 -1.566406 L 0.320312 -1.179688 L 0.515625 -1.371094 L 0.515625 0 L 1.070312 0 L 1.070312 -2.390625 Z M 0.683594 -2.390625 "/></g></g></g><g fill="#d2492a" fill-opacity="1"><g transform="translate(62.078383, 55.663925)"><g><path d="M 0.957031 0.046875 C 1.59375 0.046875 1.921875 -0.523438 1.921875 -1.171875 C 1.921875 -1.839844 1.59375 -2.402344 0.957031 -2.402344 C 0.320312 -2.402344 0 -1.839844 0 -1.171875 C 0 -0.523438 0.320312 0.046875 0.957031 0.046875 Z M 0.957031 -1.835938 C 1.210938 -1.835938 1.332031 -1.582031 1.332031 -1.171875 C 1.332031 -0.804688 1.210938 -0.511719 0.957031 -0.511719 C 0.710938 -0.511719 0.585938 -0.804688 0.585938 -1.171875 C 0.585938 -1.582031 0.710938 -1.835938 0.957031 -1.835938 Z M 0.957031 -1.835938 "/></g></g></g><g fill="#d2492a" fill-opacity="1"><g transform="translate(64.236463, 55.663925)"><g><path d="M 0.957031 0.046875 C 1.59375 0.046875 1.921875 -0.523438 1.921875 -1.171875 C 1.921875 -1.839844 1.59375 -2.402344 0.957031 -2.402344 C 0.320312 -2.402344 0 -1.839844 0 -1.171875 C 0 -0.523438 0.320312 0.046875 0.957031 0.046875 Z M 0.957031 -1.835938 C 1.210938 -1.835938 1.332031 -1.582031 1.332031 -1.171875 C 1.332031 -0.804688 1.210938 -0.511719 0.957031 -0.511719 C 0.710938 -0.511719 0.585938 -0.804688 0.585938 -1.171875 C 0.585938 -1.582031 0.710938 -1.835938 0.957031 -1.835938 Z M 0.957031 -1.835938 "/></g></g></g><g fill="#d2492a" fill-opacity="1"><g transform="translate(66.394543, 55.663925)"><g><path d="M 0.957031 0.046875 C 1.59375 0.046875 1.921875 -0.523438 1.921875 -1.171875 C 1.921875 -1.839844 1.59375 -2.402344 0.957031 -2.402344 C 0.320312 -2.402344 0 -1.839844 0 -1.171875 C 0 -0.523438 0.320312 0.046875 0.957031 0.046875 Z M 0.957031 -1.835938 C 1.210938 -1.835938 1.332031 -1.582031 1.332031 -1.171875 C 1.332031 -0.804688 1.210938 -0.511719 0.957031 -0.511719 C 0.710938 -0.511719 0.585938 -0.804688 0.585938 -1.171875 C 0.585938 -1.582031 0.710938 -1.835938 0.957031 -1.835938 Z M 0.957031 -1.835938 "/></g></g></g><g fill="#d2492a" fill-opacity="1"><g transform="translate(68.552622, 55.663925)"><g><path d="M 0.683594 -2.390625 L -0.0703125 -1.566406 L 0.320312 -1.179688 L 0.515625 -1.371094 L 0.515625 0 L 1.070312 0 L 1.070312 -2.390625 Z M 0.683594 -2.390625 "/></g></g></g><g fill="#d2492a" fill-opacity="1"><g transform="translate(69.889545, 55.663925)"><g><path d="M 0.683594 -2.390625 L -0.0703125 -1.566406 L 0.320312 -1.179688 L 0.515625 -1.371094 L 0.515625 0 L 1.070312 0 L 1.070312 -2.390625 Z M 0.683594 -2.390625 "/></g></g></g></svg>