<svg xmlns="http://www.w3.org/2000/svg" xmlns:xlink="http://www.w3.org/1999/xlink" width="385" zoomAndPan="magnify" viewBox="0 0 288.75 51.749998" height="69" preserveAspectRatio="xMidYMid meet" version="1.0"><defs><g/><clipPath id="91cbb8f742"><path d="M 72.609375 40.203125 L 83.898438 40.203125 L 83.898438 51.492188 L 72.609375 51.492188 Z M 72.609375 40.203125 " clip-rule="nonzero"/></clipPath><clipPath id="8a7585bcb3"><path d="M 78.253906 40.203125 C 75.136719 40.203125 72.609375 42.730469 72.609375 45.847656 C 72.609375 48.964844 75.136719 51.492188 78.253906 51.492188 C 81.371094 51.492188 83.898438 48.964844 83.898438 45.847656 C 83.898438 42.730469 81.371094 40.203125 78.253906 40.203125 Z M 78.253906 40.203125 " clip-rule="nonzero"/></clipPath><clipPath id="57504639fa"><path d="M 96.839844 40.203125 L 108.128906 40.203125 L 108.128906 51.492188 L 96.839844 51.492188 Z M 96.839844 40.203125 " clip-rule="nonzero"/></clipPath><clipPath id="4b710d4a9b"><path d="M 102.484375 40.203125 C 99.367188 40.203125 96.839844 42.730469 96.839844 45.847656 C 96.839844 48.964844 99.367188 51.492188 102.484375 51.492188 C 105.601562 51.492188 108.128906 48.964844 108.128906 45.847656 C 108.128906 42.730469 105.601562 40.203125 102.484375 40.203125 Z M 102.484375 40.203125 " clip-rule="nonzero"/></clipPath><clipPath id="41a8701ffd"><path d="M 99 6 L 124 6 L 124 51.5 L 99 51.5 Z M 99 6 " clip-rule="nonzero"/></clipPath><clipPath id="bdfb2c5320"><path d="M 56 6 L 81 6 L 81 51.5 L 56 51.5 Z M 56 6 " clip-rule="nonzero"/></clipPath><clipPath id="d1cb006985"><path d="M 68.074219 0 L 88.460938 0 L 88.460938 13.046875 L 68.074219 13.046875 Z M 68.074219 0 " clip-rule="nonzero"/></clipPath><clipPath id="c55b7c92a4"><path d="M 91.722656 6.96875 L 112.109375 6.96875 L 112.109375 12.890625 L 91.722656 12.890625 Z M 91.722656 6.96875 " clip-rule="nonzero"/></clipPath></defs><g fill="#263f6a" fill-opacity="1"><g transform="translate(119.266341, 37.466791)"><g><path d="M 21.496094 0 L 24.480469 -2.984375 L 24.480469 -17.914062 L 21.496094 -20.898438 L 4.476562 -20.898438 L 1.492188 -17.914062 L 1.492188 -2.984375 L 4.476562 0 Z M 18.511719 -5.972656 L 7.464844 -5.972656 L 7.464844 -14.929688 L 18.511719 -14.929688 Z M 5.492188 -2.386719 L 3.882812 -4.03125 L 3.882812 -16.898438 L 5.492188 -18.511719 L 20.480469 -18.511719 L 22.09375 -16.929688 L 22.09375 -4 L 20.480469 -2.386719 Z M 20.898438 -17.316406 L 5.074219 -17.316406 L 5.074219 -3.582031 L 20.898438 -3.582031 Z M 20.898438 -17.316406 "/></g></g></g><g fill="#263f6a" fill-opacity="1"><g transform="translate(145.240838, 37.466791)"><g><path d="M 23.882812 0 L 19.40625 -4.476562 L 22.390625 -7.464844 L 22.390625 -17.914062 L 19.40625 -20.898438 L 0.148438 -20.898438 L 0.148438 -14.929688 L 16.421875 -14.929688 L 16.421875 -10.449219 L 8.359375 -10.449219 L 8.359375 -13.433594 L 2.386719 -13.433594 L 2.386719 0 L 8.359375 0 L 8.359375 -4.476562 L 12.152344 -4.476562 L 16.628906 0 Z M 18.691406 -2.386719 L 17.078125 -2.386719 L 12.570312 -6.867188 L 5.972656 -6.867188 L 5.972656 -2.386719 L 4.777344 -2.386719 L 4.777344 -11.046875 L 5.972656 -11.046875 L 5.972656 -8.0625 L 18.808594 -8.0625 L 18.808594 -17.316406 L 2.539062 -17.316406 L 2.539062 -18.511719 L 18.390625 -18.511719 L 20.003906 -16.929688 L 20.003906 -8.480469 L 18.390625 -6.867188 L 14.179688 -6.867188 Z M 18.691406 -2.386719 "/></g></g></g><g fill="#263f6a" fill-opacity="1"><g transform="translate(169.423982, 37.466791)"><g><path d="M 22.988281 -5.972656 L 7.464844 -5.972656 L 7.464844 -14.929688 L 17.765625 -14.929688 L 17.765625 -13.433594 L 8.957031 -13.433594 L 8.957031 -7.464844 L 20.75 -7.464844 L 23.734375 -10.449219 L 23.734375 -17.914062 L 20.75 -20.898438 L 4.476562 -20.898438 L 1.492188 -17.914062 L 1.492188 -2.984375 L 4.476562 0 L 22.988281 0 Z M 20.601562 -2.386719 L 5.492188 -2.386719 L 3.882812 -4.03125 L 3.882812 -16.898438 L 5.492188 -18.511719 L 19.734375 -18.511719 L 21.347656 -16.929688 L 21.347656 -11.464844 L 19.734375 -9.851562 L 11.34375 -9.851562 L 11.34375 -11.046875 L 20.152344 -11.046875 L 20.152344 -17.316406 L 5.074219 -17.316406 L 5.074219 -3.582031 L 20.601562 -3.582031 Z M 20.601562 -2.386719 "/></g></g></g><g fill="#263f6a" fill-opacity="1"><g transform="translate(194.652085, 37.466791)"><g><path d="M 19.554688 0 L 22.542969 -2.984375 L 22.542969 -10.449219 L 19.554688 -13.433594 L 7.464844 -13.433594 L 7.464844 -14.929688 L 22.542969 -14.929688 L 22.542969 -20.898438 L 4.476562 -20.898438 L 1.492188 -17.914062 L 1.492188 -10.449219 L 4.476562 -7.464844 L 16.570312 -7.464844 L 16.570312 -5.972656 L 1.492188 -5.972656 L 1.492188 0 Z M 3.882812 -2.386719 L 3.882812 -3.582031 L 18.957031 -3.582031 L 18.957031 -9.851562 L 5.492188 -9.851562 L 3.882812 -11.496094 L 3.882812 -16.898438 L 5.492188 -18.511719 L 20.152344 -18.511719 L 20.152344 -17.316406 L 5.074219 -17.316406 L 5.074219 -11.046875 L 18.539062 -11.046875 L 20.152344 -9.464844 L 20.152344 -4 L 18.539062 -2.386719 Z M 3.882812 -2.386719 "/></g></g></g><g fill="#263f6a" fill-opacity="1"><g transform="translate(218.685952, 37.466791)"><g><path d="M 22.988281 -5.972656 L 7.464844 -5.972656 L 7.464844 -14.929688 L 17.765625 -14.929688 L 17.765625 -13.433594 L 8.957031 -13.433594 L 8.957031 -7.464844 L 20.75 -7.464844 L 23.734375 -10.449219 L 23.734375 -17.914062 L 20.75 -20.898438 L 4.476562 -20.898438 L 1.492188 -17.914062 L 1.492188 -2.984375 L 4.476562 0 L 22.988281 0 Z M 20.601562 -2.386719 L 5.492188 -2.386719 L 3.882812 -4.03125 L 3.882812 -16.898438 L 5.492188 -18.511719 L 19.734375 -18.511719 L 21.347656 -16.929688 L 21.347656 -11.464844 L 19.734375 -9.851562 L 11.34375 -9.851562 L 11.34375 -11.046875 L 20.152344 -11.046875 L 20.152344 -17.316406 L 5.074219 -17.316406 L 5.074219 -3.582031 L 20.601562 -3.582031 Z M 20.601562 -2.386719 "/></g></g></g><g fill="#263f6a" fill-opacity="1"><g transform="translate(243.914055, 37.466791)"><g><path d="M 22.988281 0 L 22.988281 -5.972656 L 7.464844 -5.972656 L 7.464844 -14.929688 L 17.765625 -14.929688 L 17.765625 -11.941406 L 23.734375 -11.941406 L 23.734375 -17.914062 L 20.75 -20.898438 L 4.476562 -20.898438 L 1.492188 -17.914062 L 1.492188 -2.984375 L 4.476562 0 Z M 5.492188 -2.386719 L 3.882812 -4.03125 L 3.882812 -16.898438 L 5.492188 -18.511719 L 19.734375 -18.511719 L 21.347656 -16.929688 L 21.347656 -14.332031 L 20.152344 -14.332031 L 20.152344 -17.316406 L 5.074219 -17.316406 L 5.074219 -3.582031 L 20.601562 -3.582031 L 20.601562 -2.386719 Z M 5.492188 -2.386719 "/></g></g></g><g fill="#d2492a" fill-opacity="1"><g transform="translate(117.999663, 36.200118)"><g><path d="M 21.496094 0 L 24.480469 -2.984375 L 24.480469 -17.914062 L 21.496094 -20.898438 L 4.476562 -20.898438 L 1.492188 -17.914062 L 1.492188 -2.984375 L 4.476562 0 Z M 18.511719 -5.972656 L 7.464844 -5.972656 L 7.464844 -14.929688 L 18.511719 -14.929688 Z M 5.492188 -2.386719 L 3.882812 -4.03125 L 3.882812 -16.898438 L 5.492188 -18.511719 L 20.480469 -18.511719 L 22.09375 -16.929688 L 22.09375 -4 L 20.480469 -2.386719 Z M 20.898438 -17.316406 L 5.074219 -17.316406 L 5.074219 -3.582031 L 20.898438 -3.582031 Z M 20.898438 -17.316406 "/></g></g></g><g fill="#d2492a" fill-opacity="1"><g transform="translate(143.974161, 36.200118)"><g><path d="M 23.882812 0 L 19.40625 -4.476562 L 22.390625 -7.464844 L 22.390625 -17.914062 L 19.40625 -20.898438 L 0.148438 -20.898438 L 0.148438 -14.929688 L 16.421875 -14.929688 L 16.421875 -10.449219 L 8.359375 -10.449219 L 8.359375 -13.433594 L 2.386719 -13.433594 L 2.386719 0 L 8.359375 0 L 8.359375 -4.476562 L 12.152344 -4.476562 L 16.628906 0 Z M 18.691406 -2.386719 L 17.078125 -2.386719 L 12.570312 -6.867188 L 5.972656 -6.867188 L 5.972656 -2.386719 L 4.777344 -2.386719 L 4.777344 -11.046875 L 5.972656 -11.046875 L 5.972656 -8.0625 L 18.808594 -8.0625 L 18.808594 -17.316406 L 2.539062 -17.316406 L 2.539062 -18.511719 L 18.390625 -18.511719 L 20.003906 -16.929688 L 20.003906 -8.480469 L 18.390625 -6.867188 L 14.179688 -6.867188 Z M 18.691406 -2.386719 "/></g></g></g><g fill="#d2492a" fill-opacity="1"><g transform="translate(168.157304, 36.200118)"><g><path d="M 22.988281 -5.972656 L 7.464844 -5.972656 L 7.464844 -14.929688 L 17.765625 -14.929688 L 17.765625 -13.433594 L 8.957031 -13.433594 L 8.957031 -7.464844 L 20.75 -7.464844 L 23.734375 -10.449219 L 23.734375 -17.914062 L 20.75 -20.898438 L 4.476562 -20.898438 L 1.492188 -17.914062 L 1.492188 -2.984375 L 4.476562 0 L 22.988281 0 Z M 20.601562 -2.386719 L 5.492188 -2.386719 L 3.882812 -4.03125 L 3.882812 -16.898438 L 5.492188 -18.511719 L 19.734375 -18.511719 L 21.347656 -16.929688 L 21.347656 -11.464844 L 19.734375 -9.851562 L 11.34375 -9.851562 L 11.34375 -11.046875 L 20.152344 -11.046875 L 20.152344 -17.316406 L 5.074219 -17.316406 L 5.074219 -3.582031 L 20.601562 -3.582031 Z M 20.601562 -2.386719 "/></g></g></g><g fill="#d2492a" fill-opacity="1"><g transform="translate(193.385407, 36.200118)"><g><path d="M 19.554688 0 L 22.542969 -2.984375 L 22.542969 -10.449219 L 19.554688 -13.433594 L 7.464844 -13.433594 L 7.464844 -14.929688 L 22.542969 -14.929688 L 22.542969 -20.898438 L 4.476562 -20.898438 L 1.492188 -17.914062 L 1.492188 -10.449219 L 4.476562 -7.464844 L 16.570312 -7.464844 L 16.570312 -5.972656 L 1.492188 -5.972656 L 1.492188 0 Z M 3.882812 -2.386719 L 3.882812 -3.582031 L 18.957031 -3.582031 L 18.957031 -9.851562 L 5.492188 -9.851562 L 3.882812 -11.496094 L 3.882812 -16.898438 L 5.492188 -18.511719 L 20.152344 -18.511719 L 20.152344 -17.316406 L 5.074219 -17.316406 L 5.074219 -11.046875 L 18.539062 -11.046875 L 20.152344 -9.464844 L 20.152344 -4 L 18.539062 -2.386719 Z M 3.882812 -2.386719 "/></g></g></g><g fill="#d2492a" fill-opacity="1"><g transform="translate(217.419275, 36.200118)"><g><path d="M 22.988281 -5.972656 L 7.464844 -5.972656 L 7.464844 -14.929688 L 17.765625 -14.929688 L 17.765625 -13.433594 L 8.957031 -13.433594 L 8.957031 -7.464844 L 20.75 -7.464844 L 23.734375 -10.449219 L 23.734375 -17.914062 L 20.75 -20.898438 L 4.476562 -20.898438 L 1.492188 -17.914062 L 1.492188 -2.984375 L 4.476562 0 L 22.988281 0 Z M 20.601562 -2.386719 L 5.492188 -2.386719 L 3.882812 -4.03125 L 3.882812 -16.898438 L 5.492188 -18.511719 L 19.734375 -18.511719 L 21.347656 -16.929688 L 21.347656 -11.464844 L 19.734375 -9.851562 L 11.34375 -9.851562 L 11.34375 -11.046875 L 20.152344 -11.046875 L 20.152344 -17.316406 L 5.074219 -17.316406 L 5.074219 -3.582031 L 20.601562 -3.582031 Z M 20.601562 -2.386719 "/></g></g></g><g fill="#d2492a" fill-opacity="1"><g transform="translate(242.647378, 36.200118)"><g><path d="M 22.988281 0 L 22.988281 -5.972656 L 7.464844 -5.972656 L 7.464844 -14.929688 L 17.765625 -14.929688 L 17.765625 -11.941406 L 23.734375 -11.941406 L 23.734375 -17.914062 L 20.75 -20.898438 L 4.476562 -20.898438 L 1.492188 -17.914062 L 1.492188 -2.984375 L 4.476562 0 Z M 5.492188 -2.386719 L 3.882812 -4.03125 L 3.882812 -16.898438 L 5.492188 -18.511719 L 19.734375 -18.511719 L 21.347656 -16.929688 L 21.347656 -14.332031 L 20.152344 -14.332031 L 20.152344 -17.316406 L 5.074219 -17.316406 L 5.074219 -3.582031 L 20.601562 -3.582031 L 20.601562 -2.386719 Z M 5.492188 -2.386719 "/></g></g></g><g clip-path="url(#91cbb8f742)"><g clip-path="url(#8a7585bcb3)"><path stroke-linecap="butt" transform="matrix(0.815417, 0, 0, 0.815417, 72.609859, 40.204614)" fill="none" stroke-linejoin="miter" d="M 6.921667 -0.0018265 C 3.098854 -0.0018265 -0.000594021 3.097622 -0.000594021 6.920435 C -0.000594021 10.743248 3.098854 13.842696 6.921667 13.842696 C 10.74448 13.842696 13.843929 10.743248 13.843929 6.920435 C 13.843929 3.097622 10.74448 -0.0018265 6.921667 -0.0018265 Z M 6.921667 -0.0018265 " stroke="#263f6a" stroke-width="3.66141" stroke-opacity="1" stroke-miterlimit="4"/></g></g><g clip-path="url(#57504639fa)"><g clip-path="url(#4b710d4a9b)"><path stroke-linecap="butt" transform="matrix(0.815417, 0, 0, 0.815417, 96.841211, 40.204614)" fill="none" stroke-linejoin="miter" d="M 6.920585 -0.0018265 C 3.097772 -0.0018265 -0.00167649 3.097622 -0.00167649 6.920435 C -0.00167649 10.743248 3.097772 13.842696 6.920585 13.842696 C 10.743398 13.842696 13.842846 10.743248 13.842846 6.920435 C 13.842846 3.097622 10.743398 -0.0018265 6.920585 -0.0018265 Z M 6.920585 -0.0018265 " stroke="#263f6a" stroke-width="3.66141" stroke-opacity="1" stroke-miterlimit="4"/></g></g><g clip-path="url(#41a8701ffd)"><path stroke-linecap="butt" transform="matrix(0.815417, 0, 0, 0.815417, 109.111575, 15.473475)" fill="none" stroke-linejoin="miter" d="M 0.00209225 37.254657 L 3.278789 37.254657 C 4.145868 37.254657 4.979414 36.909741 5.597388 36.296558 C 6.210571 35.683375 6.555486 34.845039 6.555486 33.97796 L 6.555486 -0.00100381 " stroke="#263f6a" stroke-width="2" stroke-opacity="1" stroke-miterlimit="4"/></g><path stroke-linecap="butt" transform="matrix(0.815417, 0, 0, 0.815417, 65.462735, 26.198417)" fill="none" stroke-linejoin="miter" d="M -0.00220446 1.002196 L 4.088876 1.002196 C 5.497281 1.002196 6.637418 2.142333 6.637418 3.550738 C 6.637418 4.959142 7.782346 6.10407 9.190751 6.10407 L 13.248298 6.10407 " stroke="#d2492a" stroke-width="2" stroke-opacity="1" stroke-miterlimit="4"/><path stroke-linecap="round" transform="matrix(0.815417, 0, 0, 0.815417, 65.462735, 26.198417)" fill="none" stroke-linejoin="round" d="M 19.748996 6.10407 C 19.748996 7.761581 18.402868 9.102918 16.745357 9.102918 C 15.092637 9.102918 13.746509 7.761581 13.746509 6.10407 C 13.746509 4.44656 15.092637 3.105222 16.745357 3.105222 C 18.402868 3.105222 19.748996 4.44656 19.748996 6.10407 " stroke="#d2492a" stroke-width="2" stroke-opacity="1" stroke-miterlimit="4"/><path stroke-linecap="butt" transform="matrix(0.815417, 0, 0, 0.815417, 65.363122, 32.751376)" fill="none" stroke-linejoin="miter" d="M 0.000195443 4.439099 L 22.568206 4.439099 C 23.516723 4.439099 24.287993 3.66783 24.287993 2.719313 C 24.287993 1.770795 25.059262 0.999526 26.007779 0.999526 L 46.1518 0.999526 " stroke="#d2492a" stroke-width="2" stroke-opacity="1" stroke-miterlimit="4"/><path stroke-linecap="round" transform="matrix(0.815417, 0, 0, 0.815417, 65.363122, 32.751376)" fill="none" stroke-linejoin="round" d="M 52.652499 0.999526 C 52.652499 2.657036 51.30637 3.998374 49.65365 3.998374 C 47.99614 3.998374 46.650012 2.657036 46.650012 0.999526 C 46.650012 -0.657985 47.99614 -1.999323 49.65365 -1.999323 C 51.30637 -1.999323 52.652499 -0.657985 52.652499 0.999526 " stroke="#d2492a" stroke-width="2" stroke-opacity="1" stroke-miterlimit="4"/><path stroke-linecap="butt" transform="matrix(0.439498, -0.686838, 0.686838, 0.439498, 97.245322, 33.453828)" fill="none" stroke-linejoin="miter" d="M -0.000297591 1.002278 L 8.028821 1.000187 " stroke="#d2492a" stroke-width="2" stroke-opacity="1" stroke-miterlimit="4"/><path stroke-linecap="round" transform="matrix(0.439498, -0.686838, 0.686838, 0.439498, 97.245322, 33.453828)" fill="none" stroke-linejoin="round" d="M 14.528391 0.998618 C 14.52519 2.655668 13.183074 3.997888 11.528606 3.998721 C 9.870103 4.002137 8.525301 2.655987 8.528502 0.998937 C 8.527668 -0.655532 9.869784 -1.997752 11.528287 -2.001167 C 13.182755 -2.002001 14.527557 -0.655851 14.528391 0.998618 " stroke="#d2492a" stroke-width="2" stroke-opacity="1" stroke-miterlimit="4"/><path stroke-linecap="butt" transform="matrix(0.815417, 0, 0, 0.815417, 87.237341, 25.504859)" fill="none" stroke-linejoin="miter" d="M 7.498273 1.000044 L 8.959374 1.000044 C 9.347404 1.000044 9.721062 1.15334 9.99412 1.426398 C 10.267178 1.699456 10.420474 2.073114 10.420474 2.461144 L 10.420474 3.232414 C 10.420474 3.826435 10.655208 4.391713 11.076771 4.813276 C 11.493544 5.230049 12.063613 5.464783 12.652843 5.464783 L 16.418171 5.464783 " stroke="#d2492a" stroke-width="2" stroke-opacity="1" stroke-miterlimit="4"/><path stroke-linecap="round" transform="matrix(0.815417, 0, 0, 0.815417, 87.237341, 25.504859)" fill="none" stroke-linejoin="round" d="M 1.002366 1.000044 C 1.002366 -0.657466 2.343703 -1.998804 4.001214 -1.998804 C 5.658724 -1.998804 7.000062 -0.657466 7.000062 1.000044 C 7.000062 2.657554 5.658724 3.998892 4.001214 3.998892 C 2.343703 3.998892 1.002366 2.657554 1.002366 1.000044 " stroke="#d2492a" stroke-width="2" stroke-opacity="1" stroke-miterlimit="4"/><path stroke-linecap="butt" transform="matrix(0.815417, 0, 0, 0.815417, 65.363122, 18.592604)" fill="none" stroke-linejoin="miter" d="M 0.000195443 0.997828 L 33.658196 0.997828 " stroke="#d2492a" stroke-width="2" stroke-opacity="1" stroke-miterlimit="4"/><path stroke-linecap="round" transform="matrix(0.815417, 0, 0, 0.815417, 65.363122, 18.592604)" fill="none" stroke-linejoin="round" d="M 40.158894 0.997828 C 40.158894 2.655338 38.812766 4.001466 37.155255 4.001466 C 35.502536 4.001466 34.156407 2.655338 34.156407 0.997828 C 34.156407 -0.654892 35.502536 -2.001021 37.155255 -2.001021 C 38.812766 -2.001021 40.158894 -0.654892 40.158894 0.997828 " stroke="#d2492a" stroke-width="2" stroke-opacity="1" stroke-miterlimit="4"/><path stroke-linecap="butt" transform="matrix(0.815417, 0, 0, 0.815417, 74.461244, 19.408022)" fill="none" stroke-linejoin="miter" d="M 1.000837 -0.00217261 L 1.000837 5.602704 C 1.000837 6.359601 1.302638 7.087756 1.839173 7.624291 C 2.375708 8.160827 3.103863 8.462628 3.865551 8.462628 L 6.725475 8.462628 " stroke="#d2492a" stroke-width="2" stroke-opacity="1" stroke-miterlimit="4"/><path stroke-linecap="round" transform="matrix(0.815417, 0, 0, 0.815417, 74.461244, 19.408022)" fill="none" stroke-linejoin="round" d="M 13.226174 8.462628 C 13.226174 10.120138 11.884836 11.466266 10.227325 11.466266 C 8.569815 11.466266 7.228477 10.120138 7.228477 8.462628 C 7.228477 6.805117 8.569815 5.463779 10.227325 5.463779 C 11.884836 5.463779 13.226174 6.805117 13.226174 8.462628 " stroke="#d2492a" stroke-width="2" stroke-opacity="1" stroke-miterlimit="4"/><g clip-path="url(#bdfb2c5320)"><path stroke-linecap="butt" transform="matrix(0.815417, 0, 0, 0.815417, 65.241258, 15.473475)" fill="none" stroke-linejoin="miter" d="M 1.002353 -0.00100381 L 1.002353 33.853407 C 1.002353 35.73607 2.520939 37.254657 4.398812 37.254657 L 7.800062 37.254657 " stroke="#263f6a" stroke-width="2" stroke-opacity="1" stroke-miterlimit="4"/></g><path stroke-linecap="butt" transform="matrix(0.815417, 0, 0, 0.815417, 84.913505, 45.037487)" fill="none" stroke-linejoin="miter" d="M 0.000684188 0.998355 L 13.351787 0.998355 " stroke="#263f6a" stroke-width="2" stroke-opacity="1" stroke-miterlimit="4"/><path stroke-linecap="round" transform="matrix(0.815417, 0, 0, 0.815417, 62.515047, 13.9645)" fill="none" stroke-linejoin="miter" d="M 1.001922 1.001634 L 67.043652 1.001634 " stroke="#263f6a" stroke-width="2" stroke-opacity="1" stroke-miterlimit="4"/><path stroke-linecap="round" transform="matrix(0.815417, 0, 0, 0.815417, 62.515047, 13.270943)" fill="none" stroke-linejoin="miter" d="M 1.001922 0.999481 L 67.043652 0.999481 " stroke="#263f6a" stroke-width="2" stroke-opacity="1" stroke-miterlimit="4"/><g clip-path="url(#d1cb006985)"><path fill="#263f6a" d="M 88.410156 -2.253906 L 88.410156 -5.789062 C 88.410156 -5.964844 88.375 -6.136719 88.308594 -6.296875 C 88.242188 -6.460938 88.144531 -6.601562 88.019531 -6.726562 C 87.894531 -6.851562 87.753906 -6.949219 87.589844 -7.015625 C 87.429688 -7.082031 87.257812 -7.117188 87.082031 -7.117188 L 69.402344 -7.117188 C 69.226562 -7.117188 69.054688 -7.082031 68.894531 -7.015625 C 68.730469 -6.949219 68.589844 -6.851562 68.464844 -6.726562 C 68.339844 -6.601562 68.242188 -6.460938 68.175781 -6.296875 C 68.109375 -6.136719 68.074219 -5.964844 68.074219 -5.789062 L 68.074219 -2.253906 C 68.074219 -2.078125 68.109375 -1.910156 68.175781 -1.746094 C 68.242188 -1.585938 68.339844 -1.441406 68.464844 -1.316406 C 68.589844 -1.191406 68.730469 -1.097656 68.894531 -1.027344 C 69.054688 -0.960938 69.226562 -0.929688 69.402344 -0.929688 L 69.402344 -0.0429688 C 69.226562 -0.0429688 69.054688 -0.0078125 68.894531 0.0585938 C 68.730469 0.125 68.589844 0.222656 68.464844 0.34375 C 68.339844 0.46875 68.242188 0.613281 68.175781 0.773438 C 68.109375 0.9375 68.074219 1.105469 68.074219 1.28125 L 68.074219 4.820312 C 68.074219 4.996094 68.109375 5.164062 68.175781 5.324219 C 68.242188 5.488281 68.339844 5.632812 68.464844 5.757812 C 68.589844 5.878906 68.730469 5.976562 68.894531 6.042969 C 69.054688 6.109375 69.226562 6.144531 69.402344 6.144531 L 69.402344 7.027344 C 69.226562 7.03125 69.054688 7.0625 68.894531 7.128906 C 68.730469 7.199219 68.589844 7.292969 68.464844 7.417969 C 68.339844 7.542969 68.242188 7.6875 68.175781 7.847656 C 68.109375 8.011719 68.074219 8.179688 68.074219 8.355469 L 68.074219 11.890625 C 68.074219 12.066406 68.109375 12.238281 68.175781 12.398438 C 68.242188 12.5625 68.339844 12.703125 68.464844 12.828125 C 68.589844 12.953125 68.730469 13.050781 68.894531 13.117188 C 69.054688 13.183594 69.226562 13.21875 69.402344 13.21875 L 87.082031 13.21875 C 87.257812 13.21875 87.429688 13.183594 87.589844 13.117188 C 87.753906 13.050781 87.894531 12.953125 88.019531 12.828125 C 88.144531 12.703125 88.242188 12.5625 88.308594 12.398438 C 88.375 12.238281 88.410156 12.066406 88.410156 11.890625 L 88.410156 8.355469 C 88.410156 8.179688 88.375 8.011719 88.308594 7.847656 C 88.242188 7.6875 88.144531 7.542969 88.019531 7.417969 C 87.894531 7.292969 87.753906 7.199219 87.589844 7.128906 C 87.429688 7.0625 87.257812 7.03125 87.082031 7.027344 L 87.082031 6.144531 C 87.257812 6.144531 87.429688 6.109375 87.589844 6.042969 C 87.753906 5.976562 87.894531 5.878906 88.019531 5.757812 C 88.144531 5.632812 88.242188 5.488281 88.308594 5.324219 C 88.375 5.164062 88.410156 4.996094 88.410156 4.820312 L 88.410156 1.28125 C 88.410156 1.105469 88.375 0.9375 88.308594 0.773438 C 88.242188 0.613281 88.144531 0.46875 88.019531 0.34375 C 87.894531 0.222656 87.753906 0.125 87.589844 0.0585938 C 87.429688 -0.0078125 87.257812 -0.0429688 87.082031 -0.0429688 L 87.082031 -0.929688 C 87.257812 -0.929688 87.429688 -0.960938 87.589844 -1.027344 C 87.753906 -1.097656 87.894531 -1.191406 88.019531 -1.316406 C 88.144531 -1.441406 88.242188 -1.585938 88.308594 -1.746094 C 88.375 -1.910156 88.410156 -2.078125 88.410156 -2.253906 Z M 68.960938 -2.253906 L 68.960938 -5.789062 C 68.960938 -5.914062 69.003906 -6.015625 69.089844 -6.101562 C 69.175781 -6.1875 69.277344 -6.230469 69.402344 -6.234375 L 87.082031 -6.234375 C 87.207031 -6.230469 87.308594 -6.1875 87.394531 -6.101562 C 87.480469 -6.015625 87.523438 -5.914062 87.527344 -5.789062 L 87.527344 -2.253906 C 87.523438 -2.132812 87.480469 -2.027344 87.394531 -1.941406 C 87.308594 -1.855469 87.207031 -1.8125 87.082031 -1.8125 L 69.402344 -1.8125 C 69.277344 -1.8125 69.175781 -1.855469 69.089844 -1.941406 C 69.003906 -2.027344 68.960938 -2.132812 68.960938 -2.253906 Z M 87.527344 8.355469 L 87.527344 11.890625 C 87.523438 12.015625 87.480469 12.117188 87.394531 12.203125 C 87.308594 12.289062 87.207031 12.332031 87.082031 12.332031 L 69.402344 12.332031 C 69.277344 12.332031 69.175781 12.289062 69.089844 12.203125 C 69.003906 12.117188 68.960938 12.015625 68.960938 11.890625 L 68.960938 8.355469 C 68.960938 8.234375 69.003906 8.128906 69.089844 8.042969 C 69.175781 7.957031 69.277344 7.914062 69.402344 7.914062 L 87.082031 7.914062 C 87.207031 7.914062 87.308594 7.957031 87.394531 8.042969 C 87.480469 8.128906 87.523438 8.234375 87.527344 8.355469 Z M 86.199219 7.027344 L 70.285156 7.027344 L 70.285156 6.144531 L 86.199219 6.144531 Z M 87.527344 1.28125 L 87.527344 4.820312 C 87.523438 4.941406 87.480469 5.046875 87.394531 5.132812 C 87.308594 5.21875 87.207031 5.261719 87.082031 5.261719 L 69.402344 5.261719 C 69.277344 5.261719 69.175781 5.21875 69.089844 5.132812 C 69.003906 5.046875 68.960938 4.941406 68.960938 4.820312 L 68.960938 1.28125 C 68.960938 1.160156 69.003906 1.054688 69.089844 0.96875 C 69.175781 0.882812 69.277344 0.839844 69.402344 0.839844 L 87.082031 0.839844 C 87.207031 0.839844 87.308594 0.882812 87.394531 0.96875 C 87.480469 1.054688 87.523438 1.160156 87.527344 1.28125 Z M 86.199219 -0.0429688 L 70.285156 -0.0429688 L 70.285156 -0.929688 L 86.199219 -0.929688 Z M 86.199219 -0.0429688 " fill-opacity="1" fill-rule="nonzero"/></g><path fill="#263f6a" d="M 71.167969 1.722656 C 70.992188 1.722656 70.824219 1.757812 70.660156 1.824219 C 70.5 1.894531 70.355469 1.988281 70.230469 2.113281 C 70.105469 2.238281 70.011719 2.378906 69.945312 2.542969 C 69.875 2.707031 69.84375 2.875 69.84375 3.050781 C 69.84375 3.226562 69.875 3.394531 69.945312 3.558594 C 70.011719 3.71875 70.105469 3.863281 70.230469 3.988281 C 70.355469 4.113281 70.5 4.207031 70.660156 4.277344 C 70.824219 4.34375 70.992188 4.375 71.167969 4.375 C 71.34375 4.375 71.515625 4.34375 71.675781 4.277344 C 71.839844 4.207031 71.984375 4.113281 72.105469 3.988281 C 72.230469 3.863281 72.328125 3.71875 72.394531 3.558594 C 72.460938 3.394531 72.496094 3.226562 72.496094 3.050781 C 72.496094 2.875 72.460938 2.707031 72.394531 2.542969 C 72.328125 2.382812 72.230469 2.238281 72.105469 2.113281 C 71.984375 1.988281 71.839844 1.894531 71.675781 1.824219 C 71.515625 1.757812 71.34375 1.726562 71.167969 1.722656 Z M 71.167969 3.492188 C 71.046875 3.492188 70.941406 3.449219 70.855469 3.363281 C 70.769531 3.277344 70.726562 3.171875 70.726562 3.050781 C 70.726562 2.929688 70.769531 2.824219 70.855469 2.738281 C 70.941406 2.652344 71.046875 2.609375 71.167969 2.609375 C 71.292969 2.609375 71.394531 2.652344 71.480469 2.738281 C 71.566406 2.824219 71.613281 2.929688 71.613281 3.050781 C 71.613281 3.171875 71.566406 3.277344 71.480469 3.363281 C 71.394531 3.449219 71.292969 3.492188 71.167969 3.492188 Z M 71.167969 3.492188 " fill-opacity="1" fill-rule="nonzero"/><path fill="#263f6a" d="M 75.148438 1.722656 C 74.972656 1.722656 74.804688 1.757812 74.640625 1.824219 C 74.476562 1.894531 74.335938 1.988281 74.210938 2.113281 C 74.085938 2.238281 73.988281 2.378906 73.921875 2.542969 C 73.855469 2.707031 73.820312 2.875 73.820312 3.050781 C 73.820312 3.226562 73.855469 3.394531 73.921875 3.558594 C 73.988281 3.71875 74.085938 3.863281 74.210938 3.988281 C 74.335938 4.113281 74.476562 4.207031 74.640625 4.277344 C 74.804688 4.34375 74.972656 4.375 75.148438 4.375 C 75.324219 4.375 75.492188 4.34375 75.65625 4.277344 C 75.816406 4.207031 75.960938 4.113281 76.085938 3.988281 C 76.210938 3.863281 76.304688 3.71875 76.375 3.558594 C 76.441406 3.394531 76.472656 3.226562 76.472656 3.050781 C 76.472656 2.875 76.441406 2.707031 76.371094 2.542969 C 76.304688 2.382812 76.210938 2.238281 76.085938 2.113281 C 75.960938 1.988281 75.816406 1.894531 75.65625 1.824219 C 75.492188 1.757812 75.324219 1.726562 75.148438 1.722656 Z M 75.148438 3.492188 C 75.027344 3.492188 74.921875 3.449219 74.835938 3.363281 C 74.75 3.277344 74.707031 3.171875 74.707031 3.050781 C 74.707031 2.929688 74.75 2.824219 74.835938 2.738281 C 74.921875 2.652344 75.027344 2.609375 75.148438 2.609375 C 75.269531 2.609375 75.375 2.652344 75.460938 2.738281 C 75.546875 2.824219 75.589844 2.929688 75.589844 3.050781 C 75.589844 3.171875 75.546875 3.277344 75.460938 3.363281 C 75.375 3.449219 75.269531 3.492188 75.148438 3.492188 Z M 75.148438 3.492188 " fill-opacity="1" fill-rule="nonzero"/><path fill="#263f6a" d="M 86.199219 2.609375 L 80.011719 2.609375 C 79.886719 2.609375 79.785156 2.652344 79.699219 2.738281 C 79.613281 2.824219 79.570312 2.929688 79.570312 3.050781 C 79.570312 3.171875 79.613281 3.277344 79.699219 3.363281 C 79.785156 3.449219 79.886719 3.492188 80.011719 3.492188 L 86.199219 3.492188 C 86.320312 3.492188 86.425781 3.449219 86.511719 3.363281 C 86.597656 3.277344 86.640625 3.171875 86.640625 3.050781 C 86.640625 2.929688 86.597656 2.824219 86.511719 2.738281 C 86.425781 2.652344 86.320312 2.609375 86.199219 2.609375 Z M 86.199219 2.609375 " fill-opacity="1" fill-rule="nonzero"/><path fill="#263f6a" d="M 71.167969 8.796875 C 70.992188 8.796875 70.824219 8.832031 70.660156 8.898438 C 70.5 8.964844 70.355469 9.0625 70.230469 9.1875 C 70.105469 9.308594 70.011719 9.453125 69.945312 9.617188 C 69.875 9.777344 69.84375 9.949219 69.84375 10.125 C 69.84375 10.300781 69.875 10.46875 69.945312 10.632812 C 70.011719 10.792969 70.105469 10.9375 70.230469 11.0625 C 70.355469 11.1875 70.5 11.28125 70.660156 11.347656 C 70.824219 11.417969 70.992188 11.449219 71.167969 11.449219 C 71.34375 11.449219 71.515625 11.417969 71.675781 11.347656 C 71.839844 11.28125 71.984375 11.1875 72.105469 11.0625 C 72.230469 10.9375 72.328125 10.792969 72.394531 10.632812 C 72.460938 10.46875 72.496094 10.300781 72.496094 10.125 C 72.496094 9.949219 72.460938 9.777344 72.394531 9.617188 C 72.328125 9.453125 72.230469 9.308594 72.105469 9.1875 C 71.984375 9.0625 71.839844 8.964844 71.675781 8.898438 C 71.515625 8.832031 71.34375 8.796875 71.167969 8.796875 Z M 71.167969 10.566406 C 71.046875 10.566406 70.941406 10.523438 70.855469 10.4375 C 70.769531 10.351562 70.726562 10.246094 70.726562 10.125 C 70.726562 10 70.769531 9.898438 70.855469 9.8125 C 70.941406 9.726562 71.046875 9.679688 71.167969 9.679688 C 71.292969 9.679688 71.394531 9.726562 71.480469 9.8125 C 71.566406 9.898438 71.613281 10 71.613281 10.125 C 71.613281 10.246094 71.566406 10.351562 71.480469 10.4375 C 71.394531 10.523438 71.292969 10.566406 71.167969 10.566406 Z M 71.167969 10.566406 " fill-opacity="1" fill-rule="nonzero"/><path fill="#263f6a" d="M 75.148438 8.796875 C 74.972656 8.796875 74.804688 8.832031 74.640625 8.898438 C 74.476562 8.964844 74.335938 9.0625 74.210938 9.1875 C 74.085938 9.308594 73.988281 9.453125 73.921875 9.617188 C 73.855469 9.777344 73.820312 9.949219 73.820312 10.125 C 73.820312 10.300781 73.855469 10.46875 73.921875 10.632812 C 73.988281 10.792969 74.085938 10.9375 74.210938 11.0625 C 74.335938 11.1875 74.476562 11.28125 74.640625 11.347656 C 74.804688 11.417969 74.972656 11.449219 75.148438 11.449219 C 75.324219 11.449219 75.492188 11.417969 75.65625 11.347656 C 75.816406 11.28125 75.960938 11.1875 76.085938 11.0625 C 76.210938 10.9375 76.304688 10.792969 76.375 10.632812 C 76.441406 10.46875 76.472656 10.300781 76.472656 10.125 C 76.472656 9.949219 76.441406 9.777344 76.371094 9.617188 C 76.304688 9.453125 76.210938 9.308594 76.085938 9.1875 C 75.960938 9.0625 75.816406 8.964844 75.65625 8.898438 C 75.492188 8.832031 75.324219 8.796875 75.148438 8.796875 Z M 75.148438 10.566406 C 75.027344 10.566406 74.921875 10.523438 74.835938 10.4375 C 74.75 10.351562 74.707031 10.246094 74.707031 10.125 C 74.707031 10 74.75 9.898438 74.835938 9.8125 C 74.921875 9.726562 75.027344 9.679688 75.148438 9.679688 C 75.269531 9.679688 75.375 9.726562 75.460938 9.8125 C 75.546875 9.898438 75.589844 10 75.589844 10.125 C 75.589844 10.246094 75.546875 10.351562 75.460938 10.4375 C 75.375 10.523438 75.269531 10.566406 75.148438 10.566406 Z M 75.148438 10.566406 " fill-opacity="1" fill-rule="nonzero"/><path fill="#263f6a" d="M 86.199219 9.679688 L 80.011719 9.679688 C 79.886719 9.679688 79.785156 9.726562 79.699219 9.8125 C 79.613281 9.898438 79.570312 10 79.570312 10.125 C 79.570312 10.246094 79.613281 10.351562 79.699219 10.4375 C 79.785156 10.523438 79.886719 10.566406 80.011719 10.566406 L 86.199219 10.566406 C 86.320312 10.566406 86.425781 10.523438 86.511719 10.4375 C 86.597656 10.351562 86.640625 10.246094 86.640625 10.125 C 86.640625 10 86.597656 9.898438 86.511719 9.8125 C 86.425781 9.726562 86.320312 9.679688 86.199219 9.679688 Z M 86.199219 9.679688 " fill-opacity="1" fill-rule="nonzero"/><g clip-path="url(#c55b7c92a4)"><path fill="#263f6a" d="M 112.425781 -2.546875 L 112.425781 -6.144531 C 112.425781 -6.324219 112.394531 -6.496094 112.324219 -6.664062 C 112.253906 -6.828125 112.15625 -6.972656 112.03125 -7.101562 C 111.90625 -7.226562 111.757812 -7.324219 111.59375 -7.394531 C 111.429688 -7.460938 111.257812 -7.496094 111.078125 -7.496094 L 93.074219 -7.496094 C 92.894531 -7.496094 92.722656 -7.460938 92.558594 -7.394531 C 92.390625 -7.324219 92.246094 -7.226562 92.121094 -7.101562 C 91.992188 -6.972656 91.894531 -6.828125 91.828125 -6.664062 C 91.757812 -6.496094 91.722656 -6.324219 91.722656 -6.144531 L 91.722656 -2.546875 C 91.722656 -2.367188 91.757812 -2.195312 91.828125 -2.027344 C 91.894531 -1.863281 91.992188 -1.71875 92.121094 -1.589844 C 92.246094 -1.464844 92.390625 -1.367188 92.558594 -1.296875 C 92.722656 -1.230469 92.894531 -1.195312 93.074219 -1.195312 L 93.074219 -0.296875 C 92.894531 -0.296875 92.722656 -0.261719 92.558594 -0.191406 C 92.390625 -0.125 92.246094 -0.0273438 92.121094 0.101562 C 91.992188 0.226562 91.894531 0.375 91.828125 0.539062 C 91.757812 0.703125 91.722656 0.875 91.722656 1.054688 L 91.722656 4.65625 C 91.722656 4.835938 91.757812 5.007812 91.828125 5.171875 C 91.894531 5.335938 91.992188 5.484375 92.121094 5.609375 C 92.246094 5.738281 92.390625 5.835938 92.558594 5.902344 C 92.722656 5.972656 92.894531 6.003906 93.074219 6.007812 L 93.074219 6.90625 C 92.894531 6.90625 92.722656 6.941406 92.558594 7.007812 C 92.390625 7.078125 92.246094 7.175781 92.121094 7.300781 C 91.992188 7.429688 91.894531 7.574219 91.828125 7.738281 C 91.757812 7.90625 91.722656 8.078125 91.722656 8.257812 L 91.722656 11.855469 C 91.722656 12.035156 91.757812 12.207031 91.828125 12.375 C 91.894531 12.539062 91.992188 12.683594 92.121094 12.8125 C 92.246094 12.9375 92.390625 13.035156 92.558594 13.105469 C 92.722656 13.171875 92.894531 13.207031 93.074219 13.207031 L 111.078125 13.207031 C 111.257812 13.207031 111.429688 13.171875 111.59375 13.105469 C 111.757812 13.035156 111.90625 12.9375 112.03125 12.8125 C 112.15625 12.683594 112.253906 12.539062 112.324219 12.375 C 112.394531 12.207031 112.425781 12.035156 112.425781 11.855469 L 112.425781 8.257812 C 112.425781 8.078125 112.394531 7.90625 112.324219 7.738281 C 112.253906 7.574219 112.15625 7.429688 112.03125 7.300781 C 111.90625 7.175781 111.757812 7.078125 111.59375 7.007812 C 111.429688 6.941406 111.257812 6.90625 111.078125 6.90625 L 111.078125 6.007812 C 111.257812 6.003906 111.429688 5.972656 111.59375 5.902344 C 111.757812 5.835938 111.90625 5.738281 112.03125 5.609375 C 112.15625 5.484375 112.253906 5.335938 112.324219 5.171875 C 112.394531 5.007812 112.425781 4.835938 112.425781 4.65625 L 112.425781 1.054688 C 112.425781 0.875 112.394531 0.703125 112.324219 0.539062 C 112.253906 0.375 112.15625 0.226562 112.03125 0.101562 C 111.90625 -0.0273438 111.757812 -0.125 111.59375 -0.191406 C 111.429688 -0.261719 111.257812 -0.296875 111.078125 -0.296875 L 111.078125 -1.195312 C 111.257812 -1.195312 111.429688 -1.230469 111.59375 -1.296875 C 111.757812 -1.367188 111.90625 -1.464844 112.03125 -1.589844 C 112.15625 -1.71875 112.253906 -1.863281 112.324219 -2.027344 C 112.394531 -2.195312 112.425781 -2.367188 112.425781 -2.546875 Z M 92.625 -2.546875 L 92.625 -6.144531 C 92.625 -6.269531 92.667969 -6.375 92.753906 -6.464844 C 92.84375 -6.550781 92.949219 -6.597656 93.074219 -6.597656 L 111.078125 -6.597656 C 111.203125 -6.597656 111.308594 -6.550781 111.394531 -6.464844 C 111.484375 -6.375 111.527344 -6.269531 111.527344 -6.144531 L 111.527344 -2.546875 C 111.527344 -2.421875 111.484375 -2.316406 111.394531 -2.226562 C 111.308594 -2.140625 111.203125 -2.097656 111.078125 -2.09375 L 93.074219 -2.09375 C 92.949219 -2.097656 92.84375 -2.140625 92.753906 -2.226562 C 92.667969 -2.316406 92.625 -2.421875 92.625 -2.546875 Z M 111.527344 8.257812 L 111.527344 11.855469 C 111.527344 11.980469 111.484375 12.085938 111.394531 12.175781 C 111.308594 12.261719 111.203125 12.308594 111.078125 12.308594 L 93.074219 12.308594 C 92.949219 12.308594 92.84375 12.261719 92.753906 12.175781 C 92.667969 12.085938 92.625 11.980469 92.625 11.855469 L 92.625 8.257812 C 92.625 8.132812 92.667969 8.027344 92.753906 7.9375 C 92.84375 7.851562 92.949219 7.804688 93.074219 7.804688 L 111.078125 7.804688 C 111.203125 7.804688 111.308594 7.851562 111.394531 7.9375 C 111.484375 8.027344 111.527344 8.132812 111.527344 8.257812 Z M 110.175781 6.90625 L 93.972656 6.90625 L 93.972656 6.007812 L 110.175781 6.007812 Z M 111.527344 1.054688 L 111.527344 4.65625 C 111.527344 4.78125 111.484375 4.886719 111.394531 4.972656 C 111.308594 5.0625 111.203125 5.105469 111.078125 5.105469 L 93.074219 5.105469 C 92.949219 5.105469 92.84375 5.0625 92.753906 4.972656 C 92.667969 4.886719 92.625 4.78125 92.625 4.65625 L 92.625 1.054688 C 92.625 0.929688 92.667969 0.824219 92.753906 0.738281 C 92.84375 0.648438 92.949219 0.605469 93.074219 0.605469 L 111.078125 0.605469 C 111.203125 0.605469 111.308594 0.648438 111.394531 0.738281 C 111.484375 0.824219 111.527344 0.929688 111.527344 1.054688 Z M 110.175781 -0.296875 L 93.972656 -0.296875 L 93.972656 -1.195312 L 110.175781 -1.195312 Z M 110.175781 -0.296875 " fill-opacity="1" fill-rule="nonzero"/></g><path fill="#263f6a" d="M 94.875 8.707031 C 94.695312 8.707031 94.523438 8.742188 94.359375 8.808594 C 94.191406 8.878906 94.046875 8.976562 93.917969 9.101562 C 93.792969 9.226562 93.695312 9.375 93.625 9.539062 C 93.558594 9.707031 93.523438 9.878906 93.523438 10.058594 C 93.523438 10.234375 93.558594 10.40625 93.625 10.574219 C 93.695312 10.738281 93.792969 10.886719 93.917969 11.011719 C 94.046875 11.136719 94.191406 11.234375 94.359375 11.304688 C 94.523438 11.371094 94.695312 11.40625 94.875 11.40625 C 95.054688 11.40625 95.226562 11.371094 95.390625 11.304688 C 95.554688 11.234375 95.703125 11.136719 95.828125 11.011719 C 95.957031 10.886719 96.054688 10.738281 96.121094 10.574219 C 96.191406 10.40625 96.222656 10.234375 96.222656 10.058594 C 96.222656 9.878906 96.191406 9.707031 96.121094 9.539062 C 96.050781 9.375 95.953125 9.230469 95.828125 9.101562 C 95.703125 8.976562 95.554688 8.878906 95.390625 8.808594 C 95.226562 8.742188 95.054688 8.707031 94.875 8.707031 Z M 94.875 10.507812 C 94.75 10.507812 94.644531 10.460938 94.554688 10.375 C 94.46875 10.285156 94.425781 10.179688 94.425781 10.058594 C 94.425781 9.933594 94.46875 9.828125 94.554688 9.738281 C 94.644531 9.652344 94.75 9.605469 94.875 9.605469 C 95 9.605469 95.105469 9.652344 95.191406 9.738281 C 95.28125 9.828125 95.324219 9.933594 95.324219 10.058594 C 95.324219 10.179688 95.28125 10.285156 95.191406 10.375 C 95.105469 10.460938 95 10.507812 94.875 10.507812 Z M 94.875 10.507812 " fill-opacity="1" fill-rule="nonzero"/><path fill="#263f6a" d="M 98.925781 8.707031 C 98.746094 8.707031 98.574219 8.742188 98.410156 8.808594 C 98.242188 8.878906 98.097656 8.976562 97.96875 9.101562 C 97.84375 9.226562 97.746094 9.375 97.675781 9.539062 C 97.609375 9.707031 97.574219 9.878906 97.574219 10.058594 C 97.574219 10.234375 97.609375 10.40625 97.675781 10.574219 C 97.746094 10.738281 97.84375 10.886719 97.96875 11.011719 C 98.097656 11.136719 98.242188 11.234375 98.410156 11.304688 C 98.574219 11.371094 98.746094 11.40625 98.925781 11.40625 C 99.105469 11.40625 99.277344 11.371094 99.441406 11.304688 C 99.605469 11.234375 99.753906 11.136719 99.878906 11.011719 C 100.007812 10.886719 100.105469 10.738281 100.171875 10.574219 C 100.242188 10.40625 100.273438 10.234375 100.273438 10.058594 C 100.273438 9.878906 100.242188 9.707031 100.171875 9.539062 C 100.101562 9.375 100.003906 9.230469 99.878906 9.101562 C 99.753906 8.976562 99.605469 8.878906 99.441406 8.808594 C 99.277344 8.742188 99.105469 8.707031 98.925781 8.707031 Z M 98.925781 10.507812 C 98.800781 10.507812 98.695312 10.460938 98.605469 10.375 C 98.519531 10.285156 98.476562 10.179688 98.476562 10.058594 C 98.476562 9.933594 98.519531 9.828125 98.605469 9.738281 C 98.695312 9.652344 98.800781 9.605469 98.925781 9.605469 C 99.050781 9.605469 99.15625 9.652344 99.242188 9.738281 C 99.332031 9.828125 99.375 9.933594 99.375 10.058594 C 99.375 10.179688 99.332031 10.285156 99.242188 10.375 C 99.15625 10.460938 99.050781 10.507812 98.925781 10.507812 Z M 98.925781 10.507812 " fill-opacity="1" fill-rule="nonzero"/><path fill="#263f6a" d="M 110.175781 9.605469 L 103.875 9.605469 C 103.75 9.605469 103.644531 9.652344 103.558594 9.738281 C 103.46875 9.828125 103.425781 9.933594 103.425781 10.058594 C 103.425781 10.179688 103.46875 10.285156 103.558594 10.375 C 103.644531 10.460938 103.75 10.507812 103.875 10.507812 L 110.175781 10.507812 C 110.300781 10.507812 110.40625 10.460938 110.496094 10.375 C 110.582031 10.285156 110.628906 10.179688 110.628906 10.058594 C 110.628906 9.933594 110.582031 9.828125 110.496094 9.738281 C 110.40625 9.652344 110.300781 9.605469 110.175781 9.605469 Z M 110.175781 9.605469 " fill-opacity="1" fill-rule="nonzero"/><g fill="#d2492a" fill-opacity="1"><g transform="translate(20.645691, 24.874011)"><g><path d="M 1.042969 0.0507812 C 1.738281 0.0507812 2.09375 -0.570312 2.09375 -1.277344 C 2.09375 -2.003906 1.738281 -2.617188 1.042969 -2.617188 C 0.347656 -2.617188 0 -2.003906 0 -1.277344 C 0 -0.570312 0.347656 0.0507812 1.042969 0.0507812 Z M 1.042969 -2 C 1.320312 -2 1.453125 -1.722656 1.453125 -1.277344 C 1.453125 -0.875 1.320312 -0.558594 1.042969 -0.558594 C 0.773438 -0.558594 0.640625 -0.875 0.640625 -1.277344 C 0.640625 -1.722656 0.773438 -2 1.042969 -2 Z M 1.042969 -2 "/></g></g></g><g fill="#d2492a" fill-opacity="1"><g transform="translate(22.998262, 24.874011)"><g><path d="M 0.746094 -2.609375 L -0.078125 -1.707031 L 0.347656 -1.289062 L 0.5625 -1.496094 L 0.5625 0 L 1.164062 0 L 1.164062 -2.609375 Z M 0.746094 -2.609375 "/></g></g></g><g fill="#d2492a" fill-opacity="1"><g transform="translate(24.455671, 24.874011)"><g><path d="M 0.746094 -2.609375 L -0.078125 -1.707031 L 0.347656 -1.289062 L 0.5625 -1.496094 L 0.5625 0 L 1.164062 0 L 1.164062 -2.609375 Z M 0.746094 -2.609375 "/></g></g></g><g fill="#d2492a" fill-opacity="1"><g transform="translate(25.91308, 24.874011)"><g><path d="M 1.042969 0.0507812 C 1.738281 0.0507812 2.09375 -0.570312 2.09375 -1.277344 C 2.09375 -2.003906 1.738281 -2.617188 1.042969 -2.617188 C 0.347656 -2.617188 0 -2.003906 0 -1.277344 C 0 -0.570312 0.347656 0.0507812 1.042969 0.0507812 Z M 1.042969 -2 C 1.320312 -2 1.453125 -1.722656 1.453125 -1.277344 C 1.453125 -0.875 1.320312 -0.558594 1.042969 -0.558594 C 0.773438 -0.558594 0.640625 -0.875 0.640625 -1.277344 C 0.640625 -1.722656 0.773438 -2 1.042969 -2 Z M 1.042969 -2 "/></g></g></g><g fill="#d2492a" fill-opacity="1"><g transform="translate(28.265651, 24.874011)"><g><path d="M 0.746094 -2.609375 L -0.078125 -1.707031 L 0.347656 -1.289062 L 0.5625 -1.496094 L 0.5625 0 L 1.164062 0 L 1.164062 -2.609375 Z M 0.746094 -2.609375 "/></g></g></g><g fill="#d2492a" fill-opacity="1"><g transform="translate(29.72306, 24.874011)"><g><path d="M 0.746094 -2.609375 L -0.078125 -1.707031 L 0.347656 -1.289062 L 0.5625 -1.496094 L 0.5625 0 L 1.164062 0 L 1.164062 -2.609375 Z M 0.746094 -2.609375 "/></g></g></g><g fill="#d2492a" fill-opacity="1"><g transform="translate(31.180469, 24.874011)"><g><path d="M 0.746094 -2.609375 L -0.078125 -1.707031 L 0.347656 -1.289062 L 0.5625 -1.496094 L 0.5625 0 L 1.164062 0 L 1.164062 -2.609375 Z M 0.746094 -2.609375 "/></g></g></g><g fill="#d2492a" fill-opacity="1"><g transform="translate(32.637879, 24.874011)"><g><path d="M 0.746094 -2.609375 L -0.078125 -1.707031 L 0.347656 -1.289062 L 0.5625 -1.496094 L 0.5625 0 L 1.164062 0 L 1.164062 -2.609375 Z M 0.746094 -2.609375 "/></g></g></g><g fill="#d2492a" fill-opacity="1"><g transform="translate(34.095288, 24.874011)"><g/></g></g><g fill="#d2492a" fill-opacity="1"><g transform="translate(35.023741, 24.874011)"><g><path d="M 1.042969 0.0507812 C 1.738281 0.0507812 2.09375 -0.570312 2.09375 -1.277344 C 2.09375 -2.003906 1.738281 -2.617188 1.042969 -2.617188 C 0.347656 -2.617188 0 -2.003906 0 -1.277344 C 0 -0.570312 0.347656 0.0507812 1.042969 0.0507812 Z M 1.042969 -2 C 1.320312 -2 1.453125 -1.722656 1.453125 -1.277344 C 1.453125 -0.875 1.320312 -0.558594 1.042969 -0.558594 C 0.773438 -0.558594 0.640625 -0.875 0.640625 -1.277344 C 0.640625 -1.722656 0.773438 -2 1.042969 -2 Z M 1.042969 -2 "/></g></g></g><g fill="#d2492a" fill-opacity="1"><g transform="translate(37.376312, 24.874011)"><g><path d="M 0.746094 -2.609375 L -0.078125 -1.707031 L 0.347656 -1.289062 L 0.5625 -1.496094 L 0.5625 0 L 1.164062 0 L 1.164062 -2.609375 Z M 0.746094 -2.609375 "/></g></g></g><g fill="#d2492a" fill-opacity="1"><g transform="translate(38.833721, 24.874011)"><g><path d="M 0.746094 -2.609375 L -0.078125 -1.707031 L 0.347656 -1.289062 L 0.5625 -1.496094 L 0.5625 0 L 1.164062 0 L 1.164062 -2.609375 Z M 0.746094 -2.609375 "/></g></g></g><g fill="#d2492a" fill-opacity="1"><g transform="translate(40.29113, 24.874011)"><g><path d="M 0.746094 -2.609375 L -0.078125 -1.707031 L 0.347656 -1.289062 L 0.5625 -1.496094 L 0.5625 0 L 1.164062 0 L 1.164062 -2.609375 Z M 0.746094 -2.609375 "/></g></g></g><g fill="#d2492a" fill-opacity="1"><g transform="translate(41.748539, 24.874011)"><g><path d="M 1.042969 0.0507812 C 1.738281 0.0507812 2.09375 -0.570312 2.09375 -1.277344 C 2.09375 -2.003906 1.738281 -2.617188 1.042969 -2.617188 C 0.347656 -2.617188 0 -2.003906 0 -1.277344 C 0 -0.570312 0.347656 0.0507812 1.042969 0.0507812 Z M 1.042969 -2 C 1.320312 -2 1.453125 -1.722656 1.453125 -1.277344 C 1.453125 -0.875 1.320312 -0.558594 1.042969 -0.558594 C 0.773438 -0.558594 0.640625 -0.875 0.640625 -1.277344 C 0.640625 -1.722656 0.773438 -2 1.042969 -2 Z M 1.042969 -2 "/></g></g></g><g fill="#d2492a" fill-opacity="1"><g transform="translate(44.10111, 24.874011)"><g><path d="M 1.042969 0.0507812 C 1.738281 0.0507812 2.09375 -0.570312 2.09375 -1.277344 C 2.09375 -2.003906 1.738281 -2.617188 1.042969 -2.617188 C 0.347656 -2.617188 0 -2.003906 0 -1.277344 C 0 -0.570312 0.347656 0.0507812 1.042969 0.0507812 Z M 1.042969 -2 C 1.320312 -2 1.453125 -1.722656 1.453125 -1.277344 C 1.453125 -0.875 1.320312 -0.558594 1.042969 -0.558594 C 0.773438 -0.558594 0.640625 -0.875 0.640625 -1.277344 C 0.640625 -1.722656 0.773438 -2 1.042969 -2 Z M 1.042969 -2 "/></g></g></g><g fill="#d2492a" fill-opacity="1"><g transform="translate(46.453681, 24.874011)"><g><path d="M 0.746094 -2.609375 L -0.078125 -1.707031 L 0.347656 -1.289062 L 0.5625 -1.496094 L 0.5625 0 L 1.164062 0 L 1.164062 -2.609375 Z M 0.746094 -2.609375 "/></g></g></g><g fill="#d2492a" fill-opacity="1"><g transform="translate(47.91109, 24.874011)"><g><path d="M 1.042969 0.0507812 C 1.738281 0.0507812 2.09375 -0.570312 2.09375 -1.277344 C 2.09375 -2.003906 1.738281 -2.617188 1.042969 -2.617188 C 0.347656 -2.617188 0 -2.003906 0 -1.277344 C 0 -0.570312 0.347656 0.0507812 1.042969 0.0507812 Z M 1.042969 -2 C 1.320312 -2 1.453125 -1.722656 1.453125 -1.277344 C 1.453125 -0.875 1.320312 -0.558594 1.042969 -0.558594 C 0.773438 -0.558594 0.640625 -0.875 0.640625 -1.277344 C 0.640625 -1.722656 0.773438 -2 1.042969 -2 Z M 1.042969 -2 "/></g></g></g><g fill="#d2492a" fill-opacity="1"><g transform="translate(50.263661, 24.874011)"><g><path d="M 1.042969 0.0507812 C 1.738281 0.0507812 2.09375 -0.570312 2.09375 -1.277344 C 2.09375 -2.003906 1.738281 -2.617188 1.042969 -2.617188 C 0.347656 -2.617188 0 -2.003906 0 -1.277344 C 0 -0.570312 0.347656 0.0507812 1.042969 0.0507812 Z M 1.042969 -2 C 1.320312 -2 1.453125 -1.722656 1.453125 -1.277344 C 1.453125 -0.875 1.320312 -0.558594 1.042969 -0.558594 C 0.773438 -0.558594 0.640625 -0.875 0.640625 -1.277344 C 0.640625 -1.722656 0.773438 -2 1.042969 -2 Z M 1.042969 -2 "/></g></g></g><g fill="#d2492a" fill-opacity="1"><g transform="translate(52.616231, 24.874011)"><g><path d="M 0.746094 -2.609375 L -0.078125 -1.707031 L 0.347656 -1.289062 L 0.5625 -1.496094 L 0.5625 0 L 1.164062 0 L 1.164062 -2.609375 Z M 0.746094 -2.609375 "/></g></g></g><g fill="#d2492a" fill-opacity="1"><g transform="translate(54.073641, 24.874011)"><g><path d="M 0.746094 -2.609375 L -0.078125 -1.707031 L 0.347656 -1.289062 L 0.5625 -1.496094 L 0.5625 0 L 1.164062 0 L 1.164062 -2.609375 Z M 0.746094 -2.609375 "/></g></g></g><g fill="#d2492a" fill-opacity="1"><g transform="translate(55.53105, 24.874011)"><g><path d="M 1.042969 0.0507812 C 1.738281 0.0507812 2.09375 -0.570312 2.09375 -1.277344 C 2.09375 -2.003906 1.738281 -2.617188 1.042969 -2.617188 C 0.347656 -2.617188 0 -2.003906 0 -1.277344 C 0 -0.570312 0.347656 0.0507812 1.042969 0.0507812 Z M 1.042969 -2 C 1.320312 -2 1.453125 -1.722656 1.453125 -1.277344 C 1.453125 -0.875 1.320312 -0.558594 1.042969 -0.558594 C 0.773438 -0.558594 0.640625 -0.875 0.640625 -1.277344 C 0.640625 -1.722656 0.773438 -2 1.042969 -2 Z M 1.042969 -2 "/></g></g></g><g fill="#d2492a" fill-opacity="1"><g transform="translate(57.883621, 24.874011)"><g><path d="M 1.042969 0.0507812 C 1.738281 0.0507812 2.09375 -0.570312 2.09375 -1.277344 C 2.09375 -2.003906 1.738281 -2.617188 1.042969 -2.617188 C 0.347656 -2.617188 0 -2.003906 0 -1.277344 C 0 -0.570312 0.347656 0.0507812 1.042969 0.0507812 Z M 1.042969 -2 C 1.320312 -2 1.453125 -1.722656 1.453125 -1.277344 C 1.453125 -0.875 1.320312 -0.558594 1.042969 -0.558594 C 0.773438 -0.558594 0.640625 -0.875 0.640625 -1.277344 C 0.640625 -1.722656 0.773438 -2 1.042969 -2 Z M 1.042969 -2 "/></g></g></g><g fill="#d2492a" fill-opacity="1"><g transform="translate(60.236191, 24.874011)"><g><path d="M 0.746094 -2.609375 L -0.078125 -1.707031 L 0.347656 -1.289062 L 0.5625 -1.496094 L 0.5625 0 L 1.164062 0 L 1.164062 -2.609375 Z M 0.746094 -2.609375 "/></g></g></g><g fill="#d2492a" fill-opacity="1"><g transform="translate(61.693601, 24.874011)"><g><path d="M 1.042969 0.0507812 C 1.738281 0.0507812 2.09375 -0.570312 2.09375 -1.277344 C 2.09375 -2.003906 1.738281 -2.617188 1.042969 -2.617188 C 0.347656 -2.617188 0 -2.003906 0 -1.277344 C 0 -0.570312 0.347656 0.0507812 1.042969 0.0507812 Z M 1.042969 -2 C 1.320312 -2 1.453125 -1.722656 1.453125 -1.277344 C 1.453125 -0.875 1.320312 -0.558594 1.042969 -0.558594 C 0.773438 -0.558594 0.640625 -0.875 0.640625 -1.277344 C 0.640625 -1.722656 0.773438 -2 1.042969 -2 Z M 1.042969 -2 "/></g></g></g><g fill="#d2492a" fill-opacity="1"><g transform="translate(64.046171, 24.874011)"><g><path d="M 0.746094 -2.609375 L -0.078125 -1.707031 L 0.347656 -1.289062 L 0.5625 -1.496094 L 0.5625 0 L 1.164062 0 L 1.164062 -2.609375 Z M 0.746094 -2.609375 "/></g></g></g><g fill="#d2492a" fill-opacity="1"><g transform="translate(65.505537, 24.874011)"><g/></g></g><g fill="#d2492a" fill-opacity="1"><g transform="translate(35.851142, 30.258877)"><g><path d="M 1.042969 0.0507812 C 1.738281 0.0507812 2.09375 -0.570312 2.09375 -1.277344 C 2.09375 -2.003906 1.738281 -2.617188 1.042969 -2.617188 C 0.347656 -2.617188 0 -2.003906 0 -1.277344 C 0 -0.570312 0.347656 0.0507812 1.042969 0.0507812 Z M 1.042969 -2 C 1.320312 -2 1.453125 -1.722656 1.453125 -1.277344 C 1.453125 -0.875 1.320312 -0.558594 1.042969 -0.558594 C 0.773438 -0.558594 0.640625 -0.875 0.640625 -1.277344 C 0.640625 -1.722656 0.773438 -2 1.042969 -2 Z M 1.042969 -2 "/></g></g></g><g fill="#d2492a" fill-opacity="1"><g transform="translate(38.203712, 30.258877)"><g><path d="M 0.746094 -2.609375 L -0.078125 -1.707031 L 0.347656 -1.289062 L 0.5625 -1.496094 L 0.5625 0 L 1.164062 0 L 1.164062 -2.609375 Z M 0.746094 -2.609375 "/></g></g></g><g fill="#d2492a" fill-opacity="1"><g transform="translate(39.661122, 30.258877)"><g><path d="M 0.746094 -2.609375 L -0.078125 -1.707031 L 0.347656 -1.289062 L 0.5625 -1.496094 L 0.5625 0 L 1.164062 0 L 1.164062 -2.609375 Z M 0.746094 -2.609375 "/></g></g></g><g fill="#d2492a" fill-opacity="1"><g transform="translate(41.118531, 30.258877)"><g><path d="M 0.746094 -2.609375 L -0.078125 -1.707031 L 0.347656 -1.289062 L 0.5625 -1.496094 L 0.5625 0 L 1.164062 0 L 1.164062 -2.609375 Z M 0.746094 -2.609375 "/></g></g></g><g fill="#d2492a" fill-opacity="1"><g transform="translate(42.57594, 30.258877)"><g><path d="M 1.042969 0.0507812 C 1.738281 0.0507812 2.09375 -0.570312 2.09375 -1.277344 C 2.09375 -2.003906 1.738281 -2.617188 1.042969 -2.617188 C 0.347656 -2.617188 0 -2.003906 0 -1.277344 C 0 -0.570312 0.347656 0.0507812 1.042969 0.0507812 Z M 1.042969 -2 C 1.320312 -2 1.453125 -1.722656 1.453125 -1.277344 C 1.453125 -0.875 1.320312 -0.558594 1.042969 -0.558594 C 0.773438 -0.558594 0.640625 -0.875 0.640625 -1.277344 C 0.640625 -1.722656 0.773438 -2 1.042969 -2 Z M 1.042969 -2 "/></g></g></g><g fill="#d2492a" fill-opacity="1"><g transform="translate(44.928511, 30.258877)"><g><path d="M 1.042969 0.0507812 C 1.738281 0.0507812 2.09375 -0.570312 2.09375 -1.277344 C 2.09375 -2.003906 1.738281 -2.617188 1.042969 -2.617188 C 0.347656 -2.617188 0 -2.003906 0 -1.277344 C 0 -0.570312 0.347656 0.0507812 1.042969 0.0507812 Z M 1.042969 -2 C 1.320312 -2 1.453125 -1.722656 1.453125 -1.277344 C 1.453125 -0.875 1.320312 -0.558594 1.042969 -0.558594 C 0.773438 -0.558594 0.640625 -0.875 0.640625 -1.277344 C 0.640625 -1.722656 0.773438 -2 1.042969 -2 Z M 1.042969 -2 "/></g></g></g><g fill="#d2492a" fill-opacity="1"><g transform="translate(47.281082, 30.258877)"><g><path d="M 0.746094 -2.609375 L -0.078125 -1.707031 L 0.347656 -1.289062 L 0.5625 -1.496094 L 0.5625 0 L 1.164062 0 L 1.164062 -2.609375 Z M 0.746094 -2.609375 "/></g></g></g><g fill="#d2492a" fill-opacity="1"><g transform="translate(48.738491, 30.258877)"><g><path d="M 0.746094 -2.609375 L -0.078125 -1.707031 L 0.347656 -1.289062 L 0.5625 -1.496094 L 0.5625 0 L 1.164062 0 L 1.164062 -2.609375 Z M 0.746094 -2.609375 "/></g></g></g><g fill="#d2492a" fill-opacity="1"><g transform="translate(50.1959, 30.258877)"><g/></g></g><g fill="#d2492a" fill-opacity="1"><g transform="translate(51.124353, 30.258877)"><g><path d="M 1.042969 0.0507812 C 1.738281 0.0507812 2.09375 -0.570312 2.09375 -1.277344 C 2.09375 -2.003906 1.738281 -2.617188 1.042969 -2.617188 C 0.347656 -2.617188 0 -2.003906 0 -1.277344 C 0 -0.570312 0.347656 0.0507812 1.042969 0.0507812 Z M 1.042969 -2 C 1.320312 -2 1.453125 -1.722656 1.453125 -1.277344 C 1.453125 -0.875 1.320312 -0.558594 1.042969 -0.558594 C 0.773438 -0.558594 0.640625 -0.875 0.640625 -1.277344 C 0.640625 -1.722656 0.773438 -2 1.042969 -2 Z M 1.042969 -2 "/></g></g></g><g fill="#d2492a" fill-opacity="1"><g transform="translate(53.476924, 30.258877)"><g><path d="M 0.746094 -2.609375 L -0.078125 -1.707031 L 0.347656 -1.289062 L 0.5625 -1.496094 L 0.5625 0 L 1.164062 0 L 1.164062 -2.609375 Z M 0.746094 -2.609375 "/></g></g></g><g fill="#d2492a" fill-opacity="1"><g transform="translate(54.934333, 30.258877)"><g><path d="M 0.746094 -2.609375 L -0.078125 -1.707031 L 0.347656 -1.289062 L 0.5625 -1.496094 L 0.5625 0 L 1.164062 0 L 1.164062 -2.609375 Z M 0.746094 -2.609375 "/></g></g></g><g fill="#d2492a" fill-opacity="1"><g transform="translate(56.391742, 30.258877)"><g><path d="M 1.042969 0.0507812 C 1.738281 0.0507812 2.09375 -0.570312 2.09375 -1.277344 C 2.09375 -2.003906 1.738281 -2.617188 1.042969 -2.617188 C 0.347656 -2.617188 0 -2.003906 0 -1.277344 C 0 -0.570312 0.347656 0.0507812 1.042969 0.0507812 Z M 1.042969 -2 C 1.320312 -2 1.453125 -1.722656 1.453125 -1.277344 C 1.453125 -0.875 1.320312 -0.558594 1.042969 -0.558594 C 0.773438 -0.558594 0.640625 -0.875 0.640625 -1.277344 C 0.640625 -1.722656 0.773438 -2 1.042969 -2 Z M 1.042969 -2 "/></g></g></g><g fill="#d2492a" fill-opacity="1"><g transform="translate(58.744313, 30.258877)"><g><path d="M 1.042969 0.0507812 C 1.738281 0.0507812 2.09375 -0.570312 2.09375 -1.277344 C 2.09375 -2.003906 1.738281 -2.617188 1.042969 -2.617188 C 0.347656 -2.617188 0 -2.003906 0 -1.277344 C 0 -0.570312 0.347656 0.0507812 1.042969 0.0507812 Z M 1.042969 -2 C 1.320312 -2 1.453125 -1.722656 1.453125 -1.277344 C 1.453125 -0.875 1.320312 -0.558594 1.042969 -0.558594 C 0.773438 -0.558594 0.640625 -0.875 0.640625 -1.277344 C 0.640625 -1.722656 0.773438 -2 1.042969 -2 Z M 1.042969 -2 "/></g></g></g><g fill="#d2492a" fill-opacity="1"><g transform="translate(61.096884, 30.258877)"><g><path d="M 0.746094 -2.609375 L -0.078125 -1.707031 L 0.347656 -1.289062 L 0.5625 -1.496094 L 0.5625 0 L 1.164062 0 L 1.164062 -2.609375 Z M 0.746094 -2.609375 "/></g></g></g><g fill="#d2492a" fill-opacity="1"><g transform="translate(62.554293, 30.258877)"><g><path d="M 1.042969 0.0507812 C 1.738281 0.0507812 2.09375 -0.570312 2.09375 -1.277344 C 2.09375 -2.003906 1.738281 -2.617188 1.042969 -2.617188 C 0.347656 -2.617188 0 -2.003906 0 -1.277344 C 0 -0.570312 0.347656 0.0507812 1.042969 0.0507812 Z M 1.042969 -2 C 1.320312 -2 1.453125 -1.722656 1.453125 -1.277344 C 1.453125 -0.875 1.320312 -0.558594 1.042969 -0.558594 C 0.773438 -0.558594 0.640625 -0.875 0.640625 -1.277344 C 0.640625 -1.722656 0.773438 -2 1.042969 -2 Z M 1.042969 -2 "/></g></g></g><g fill="#d2492a" fill-opacity="1"><g transform="translate(64.908416, 30.258877)"><g/></g></g><g fill="#d2492a" fill-opacity="1"><g transform="translate(48.263695, 35.467509)"><g><path d="M 0.746094 -2.609375 L -0.078125 -1.707031 L 0.347656 -1.289062 L 0.5625 -1.496094 L 0.5625 0 L 1.164062 0 L 1.164062 -2.609375 Z M 0.746094 -2.609375 "/></g></g></g><g fill="#d2492a" fill-opacity="1"><g transform="translate(49.721104, 35.467509)"><g><path d="M 1.042969 0.0507812 C 1.738281 0.0507812 2.09375 -0.570312 2.09375 -1.277344 C 2.09375 -2.003906 1.738281 -2.617188 1.042969 -2.617188 C 0.347656 -2.617188 0 -2.003906 0 -1.277344 C 0 -0.570312 0.347656 0.0507812 1.042969 0.0507812 Z M 1.042969 -2 C 1.320312 -2 1.453125 -1.722656 1.453125 -1.277344 C 1.453125 -0.875 1.320312 -0.558594 1.042969 -0.558594 C 0.773438 -0.558594 0.640625 -0.875 0.640625 -1.277344 C 0.640625 -1.722656 0.773438 -2 1.042969 -2 Z M 1.042969 -2 "/></g></g></g><g fill="#d2492a" fill-opacity="1"><g transform="translate(52.073675, 35.467509)"><g><path d="M 0.746094 -2.609375 L -0.078125 -1.707031 L 0.347656 -1.289062 L 0.5625 -1.496094 L 0.5625 0 L 1.164062 0 L 1.164062 -2.609375 Z M 0.746094 -2.609375 "/></g></g></g><g fill="#d2492a" fill-opacity="1"><g transform="translate(53.531084, 35.467509)"><g><path d="M 0.746094 -2.609375 L -0.078125 -1.707031 L 0.347656 -1.289062 L 0.5625 -1.496094 L 0.5625 0 L 1.164062 0 L 1.164062 -2.609375 Z M 0.746094 -2.609375 "/></g></g></g><g fill="#d2492a" fill-opacity="1"><g transform="translate(54.988493, 35.467509)"><g><path d="M 1.042969 0.0507812 C 1.738281 0.0507812 2.09375 -0.570312 2.09375 -1.277344 C 2.09375 -2.003906 1.738281 -2.617188 1.042969 -2.617188 C 0.347656 -2.617188 0 -2.003906 0 -1.277344 C 0 -0.570312 0.347656 0.0507812 1.042969 0.0507812 Z M 1.042969 -2 C 1.320312 -2 1.453125 -1.722656 1.453125 -1.277344 C 1.453125 -0.875 1.320312 -0.558594 1.042969 -0.558594 C 0.773438 -0.558594 0.640625 -0.875 0.640625 -1.277344 C 0.640625 -1.722656 0.773438 -2 1.042969 -2 Z M 1.042969 -2 "/></g></g></g><g fill="#d2492a" fill-opacity="1"><g transform="translate(57.341064, 35.467509)"><g><path d="M 1.042969 0.0507812 C 1.738281 0.0507812 2.09375 -0.570312 2.09375 -1.277344 C 2.09375 -2.003906 1.738281 -2.617188 1.042969 -2.617188 C 0.347656 -2.617188 0 -2.003906 0 -1.277344 C 0 -0.570312 0.347656 0.0507812 1.042969 0.0507812 Z M 1.042969 -2 C 1.320312 -2 1.453125 -1.722656 1.453125 -1.277344 C 1.453125 -0.875 1.320312 -0.558594 1.042969 -0.558594 C 0.773438 -0.558594 0.640625 -0.875 0.640625 -1.277344 C 0.640625 -1.722656 0.773438 -2 1.042969 -2 Z M 1.042969 -2 "/></g></g></g><g fill="#d2492a" fill-opacity="1"><g transform="translate(59.693635, 35.467509)"><g><path d="M 1.042969 0.0507812 C 1.738281 0.0507812 2.09375 -0.570312 2.09375 -1.277344 C 2.09375 -2.003906 1.738281 -2.617188 1.042969 -2.617188 C 0.347656 -2.617188 0 -2.003906 0 -1.277344 C 0 -0.570312 0.347656 0.0507812 1.042969 0.0507812 Z M 1.042969 -2 C 1.320312 -2 1.453125 -1.722656 1.453125 -1.277344 C 1.453125 -0.875 1.320312 -0.558594 1.042969 -0.558594 C 0.773438 -0.558594 0.640625 -0.875 0.640625 -1.277344 C 0.640625 -1.722656 0.773438 -2 1.042969 -2 Z M 1.042969 -2 "/></g></g></g><g fill="#d2492a" fill-opacity="1"><g transform="translate(62.046205, 35.467509)"><g><path d="M 0.746094 -2.609375 L -0.078125 -1.707031 L 0.347656 -1.289062 L 0.5625 -1.496094 L 0.5625 0 L 1.164062 0 L 1.164062 -2.609375 Z M 0.746094 -2.609375 "/></g></g></g><g fill="#d2492a" fill-opacity="1"><g transform="translate(63.503615, 35.467509)"><g><path d="M 0.746094 -2.609375 L -0.078125 -1.707031 L 0.347656 -1.289062 L 0.5625 -1.496094 L 0.5625 0 L 1.164062 0 L 1.164062 -2.609375 Z M 0.746094 -2.609375 "/></g></g></g></svg>