<svg xmlns="http://www.w3.org/2000/svg" xmlns:xlink="http://www.w3.org/1999/xlink" width="500" zoomAndPan="magnify" viewBox="0 0 375 374.999991" height="500" preserveAspectRatio="xMidYMid meet" version="1.0"><defs><g/><clipPath id="f6f9787591"><path d="M 149.332031 204.464844 L 173.753906 204.464844 L 173.753906 228.886719 L 149.332031 228.886719 Z M 149.332031 204.464844 " clip-rule="nonzero"/></clipPath><clipPath id="bc71427267"><path d="M 161.542969 204.464844 C 154.800781 204.464844 149.332031 209.933594 149.332031 216.675781 C 149.332031 223.421875 154.800781 228.886719 161.542969 228.886719 C 168.289062 228.886719 173.753906 223.421875 173.753906 216.675781 C 173.753906 209.933594 168.289062 204.464844 161.542969 204.464844 Z M 161.542969 204.464844 " clip-rule="nonzero"/></clipPath><clipPath id="b1489bec0b"><path d="M 201.738281 204.464844 L 226.160156 204.464844 L 226.160156 228.886719 L 201.738281 228.886719 Z M 201.738281 204.464844 " clip-rule="nonzero"/></clipPath><clipPath id="f710df63e5"><path d="M 213.949219 204.464844 C 207.207031 204.464844 201.738281 209.933594 201.738281 216.675781 C 201.738281 223.421875 207.207031 228.886719 213.949219 228.886719 C 220.695312 228.886719 226.160156 223.421875 226.160156 216.675781 C 226.160156 209.933594 220.695312 204.464844 213.949219 204.464844 Z M 213.949219 204.464844 " clip-rule="nonzero"/></clipPath></defs><g clip-path="url(#f6f9787591)"><g clip-path="url(#bc71427267)"><path stroke-linecap="butt" transform="matrix(0.75, 0, 0, 0.75, 149.332684, 204.465354)" fill="none" stroke-linejoin="miter" d="M 16.28038 -0.000680031 C 7.290796 -0.000680031 -0.000870725 7.290987 -0.000870725 16.280571 C -0.000870725 25.275363 7.290796 32.561822 16.28038 32.561822 C 25.275173 32.561822 32.561631 25.275363 32.561631 16.280571 C 32.561631 7.290987 25.275173 -0.000680031 16.28038 -0.000680031 Z M 16.28038 -0.000680031 " stroke="#263f6a" stroke-width="6" stroke-opacity="1" stroke-miterlimit="4"/></g></g><g clip-path="url(#b1489bec0b)"><g clip-path="url(#f710df63e5)"><path stroke-linecap="butt" transform="matrix(0.75, 0, 0, 0.75, 201.739282, 204.465354)" fill="none" stroke-linejoin="miter" d="M 16.279916 -0.000680031 C 7.290332 -0.000680031 -0.00133494 7.290987 -0.00133494 16.280571 C -0.00133494 25.275363 7.290332 32.561822 16.279916 32.561822 C 25.274708 32.561822 32.561167 25.275363 32.561167 16.280571 C 32.561167 7.290987 25.274708 -0.000680031 16.279916 -0.000680031 Z M 16.279916 -0.000680031 " stroke="#263f6a" stroke-width="6" stroke-opacity="1" stroke-miterlimit="4"/></g></g><path stroke-linecap="butt" transform="matrix(0.75, 0, 0, 0.75, 228.277139, 150.977803)" fill="none" stroke-linejoin="miter" d="M 0.000272854 87.602519 L 7.708607 87.602519 C 11.963815 87.602519 15.416941 84.154602 15.416941 79.894185 L 15.416941 -0.00165385 " stroke="#263f6a" stroke-width="4" stroke-opacity="1" stroke-miterlimit="4"/><path stroke-linecap="butt" transform="matrix(0.75, 0, 0, 0.75, 134.054249, 179.873719)" fill="none" stroke-linejoin="miter" d="M 0.000584271 2.001708 L 6.604751 2.001708 C 8.323501 2.001708 9.974543 2.683999 11.188085 3.897541 C 12.401627 5.116291 13.089127 6.762125 13.089127 8.480875 C 13.089127 10.204833 13.771419 11.850667 14.98496 13.069417 C 16.20371 14.282958 17.849544 14.96525 19.568294 14.96525 L 33.099545 14.96525 " stroke="#d2492a" stroke-width="4" stroke-opacity="1" stroke-miterlimit="4"/><path stroke-linecap="round" transform="matrix(0.75, 0, 0, 0.75, 134.054249, 179.873719)" fill="none" stroke-linejoin="round" d="M 46.099546 14.96525 C 46.099546 18.282959 43.417254 20.965251 40.099545 20.965251 C 36.787045 20.965251 34.099545 18.282959 34.099545 14.96525 C 34.099545 11.65275 36.787045 8.96525 40.099545 8.96525 C 43.417254 8.96525 46.099546 11.65275 46.099546 14.96525 " stroke="#d2492a" stroke-width="4" stroke-opacity="1" stroke-miterlimit="4"/><path stroke-linecap="butt" transform="matrix(0.75, 0, 0, 0.75, 133.838785, 194.046198)" fill="none" stroke-linejoin="miter" d="M 0.00141232 10.084236 L 53.069124 10.084236 C 54.142041 10.084236 55.168083 9.657153 55.928499 8.901944 C 56.688916 8.141528 57.110791 7.115486 57.110791 6.042569 C 57.110791 4.969652 57.537874 3.943611 58.298291 3.183194 C 59.0535 2.427986 60.08475 2.000902 61.152458 2.000902 L 111.15767 2.000902 " stroke="#d2492a" stroke-width="4" stroke-opacity="1" stroke-miterlimit="4"/><path stroke-linecap="round" transform="matrix(0.75, 0, 0, 0.75, 133.838785, 194.046198)" fill="none" stroke-linejoin="round" d="M 124.15767 2.000902 C 124.15767 5.313402 121.47017 8.000903 118.15767 8.000903 C 114.84517 8.000903 112.15767 5.313402 112.15767 2.000902 C 112.15767 -1.311598 114.84517 -3.999098 118.15767 -3.999098 C 121.47017 -3.999098 124.15767 -1.311598 124.15767 2.000902 " stroke="#d2492a" stroke-width="4" stroke-opacity="1" stroke-miterlimit="4"/><path stroke-linecap="butt" transform="matrix(0.75, 0, 0, 0.75, 133.838785, 158.378822)" fill="none" stroke-linejoin="miter" d="M 0.00141232 2.000113 L 81.777459 2.000113 " stroke="#d2492a" stroke-width="4" stroke-opacity="1" stroke-miterlimit="4"/><path stroke-linecap="round" transform="matrix(0.75, 0, 0, 0.75, 133.838785, 158.378822)" fill="none" stroke-linejoin="round" d="M 94.77746 2.000113 C 94.77746 5.312613 92.08996 8.000113 88.77746 8.000113 C 85.46496 8.000113 82.777459 5.312613 82.777459 2.000113 C 82.777459 -1.312387 85.46496 -3.999887 88.77746 -3.999887 C 92.08996 -3.999887 94.77746 -1.312387 94.77746 2.000113 " stroke="#d2492a" stroke-width="4" stroke-opacity="1" stroke-miterlimit="4"/><path stroke-linecap="butt" transform="matrix(0.75, 0, 0, 0.75, 133.659709, 150.977803)" fill="none" stroke-linejoin="miter" d="M 2.000597 -0.00165385 L 2.000597 79.607726 C 2.000597 84.024393 5.578722 87.602519 9.995389 87.602519 L 17.99539 87.602519 " stroke="#263f6a" stroke-width="4" stroke-opacity="1" stroke-miterlimit="4"/><path stroke-linecap="butt" transform="matrix(0.75, 0, 0, 0.75, 175.942522, 215.181255)" fill="none" stroke-linejoin="miter" d="M -0.00148733 1.997911 L 31.394348 1.997911 " stroke="#263f6a" stroke-width="4" stroke-opacity="1" stroke-miterlimit="4"/><path stroke-linecap="round" transform="matrix(0.75, 0, 0, 0.75, 127.499996, 147.602803)" fill="none" stroke-linejoin="miter" d="M 2.500005 2.498346 L 157.500016 2.498346 " stroke="#263f6a" stroke-width="5" stroke-opacity="1" stroke-miterlimit="4"/><path stroke-linecap="round" transform="matrix(0.75, 0, 0, 0.75, 127.499996, 146.102803)" fill="none" stroke-linejoin="miter" d="M 2.500005 2.498346 L 157.500016 2.498346 " stroke="#263f6a" stroke-width="5" stroke-opacity="1" stroke-miterlimit="4"/><g fill="#ffffff" fill-opacity="1"><g transform="translate(150.50311, 181.284084)"><g><path d="M 7.410156 0.269531 C 11.167969 0.269531 14.21875 -2.664062 14.21875 -6.328125 C 14.21875 -9.992188 11.167969 -12.914062 7.410156 -12.914062 C 3.65625 -12.914062 0.613281 -9.992188 0.613281 -6.328125 C 0.613281 -2.664062 3.65625 0.269531 7.410156 0.269531 Z M 7.410156 -1.855469 C 4.933594 -1.855469 2.921875 -3.757812 2.921875 -6.316406 C 2.921875 -8.886719 4.925781 -10.796875 7.410156 -10.796875 C 9.90625 -10.796875 11.917969 -8.894531 11.917969 -6.316406 C 11.917969 -3.757812 9.90625 -1.855469 7.410156 -1.855469 Z M 7.410156 -1.855469 "/></g></g></g><g fill="#ffffff" fill-opacity="1"><g transform="translate(165.334537, 181.284084)"><g><path d="M 3.8125 0 L 3.8125 -4.472656 L 5.972656 -4.472656 C 6.140625 -4.472656 6.296875 -4.472656 6.464844 -4.480469 L 8.960938 0 L 11.613281 0 L 8.757812 -4.832031 C 10.304688 -5.371094 11.324219 -6.726562 11.324219 -8.507812 C 11.324219 -10.964844 9.5 -12.617188 6.949219 -12.617188 L 1.503906 -12.617188 L 1.503906 0 Z M 3.8125 -10.554688 L 6.855469 -10.554688 C 8.078125 -10.554688 9.015625 -9.65625 9.015625 -8.507812 C 9.015625 -7.273438 8.089844 -6.429688 6.863281 -6.417969 L 3.8125 -6.417969 Z M 3.8125 -10.554688 "/></g></g></g><g fill="#ffffff" fill-opacity="1"><g transform="translate(177.346232, 181.284084)"><g><path d="M 10.230469 0 L 10.230469 -2.070312 L 3.8125 -2.070312 L 3.8125 -5.4375 L 9.285156 -5.4375 L 9.285156 -7.382812 L 3.8125 -7.382812 L 3.8125 -10.546875 L 10.148438 -10.546875 L 10.148438 -12.617188 L 1.503906 -12.617188 L 1.503906 0 Z M 10.230469 0 "/></g></g></g><g fill="#ffffff" fill-opacity="1"><g transform="translate(188.179941, 181.284084)"><g><path d="M 5.761719 0.289062 C 8.878906 0.289062 10.898438 -1.085938 10.898438 -3.535156 C 10.898438 -6.058594 8.746094 -6.976562 6.429688 -7.402344 C 4.3125 -7.746094 3.265625 -8.226562 3.265625 -9.285156 C 3.265625 -10.082031 3.738281 -10.890625 5.648438 -10.890625 C 7.367188 -10.890625 8.117188 -10.101562 8.117188 -9.128906 L 10.425781 -9.128906 C 10.425781 -11.390625 8.820312 -12.914062 5.675781 -12.914062 C 2.402344 -12.914062 0.957031 -11.34375 0.957031 -9.292969 C 0.957031 -6.679688 3.542969 -5.917969 5.660156 -5.480469 C 7.410156 -5.148438 8.5625 -4.710938 8.5625 -3.542969 C 8.5625 -2.292969 7.644531 -1.660156 5.75 -1.660156 C 3.96875 -1.660156 2.941406 -2.605469 2.941406 -3.785156 L 0.628906 -3.785156 C 0.628906 -1.808594 2.113281 0.289062 5.761719 0.289062 Z M 5.761719 0.289062 "/></g></g></g><g fill="#ffffff" fill-opacity="1"><g transform="translate(199.662931, 181.284084)"><g><path d="M 10.230469 0 L 10.230469 -2.070312 L 3.8125 -2.070312 L 3.8125 -5.4375 L 9.285156 -5.4375 L 9.285156 -7.382812 L 3.8125 -7.382812 L 3.8125 -10.546875 L 10.148438 -10.546875 L 10.148438 -12.617188 L 1.503906 -12.617188 L 1.503906 0 Z M 10.230469 0 "/></g></g></g><g fill="#ffffff" fill-opacity="1"><g transform="translate(210.49664, 181.284084)"><g><path d="M 7.273438 0.269531 C 9.960938 0.269531 12.773438 -1.28125 13.359375 -4.65625 L 10.992188 -4.65625 C 10.5 -2.71875 8.996094 -1.855469 7.207031 -1.855469 C 4.824219 -1.855469 2.921875 -3.582031 2.921875 -6.316406 C 2.921875 -9.007812 4.824219 -10.796875 7.207031 -10.796875 C 9.007812 -10.796875 10.5 -9.925781 11 -7.988281 L 13.359375 -7.988281 C 12.773438 -11.355469 9.933594 -12.914062 7.273438 -12.914062 C 3.554688 -12.914062 0.613281 -9.992188 0.613281 -6.328125 C 0.613281 -2.664062 3.554688 0.269531 7.273438 0.269531 Z M 7.273438 0.269531 "/></g></g></g></svg>
