<svg xmlns="http://www.w3.org/2000/svg" xmlns:xlink="http://www.w3.org/1999/xlink" zoomAndPan="magnify" preserveAspectRatio="xMidYMid meet" version="1.0" viewBox="0.57 21.33 148.78 53.5"><defs><g/><clipPath id="1714db79c6"><path d="M 138 41 L 149.800781 41 L 149.800781 52 L 138 52 Z M 138 41 " clip-rule="nonzero"/></clipPath><clipPath id="d6fc998816"><path d="M 40.300781 57.800781 L 48.929688 57.800781 L 48.929688 66.429688 L 40.300781 66.429688 Z M 40.300781 57.800781 " clip-rule="nonzero"/></clipPath><clipPath id="7a1ca09ebd"><path d="M 44.617188 57.800781 C 42.234375 57.800781 40.300781 59.730469 40.300781 62.113281 C 40.300781 64.496094 42.234375 66.429688 44.617188 66.429688 C 47 66.429688 48.929688 64.496094 48.929688 62.113281 C 48.929688 59.730469 47 57.800781 44.617188 57.800781 Z M 44.617188 57.800781 " clip-rule="nonzero"/></clipPath><clipPath id="c84eb90306"><path d="M 58.824219 57.800781 L 67.453125 57.800781 L 67.453125 66.429688 L 58.824219 66.429688 Z M 58.824219 57.800781 " clip-rule="nonzero"/></clipPath><clipPath id="ff1183bae3"><path d="M 63.140625 57.800781 C 60.757812 57.800781 58.824219 59.730469 58.824219 62.113281 C 58.824219 64.496094 60.757812 66.429688 63.140625 66.429688 C 65.523438 66.429688 67.453125 64.496094 67.453125 62.113281 C 67.453125 59.730469 65.523438 57.800781 63.140625 57.800781 Z M 63.140625 57.800781 " clip-rule="nonzero"/></clipPath><clipPath id="27dadf5935"><path d="M 36.835938 27.066406 L 52.417969 27.066406 L 52.417969 37.039062 L 36.835938 37.039062 Z M 36.835938 27.066406 " clip-rule="nonzero"/></clipPath><clipPath id="b94575d74e"><path d="M 54.914062 32.390625 L 70.496094 32.390625 L 70.496094 36.917969 L 54.914062 36.917969 Z M 54.914062 32.390625 " clip-rule="nonzero"/></clipPath><clipPath id="ee988ae68d"><path d="M 0.199219 44 L 3 44 L 3 47 L 0.199219 47 Z M 0.199219 44 " clip-rule="nonzero"/></clipPath></defs><g fill="#d2492a" fill-opacity="1"><g transform="translate(75.023372, 51.612362)"><g><path d="M 10.765625 0 L 12.261719 -1.496094 L 12.261719 -8.972656 L 10.765625 -10.46875 L 2.242188 -10.46875 L 0.746094 -8.972656 L 0.746094 -1.496094 L 2.242188 0 Z M 9.269531 -2.992188 L 3.738281 -2.992188 L 3.738281 -7.476562 L 9.269531 -7.476562 Z M 2.75 -1.195312 L 1.945312 -2.019531 L 1.945312 -8.464844 L 2.75 -9.269531 L 10.257812 -9.269531 L 11.066406 -8.476562 L 11.066406 -2.003906 L 10.257812 -1.195312 Z M 10.46875 -8.671875 L 2.542969 -8.671875 L 2.542969 -1.792969 L 10.46875 -1.792969 Z M 10.46875 -8.671875 "/></g></g></g><g fill="#d2492a" fill-opacity="1"><g transform="translate(88.028569, 51.612362)"><g><path d="M 11.960938 0 L 9.71875 -2.242188 L 11.214844 -3.738281 L 11.214844 -8.972656 L 9.71875 -10.46875 L 0.0742188 -10.46875 L 0.0742188 -7.476562 L 8.222656 -7.476562 L 8.222656 -5.234375 L 4.1875 -5.234375 L 4.1875 -6.730469 L 1.195312 -6.730469 L 1.195312 0 L 4.1875 0 L 4.1875 -2.242188 L 6.085938 -2.242188 L 8.328125 0 Z M 9.359375 -1.195312 L 8.554688 -1.195312 L 6.296875 -3.4375 L 2.992188 -3.4375 L 2.992188 -1.195312 L 2.390625 -1.195312 L 2.390625 -5.53125 L 2.992188 -5.53125 L 2.992188 -4.039062 L 9.421875 -4.039062 L 9.421875 -8.671875 L 1.269531 -8.671875 L 1.269531 -9.269531 L 9.210938 -9.269531 L 10.019531 -8.476562 L 10.019531 -4.246094 L 9.210938 -3.4375 L 7.101562 -3.4375 Z M 9.359375 -1.195312 "/></g></g></g><g fill="#d2492a" fill-opacity="1"><g transform="translate(100.136859, 51.612362)"><g><path d="M 11.511719 -2.992188 L 3.738281 -2.992188 L 3.738281 -7.476562 L 8.898438 -7.476562 L 8.898438 -6.730469 L 4.484375 -6.730469 L 4.484375 -3.738281 L 10.390625 -3.738281 L 11.886719 -5.234375 L 11.886719 -8.972656 L 10.390625 -10.46875 L 2.242188 -10.46875 L 0.746094 -8.972656 L 0.746094 -1.496094 L 2.242188 0 L 11.511719 0 Z M 10.316406 -1.195312 L 2.75 -1.195312 L 1.945312 -2.019531 L 1.945312 -8.464844 L 2.75 -9.269531 L 9.882812 -9.269531 L 10.691406 -8.476562 L 10.691406 -5.742188 L 9.882812 -4.933594 L 5.683594 -4.933594 L 5.683594 -5.53125 L 10.09375 -5.53125 L 10.09375 -8.671875 L 2.542969 -8.671875 L 2.542969 -1.792969 L 10.316406 -1.792969 Z M 10.316406 -1.195312 "/></g></g></g><g fill="#d2492a" fill-opacity="1"><g transform="translate(112.768339, 51.612362)"><g><path d="M 9.792969 0 L 11.289062 -1.496094 L 11.289062 -5.234375 L 9.792969 -6.730469 L 3.738281 -6.730469 L 3.738281 -7.476562 L 11.289062 -7.476562 L 11.289062 -10.46875 L 2.242188 -10.46875 L 0.746094 -8.972656 L 0.746094 -5.234375 L 2.242188 -3.738281 L 8.296875 -3.738281 L 8.296875 -2.992188 L 0.746094 -2.992188 L 0.746094 0 Z M 1.945312 -1.195312 L 1.945312 -1.792969 L 9.496094 -1.792969 L 9.496094 -4.933594 L 2.75 -4.933594 L 1.945312 -5.757812 L 1.945312 -8.464844 L 2.75 -9.269531 L 10.09375 -9.269531 L 10.09375 -8.671875 L 2.542969 -8.671875 L 2.542969 -5.53125 L 9.285156 -5.53125 L 10.09375 -4.738281 L 10.09375 -2.003906 L 9.285156 -1.195312 Z M 1.945312 -1.195312 "/></g></g></g><g fill="#d2492a" fill-opacity="1"><g transform="translate(124.80188, 51.612362)"><g><path d="M 11.511719 -2.992188 L 3.738281 -2.992188 L 3.738281 -7.476562 L 8.898438 -7.476562 L 8.898438 -6.730469 L 4.484375 -6.730469 L 4.484375 -3.738281 L 10.390625 -3.738281 L 11.886719 -5.234375 L 11.886719 -8.972656 L 10.390625 -10.46875 L 2.242188 -10.46875 L 0.746094 -8.972656 L 0.746094 -1.496094 L 2.242188 0 L 11.511719 0 Z M 10.316406 -1.195312 L 2.75 -1.195312 L 1.945312 -2.019531 L 1.945312 -8.464844 L 2.75 -9.269531 L 9.882812 -9.269531 L 10.691406 -8.476562 L 10.691406 -5.742188 L 9.882812 -4.933594 L 5.683594 -4.933594 L 5.683594 -5.53125 L 10.09375 -5.53125 L 10.09375 -8.671875 L 2.542969 -8.671875 L 2.542969 -1.792969 L 10.316406 -1.792969 Z M 10.316406 -1.195312 "/></g></g></g><g clip-path="url(#1714db79c6)"><g fill="#d2492a" fill-opacity="1"><g transform="translate(137.433361, 51.612362)"><g><path d="M 11.511719 0 L 11.511719 -2.992188 L 3.738281 -2.992188 L 3.738281 -7.476562 L 8.898438 -7.476562 L 8.898438 -5.980469 L 11.886719 -5.980469 L 11.886719 -8.972656 L 10.390625 -10.46875 L 2.242188 -10.46875 L 0.746094 -8.972656 L 0.746094 -1.496094 L 2.242188 0 Z M 2.75 -1.195312 L 1.945312 -2.019531 L 1.945312 -8.464844 L 2.75 -9.269531 L 9.882812 -9.269531 L 10.691406 -8.476562 L 10.691406 -7.175781 L 10.09375 -7.175781 L 10.09375 -8.671875 L 2.542969 -8.671875 L 2.542969 -1.792969 L 10.316406 -1.792969 L 10.316406 -1.195312 Z M 2.75 -1.195312 "/></g></g></g></g><g clip-path="url(#d6fc998816)"><g clip-path="url(#7a1ca09ebd)"><path stroke-linecap="butt" transform="matrix(0.623338, 0, 0, 0.623338, 40.302206, 57.799555)" fill="none" stroke-linejoin="miter" d="M 6.922382 0.00196761 C 3.099714 0.00196761 -0.00228603 3.097701 -0.00228603 6.920369 C -0.00228603 10.743036 3.099714 13.845036 6.922382 13.845036 C 10.745049 13.845036 13.840783 10.743036 13.840783 6.920369 C 13.840783 3.097701 10.745049 0.00196761 6.922382 0.00196761 Z M 6.922382 0.00196761 " stroke="#263f6a" stroke-width="4.8" stroke-opacity="1" stroke-miterlimit="4"/></g></g><g clip-path="url(#c84eb90306)"><g clip-path="url(#ff1183bae3)"><path stroke-linecap="butt" transform="matrix(0.623338, 0, 0, 0.623338, 58.82561, 57.799555)" fill="none" stroke-linejoin="miter" d="M 6.922436 0.00196761 C 3.099769 0.00196761 -0.00223186 3.097701 -0.00223186 6.920369 C -0.00223186 10.743036 3.099769 13.845036 6.922436 13.845036 C 10.745103 13.845036 13.840837 10.743036 13.840837 6.920369 C 13.840837 3.097701 10.745103 0.00196761 6.922436 0.00196761 Z M 6.922436 0.00196761 " stroke="#263f6a" stroke-width="4.8" stroke-opacity="1" stroke-miterlimit="4"/></g></g><path stroke-linecap="butt" transform="matrix(0.623338, 0, 0, 0.623338, 68.205574, 38.894081)" fill="none" stroke-linejoin="miter" d="M 0.00233731 37.256061 L 3.279804 37.256061 C 4.150871 37.256061 4.984338 36.911395 5.598471 36.297261 C 6.212605 35.683128 6.557272 34.849661 6.557272 33.978594 L 6.557272 0.000722382 " stroke="#263f6a" stroke-width="2" stroke-opacity="1" stroke-miterlimit="4"/><path stroke-linecap="butt" transform="matrix(0.623338, 0, 0, 0.623338, 34.838652, 47.092658)" fill="none" stroke-linejoin="miter" d="M 0.00191137 0.998152 L 4.087779 0.998152 C 5.497779 0.998152 6.638312 2.144953 6.638312 3.548686 C 6.638312 4.958686 7.778846 6.105486 9.188846 6.105486 L 13.249647 6.105486 " stroke="#d2492a" stroke-width="2" stroke-opacity="1" stroke-miterlimit="4"/><path stroke-linecap="round" transform="matrix(0.623338, 0, 0, 0.623338, 34.838652, 47.092658)" fill="none" stroke-linejoin="round" d="M 19.748181 6.105486 C 19.748181 7.759887 18.407114 9.100954 16.746447 9.100954 C 15.092047 9.100954 13.744713 7.759887 13.744713 6.105486 C 13.744713 4.44482 15.092047 3.103753 16.746447 3.103753 C 18.407114 3.103753 19.748181 4.44482 19.748181 6.105486 " stroke="#d2492a" stroke-width="2" stroke-opacity="1" stroke-miterlimit="4"/><path stroke-linecap="butt" transform="matrix(0.623338, 0, 0, 0.623338, 34.7625, 52.102002)" fill="none" stroke-linejoin="miter" d="M -0.00125391 4.436095 L 22.571283 4.436095 C 23.51755 4.436095 24.28835 3.671562 24.28835 2.719028 C 24.28835 1.772761 25.05915 1.001961 26.005417 1.001961 L 46.152753 1.001961 " stroke="#d2492a" stroke-width="2" stroke-opacity="1" stroke-miterlimit="4"/><path stroke-linecap="round" transform="matrix(0.623338, 0, 0, 0.623338, 34.7625, 52.102002)" fill="none" stroke-linejoin="round" d="M 52.651287 1.001961 C 52.651287 2.656361 51.31022 3.997428 49.649553 3.997428 C 47.995153 3.997428 46.654086 2.656361 46.654086 1.001961 C 46.654086 -0.658706 47.995153 -1.999773 49.649553 -1.999773 C 51.31022 -1.999773 52.651287 -0.658706 52.651287 1.001961 " stroke="#d2492a" stroke-width="2" stroke-opacity="1" stroke-miterlimit="4"/><path stroke-linecap="butt" transform="matrix(0.33597, -0.525047, 0.525047, 0.33597, 59.13454, 52.638984)" fill="none" stroke-linejoin="miter" d="M -0.00168128 1.002161 L 8.024403 0.999857 " stroke="#d2492a" stroke-width="2" stroke-opacity="1" stroke-miterlimit="4"/><path stroke-linecap="round" transform="matrix(0.33597, -0.525047, 0.525047, 0.33597, 59.13454, 52.638984)" fill="none" stroke-linejoin="round" d="M 14.525921 0.998486 C 14.529587 2.655218 13.181416 4.001481 11.529962 4.001769 C 9.869852 4.000156 8.526967 2.657264 8.52858 0.997154 C 8.528292 -0.6543 9.871184 -1.997185 11.527916 -2.000851 C 13.188027 -1.999238 14.530912 -0.656346 14.525921 0.998486 " stroke="#d2492a" stroke-width="2" stroke-opacity="1" stroke-miterlimit="4"/><path stroke-linecap="butt" transform="matrix(0.623338, 0, 0, 0.623338, 51.48404, 46.562474)" fill="none" stroke-linejoin="miter" d="M 7.501738 1.002708 L 8.961872 1.002708 C 9.350405 1.002708 9.720139 1.153108 9.995872 1.428842 C 10.265339 1.704575 10.422005 2.074309 10.422005 2.462842 L 10.422005 3.233642 C 10.422005 3.822709 10.653872 4.392976 11.073739 4.812842 C 11.493606 5.232709 12.063872 5.464576 12.652939 5.464576 L 16.419206 5.464576 " stroke="#d2492a" stroke-width="2" stroke-opacity="1" stroke-miterlimit="4"/><path stroke-linecap="round" transform="matrix(0.623338, 0, 0, 0.623338, 51.48404, 46.562474)" fill="none" stroke-linejoin="round" d="M 0.996937 1.002708 C 0.996937 -0.657958 2.344271 -1.999025 3.998671 -1.999025 C 5.659338 -1.999025 7.000405 -0.657958 7.000405 1.002708 C 7.000405 2.657109 5.659338 3.998176 3.998671 3.998176 C 2.344271 3.998176 0.996937 2.657109 0.996937 1.002708 " stroke="#d2492a" stroke-width="2" stroke-opacity="1" stroke-miterlimit="4"/><path stroke-linecap="butt" transform="matrix(0.623338, 0, 0, 0.623338, 34.7625, 41.278469)" fill="none" stroke-linejoin="miter" d="M -0.00125391 1.000861 L 33.657018 1.000861 " stroke="#d2492a" stroke-width="2" stroke-opacity="1" stroke-miterlimit="4"/><path stroke-linecap="round" transform="matrix(0.623338, 0, 0, 0.623338, 34.7625, 41.278469)" fill="none" stroke-linejoin="round" d="M 40.155552 1.000861 C 40.155552 2.655262 38.814485 4.002595 37.160085 4.002595 C 35.499418 4.002595 34.158351 2.655262 34.158351 1.000861 C 34.158351 -0.659806 35.499418 -2.000872 37.160085 -2.000872 C 38.814485 -2.000872 40.155552 -0.659806 40.155552 1.000861 " stroke="#d2492a" stroke-width="2" stroke-opacity="1" stroke-miterlimit="4"/><path stroke-linecap="butt" transform="matrix(0.623338, 0, 0, 0.623338, 41.717471, 41.901808)" fill="none" stroke-linejoin="miter" d="M 0.998452 0.000859962 L 0.998452 5.603261 C 0.998452 6.361528 1.299253 7.088461 1.838186 7.627394 C 2.377119 8.160061 3.104053 8.467128 3.86232 8.467128 L 6.726187 8.467128 " stroke="#d2492a" stroke-width="2" stroke-opacity="1" stroke-miterlimit="4"/><path stroke-linecap="round" transform="matrix(0.623338, 0, 0, 0.623338, 41.717471, 41.901808)" fill="none" stroke-linejoin="round" d="M 13.224721 8.467128 C 13.224721 10.121528 11.883654 11.462595 10.229254 11.462595 C 8.568587 11.462595 7.22752 10.121528 7.22752 8.467128 C 7.22752 6.806461 8.568587 5.465394 10.229254 5.465394 C 11.883654 5.465394 13.224721 6.806461 13.224721 8.467128 " stroke="#d2492a" stroke-width="2" stroke-opacity="1" stroke-miterlimit="4"/><path stroke-linecap="butt" transform="matrix(0.623338, 0, 0, 0.623338, 34.669347, 38.894081)" fill="none" stroke-linejoin="miter" d="M 1.000456 0.000722382 L 1.000456 33.853261 C 1.000456 35.733261 2.523256 37.256061 4.403257 37.256061 L 7.79979 37.256061 " stroke="#263f6a" stroke-width="2" stroke-opacity="1" stroke-miterlimit="4"/><path stroke-linecap="butt" transform="matrix(0.623338, 0, 0, 0.623338, 49.707601, 61.493999)" fill="none" stroke-linejoin="miter" d="M -0.000913409 0.99976 L 13.353355 0.99976 " stroke="#263f6a" stroke-width="2" stroke-opacity="1" stroke-miterlimit="4"/><path stroke-linecap="round" transform="matrix(0.623338, 0, 0, 0.623338, 32.585319, 37.74056)" fill="none" stroke-linejoin="miter" d="M 0.997392 0.99901 L 67.041802 0.99901 " stroke="#263f6a" stroke-width="2" stroke-opacity="1" stroke-miterlimit="4"/><path stroke-linecap="round" transform="matrix(0.623338, 0, 0, 0.623338, 32.585319, 37.210375)" fill="none" stroke-linejoin="miter" d="M 0.997392 0.997302 L 67.041802 0.997302 " stroke="#263f6a" stroke-width="2" stroke-opacity="1" stroke-miterlimit="4"/><g clip-path="url(#27dadf5935)"><path fill="#263f6a" d="M 52.378906 25.34375 L 52.378906 22.640625 C 52.378906 22.503906 52.355469 22.375 52.300781 22.25 C 52.25 22.128906 52.179688 22.019531 52.082031 21.921875 C 51.988281 21.828125 51.878906 21.753906 51.753906 21.703125 C 51.628906 21.652344 51.5 21.625 51.367188 21.625 L 37.847656 21.625 C 37.714844 21.625 37.585938 21.652344 37.460938 21.703125 C 37.335938 21.753906 37.226562 21.828125 37.132812 21.921875 C 37.039062 22.019531 36.964844 22.128906 36.914062 22.25 C 36.863281 22.375 36.835938 22.503906 36.835938 22.640625 L 36.835938 25.34375 C 36.835938 25.476562 36.863281 25.605469 36.914062 25.730469 C 36.964844 25.855469 37.039062 25.964844 37.132812 26.058594 C 37.226562 26.152344 37.335938 26.226562 37.460938 26.277344 C 37.585938 26.332031 37.714844 26.355469 37.847656 26.355469 L 37.847656 27.03125 C 37.714844 27.03125 37.585938 27.058594 37.460938 27.109375 C 37.335938 27.160156 37.226562 27.234375 37.132812 27.328125 C 37.039062 27.425781 36.964844 27.535156 36.914062 27.65625 C 36.863281 27.78125 36.835938 27.910156 36.835938 28.046875 L 36.835938 30.75 C 36.835938 30.882812 36.863281 31.011719 36.914062 31.136719 C 36.964844 31.261719 37.039062 31.371094 37.132812 31.464844 C 37.226562 31.5625 37.335938 31.632812 37.460938 31.6875 C 37.585938 31.738281 37.714844 31.761719 37.847656 31.761719 L 37.847656 32.4375 C 37.714844 32.4375 37.585938 32.464844 37.460938 32.515625 C 37.335938 32.566406 37.226562 32.640625 37.132812 32.734375 C 37.039062 32.832031 36.964844 32.941406 36.914062 33.066406 C 36.863281 33.1875 36.835938 33.316406 36.835938 33.453125 L 36.835938 36.15625 C 36.835938 36.289062 36.863281 36.417969 36.914062 36.542969 C 36.964844 36.667969 37.039062 36.777344 37.132812 36.871094 C 37.226562 36.96875 37.335938 37.039062 37.460938 37.09375 C 37.585938 37.144531 37.714844 37.167969 37.847656 37.167969 L 51.367188 37.167969 C 51.5 37.167969 51.628906 37.144531 51.753906 37.09375 C 51.878906 37.039062 51.988281 36.96875 52.082031 36.871094 C 52.179688 36.777344 52.25 36.667969 52.300781 36.542969 C 52.355469 36.417969 52.378906 36.289062 52.378906 36.15625 L 52.378906 33.453125 C 52.378906 33.316406 52.355469 33.1875 52.300781 33.066406 C 52.25 32.941406 52.179688 32.832031 52.082031 32.734375 C 51.988281 32.640625 51.878906 32.566406 51.753906 32.515625 C 51.628906 32.464844 51.5 32.4375 51.367188 32.4375 L 51.367188 31.761719 C 51.5 31.761719 51.628906 31.738281 51.753906 31.6875 C 51.878906 31.632812 51.988281 31.5625 52.082031 31.464844 C 52.179688 31.371094 52.25 31.261719 52.300781 31.136719 C 52.355469 31.011719 52.378906 30.882812 52.378906 30.75 L 52.378906 28.046875 C 52.378906 27.910156 52.355469 27.78125 52.300781 27.65625 C 52.25 27.535156 52.179688 27.425781 52.082031 27.328125 C 51.988281 27.234375 51.878906 27.160156 51.753906 27.109375 C 51.628906 27.058594 51.5 27.03125 51.367188 27.03125 L 51.367188 26.355469 C 51.5 26.355469 51.628906 26.332031 51.753906 26.277344 C 51.878906 26.226562 51.988281 26.152344 52.082031 26.058594 C 52.179688 25.964844 52.25 25.855469 52.300781 25.730469 C 52.355469 25.605469 52.378906 25.476562 52.378906 25.34375 Z M 37.511719 25.34375 L 37.511719 22.640625 C 37.511719 22.546875 37.542969 22.464844 37.609375 22.398438 C 37.675781 22.335938 37.757812 22.300781 37.847656 22.300781 L 51.367188 22.300781 C 51.460938 22.300781 51.539062 22.335938 51.605469 22.398438 C 51.671875 22.464844 51.703125 22.546875 51.703125 22.640625 L 51.703125 25.34375 C 51.703125 25.4375 51.671875 25.515625 51.605469 25.582031 C 51.539062 25.648438 51.460938 25.679688 51.367188 25.679688 L 37.847656 25.679688 C 37.757812 25.679688 37.675781 25.648438 37.609375 25.582031 C 37.542969 25.515625 37.511719 25.4375 37.511719 25.34375 Z M 51.703125 33.453125 L 51.703125 36.15625 C 51.703125 36.25 51.671875 36.328125 51.605469 36.394531 C 51.539062 36.460938 51.460938 36.492188 51.367188 36.492188 L 37.847656 36.492188 C 37.757812 36.492188 37.675781 36.460938 37.609375 36.394531 C 37.542969 36.328125 37.511719 36.25 37.511719 36.15625 L 37.511719 33.453125 C 37.511719 33.359375 37.542969 33.28125 37.609375 33.214844 C 37.675781 33.148438 37.757812 33.113281 37.847656 33.113281 L 51.367188 33.113281 C 51.460938 33.113281 51.539062 33.148438 51.605469 33.214844 C 51.671875 33.28125 51.703125 33.359375 51.703125 33.453125 Z M 50.691406 32.4375 L 38.523438 32.4375 L 38.523438 31.761719 L 50.691406 31.761719 Z M 51.703125 28.046875 L 51.703125 30.75 C 51.703125 30.84375 51.671875 30.921875 51.605469 30.988281 C 51.539062 31.054688 51.460938 31.085938 51.367188 31.085938 L 37.847656 31.085938 C 37.757812 31.085938 37.675781 31.054688 37.609375 30.988281 C 37.542969 30.921875 37.511719 30.84375 37.511719 30.75 L 37.511719 28.046875 C 37.511719 27.953125 37.542969 27.871094 37.609375 27.808594 C 37.675781 27.742188 37.757812 27.707031 37.847656 27.707031 L 51.367188 27.707031 C 51.460938 27.707031 51.539062 27.742188 51.605469 27.808594 C 51.671875 27.871094 51.703125 27.953125 51.703125 28.046875 Z M 50.691406 27.03125 L 38.523438 27.03125 L 38.523438 26.355469 L 50.691406 26.355469 Z M 50.691406 27.03125 " fill-opacity="1" fill-rule="nonzero"/></g><path fill="#263f6a" d="M 39.199219 28.382812 C 39.066406 28.382812 38.9375 28.410156 38.8125 28.460938 C 38.6875 28.511719 38.578125 28.585938 38.484375 28.679688 C 38.390625 28.777344 38.316406 28.886719 38.265625 29.007812 C 38.214844 29.132812 38.1875 29.261719 38.1875 29.398438 C 38.1875 29.53125 38.214844 29.660156 38.265625 29.785156 C 38.316406 29.910156 38.390625 30.019531 38.484375 30.113281 C 38.578125 30.210938 38.6875 30.28125 38.8125 30.335938 C 38.9375 30.386719 39.066406 30.410156 39.199219 30.410156 C 39.335938 30.410156 39.464844 30.386719 39.589844 30.335938 C 39.714844 30.28125 39.824219 30.210938 39.917969 30.113281 C 40.011719 30.019531 40.085938 29.910156 40.136719 29.785156 C 40.1875 29.660156 40.214844 29.53125 40.214844 29.398438 C 40.214844 29.261719 40.1875 29.132812 40.136719 29.011719 C 40.085938 28.886719 40.011719 28.777344 39.917969 28.679688 C 39.824219 28.585938 39.714844 28.511719 39.589844 28.460938 C 39.464844 28.410156 39.335938 28.382812 39.199219 28.382812 Z M 39.199219 29.734375 C 39.109375 29.734375 39.027344 29.703125 38.960938 29.636719 C 38.894531 29.570312 38.863281 29.492188 38.863281 29.398438 C 38.863281 29.304688 38.894531 29.226562 38.960938 29.160156 C 39.027344 29.09375 39.109375 29.058594 39.199219 29.058594 C 39.292969 29.058594 39.375 29.09375 39.441406 29.160156 C 39.507812 29.226562 39.539062 29.304688 39.539062 29.398438 C 39.539062 29.492188 39.507812 29.570312 39.441406 29.636719 C 39.375 29.703125 39.292969 29.734375 39.199219 29.734375 Z M 39.199219 29.734375 " fill-opacity="1" fill-rule="nonzero"/><path fill="#263f6a" d="M 42.242188 28.382812 C 42.109375 28.382812 41.980469 28.410156 41.855469 28.460938 C 41.730469 28.511719 41.621094 28.585938 41.527344 28.679688 C 41.429688 28.777344 41.355469 28.886719 41.304688 29.007812 C 41.253906 29.132812 41.230469 29.261719 41.230469 29.398438 C 41.230469 29.53125 41.253906 29.660156 41.304688 29.785156 C 41.355469 29.910156 41.429688 30.019531 41.527344 30.113281 C 41.621094 30.210938 41.730469 30.28125 41.855469 30.335938 C 41.980469 30.386719 42.109375 30.410156 42.242188 30.410156 C 42.375 30.410156 42.507812 30.386719 42.628906 30.335938 C 42.753906 30.28125 42.863281 30.210938 42.960938 30.113281 C 43.054688 30.019531 43.128906 29.910156 43.179688 29.785156 C 43.230469 29.660156 43.257812 29.53125 43.257812 29.398438 C 43.257812 29.261719 43.230469 29.132812 43.179688 29.011719 C 43.128906 28.886719 43.054688 28.777344 42.957031 28.679688 C 42.863281 28.585938 42.753906 28.511719 42.628906 28.460938 C 42.507812 28.410156 42.375 28.382812 42.242188 28.382812 Z M 42.242188 29.734375 C 42.148438 29.734375 42.070312 29.703125 42.003906 29.636719 C 41.9375 29.570312 41.90625 29.492188 41.90625 29.398438 C 41.90625 29.304688 41.9375 29.226562 42.003906 29.160156 C 42.070312 29.09375 42.148438 29.058594 42.242188 29.058594 C 42.335938 29.058594 42.414062 29.09375 42.480469 29.160156 C 42.546875 29.226562 42.582031 29.304688 42.582031 29.398438 C 42.582031 29.492188 42.546875 29.570312 42.480469 29.636719 C 42.414062 29.703125 42.335938 29.734375 42.242188 29.734375 Z M 42.242188 29.734375 " fill-opacity="1" fill-rule="nonzero"/><path fill="#263f6a" d="M 50.691406 29.058594 L 45.960938 29.058594 C 45.867188 29.058594 45.785156 29.09375 45.71875 29.160156 C 45.65625 29.226562 45.621094 29.304688 45.621094 29.398438 C 45.621094 29.492188 45.65625 29.570312 45.71875 29.636719 C 45.785156 29.703125 45.867188 29.734375 45.960938 29.734375 L 50.691406 29.734375 C 50.785156 29.734375 50.863281 29.703125 50.929688 29.636719 C 50.996094 29.570312 51.027344 29.492188 51.027344 29.398438 C 51.027344 29.304688 50.996094 29.226562 50.929688 29.160156 C 50.863281 29.09375 50.785156 29.058594 50.691406 29.058594 Z M 50.691406 29.058594 " fill-opacity="1" fill-rule="nonzero"/><path fill="#263f6a" d="M 39.199219 33.789062 C 39.066406 33.789062 38.9375 33.816406 38.8125 33.867188 C 38.6875 33.917969 38.578125 33.992188 38.484375 34.085938 C 38.390625 34.183594 38.316406 34.292969 38.265625 34.417969 C 38.214844 34.539062 38.1875 34.667969 38.1875 34.804688 C 38.1875 34.9375 38.214844 35.066406 38.265625 35.191406 C 38.316406 35.316406 38.390625 35.425781 38.484375 35.519531 C 38.578125 35.617188 38.6875 35.691406 38.8125 35.742188 C 38.9375 35.792969 39.066406 35.816406 39.199219 35.816406 C 39.335938 35.816406 39.464844 35.792969 39.589844 35.742188 C 39.714844 35.691406 39.824219 35.617188 39.917969 35.519531 C 40.011719 35.425781 40.085938 35.316406 40.136719 35.191406 C 40.1875 35.066406 40.214844 34.9375 40.214844 34.804688 C 40.214844 34.671875 40.1875 34.539062 40.136719 34.417969 C 40.085938 34.292969 40.011719 34.183594 39.917969 34.085938 C 39.824219 33.992188 39.714844 33.917969 39.589844 33.867188 C 39.464844 33.816406 39.335938 33.789062 39.199219 33.789062 Z M 39.199219 35.140625 C 39.109375 35.140625 39.027344 35.109375 38.960938 35.042969 C 38.894531 34.976562 38.863281 34.898438 38.863281 34.804688 C 38.863281 34.710938 38.894531 34.632812 38.960938 34.566406 C 39.027344 34.5 39.109375 34.464844 39.199219 34.464844 C 39.292969 34.464844 39.375 34.5 39.441406 34.566406 C 39.507812 34.632812 39.539062 34.710938 39.539062 34.804688 C 39.539062 34.898438 39.507812 34.976562 39.441406 35.042969 C 39.375 35.109375 39.292969 35.140625 39.199219 35.140625 Z M 39.199219 35.140625 " fill-opacity="1" fill-rule="nonzero"/><path fill="#263f6a" d="M 42.242188 33.789062 C 42.109375 33.789062 41.980469 33.816406 41.855469 33.867188 C 41.730469 33.917969 41.621094 33.992188 41.527344 34.085938 C 41.429688 34.183594 41.355469 34.292969 41.304688 34.417969 C 41.253906 34.539062 41.230469 34.667969 41.230469 34.804688 C 41.230469 34.9375 41.253906 35.066406 41.304688 35.191406 C 41.355469 35.316406 41.429688 35.425781 41.527344 35.519531 C 41.621094 35.617188 41.730469 35.691406 41.855469 35.742188 C 41.980469 35.792969 42.109375 35.816406 42.242188 35.816406 C 42.375 35.816406 42.507812 35.792969 42.628906 35.742188 C 42.753906 35.691406 42.863281 35.617188 42.960938 35.519531 C 43.054688 35.425781 43.128906 35.316406 43.179688 35.191406 C 43.230469 35.066406 43.257812 34.9375 43.257812 34.804688 C 43.257812 34.671875 43.230469 34.539062 43.179688 34.417969 C 43.128906 34.292969 43.054688 34.183594 42.957031 34.085938 C 42.863281 33.992188 42.753906 33.917969 42.628906 33.867188 C 42.507812 33.816406 42.375 33.789062 42.242188 33.789062 Z M 42.242188 35.140625 C 42.148438 35.140625 42.070312 35.109375 42.003906 35.042969 C 41.9375 34.976562 41.90625 34.898438 41.90625 34.804688 C 41.90625 34.710938 41.9375 34.632812 42.003906 34.566406 C 42.070312 34.5 42.148438 34.464844 42.242188 34.464844 C 42.335938 34.464844 42.414062 34.5 42.480469 34.566406 C 42.546875 34.632812 42.582031 34.710938 42.582031 34.804688 C 42.582031 34.898438 42.546875 34.976562 42.480469 35.042969 C 42.414062 35.109375 42.335938 35.140625 42.242188 35.140625 Z M 42.242188 35.140625 " fill-opacity="1" fill-rule="nonzero"/><path fill="#263f6a" d="M 50.691406 34.464844 L 45.960938 34.464844 C 45.867188 34.464844 45.785156 34.5 45.71875 34.566406 C 45.65625 34.632812 45.621094 34.710938 45.621094 34.804688 C 45.621094 34.898438 45.65625 34.976562 45.71875 35.042969 C 45.785156 35.109375 45.867188 35.140625 45.960938 35.140625 L 50.691406 35.140625 C 50.785156 35.140625 50.863281 35.109375 50.929688 35.042969 C 50.996094 34.976562 51.027344 34.898438 51.027344 34.804688 C 51.027344 34.710938 50.996094 34.632812 50.929688 34.566406 C 50.863281 34.5 50.785156 34.464844 50.691406 34.464844 Z M 50.691406 34.464844 " fill-opacity="1" fill-rule="nonzero"/><g clip-path="url(#b94575d74e)"><path fill="#263f6a" d="M 70.742188 25.121094 L 70.742188 22.367188 C 70.742188 22.230469 70.714844 22.097656 70.660156 21.972656 C 70.609375 21.847656 70.535156 21.734375 70.4375 21.636719 C 70.339844 21.539062 70.230469 21.464844 70.101562 21.414062 C 69.976562 21.359375 69.84375 21.335938 69.707031 21.335938 L 55.945312 21.335938 C 55.808594 21.335938 55.675781 21.359375 55.550781 21.414062 C 55.425781 21.464844 55.3125 21.539062 55.214844 21.636719 C 55.121094 21.734375 55.042969 21.847656 54.992188 21.972656 C 54.941406 22.097656 54.914062 22.230469 54.914062 22.367188 L 54.914062 25.121094 C 54.914062 25.257812 54.941406 25.386719 54.992188 25.515625 C 55.042969 25.640625 55.121094 25.753906 55.214844 25.847656 C 55.3125 25.945312 55.425781 26.019531 55.550781 26.074219 C 55.675781 26.125 55.808594 26.152344 55.945312 26.152344 L 55.945312 26.839844 C 55.808594 26.839844 55.675781 26.867188 55.550781 26.917969 C 55.425781 26.972656 55.3125 27.046875 55.214844 27.140625 C 55.121094 27.238281 55.042969 27.351562 54.992188 27.476562 C 54.941406 27.605469 54.914062 27.734375 54.914062 27.871094 L 54.914062 30.625 C 54.914062 30.761719 54.941406 30.894531 54.992188 31.019531 C 55.042969 31.144531 55.121094 31.257812 55.214844 31.355469 C 55.3125 31.449219 55.425781 31.523438 55.550781 31.578125 C 55.675781 31.628906 55.808594 31.65625 55.945312 31.65625 L 55.945312 32.34375 C 55.808594 32.34375 55.675781 32.371094 55.550781 32.421875 C 55.425781 32.476562 55.3125 32.550781 55.214844 32.648438 C 55.121094 32.746094 55.042969 32.855469 54.992188 32.980469 C 54.941406 33.109375 54.914062 33.238281 54.914062 33.378906 L 54.914062 36.128906 C 54.914062 36.265625 54.941406 36.398438 54.992188 36.523438 C 55.042969 36.652344 55.121094 36.761719 55.214844 36.859375 C 55.3125 36.957031 55.425781 37.03125 55.550781 37.082031 C 55.675781 37.136719 55.808594 37.160156 55.945312 37.160156 L 69.707031 37.160156 C 69.84375 37.160156 69.976562 37.136719 70.101562 37.082031 C 70.230469 37.03125 70.339844 36.957031 70.4375 36.859375 C 70.535156 36.761719 70.609375 36.652344 70.660156 36.523438 C 70.714844 36.398438 70.742188 36.265625 70.742188 36.128906 L 70.742188 33.378906 C 70.742188 33.238281 70.714844 33.109375 70.660156 32.980469 C 70.609375 32.855469 70.535156 32.746094 70.4375 32.648438 C 70.339844 32.550781 70.230469 32.476562 70.101562 32.421875 C 69.976562 32.371094 69.84375 32.34375 69.707031 32.34375 L 69.707031 31.65625 C 69.84375 31.65625 69.976562 31.628906 70.101562 31.578125 C 70.230469 31.523438 70.339844 31.449219 70.4375 31.355469 C 70.535156 31.257812 70.609375 31.144531 70.660156 31.019531 C 70.714844 30.894531 70.742188 30.761719 70.742188 30.625 L 70.742188 27.871094 C 70.742188 27.734375 70.714844 27.605469 70.660156 27.476562 C 70.609375 27.351562 70.535156 27.238281 70.4375 27.140625 C 70.339844 27.046875 70.230469 26.972656 70.101562 26.917969 C 69.976562 26.867188 69.84375 26.839844 69.707031 26.839844 L 69.707031 26.152344 C 69.84375 26.152344 69.976562 26.125 70.101562 26.074219 C 70.230469 26.019531 70.339844 25.945312 70.4375 25.847656 C 70.535156 25.753906 70.609375 25.640625 70.660156 25.515625 C 70.714844 25.386719 70.742188 25.257812 70.742188 25.121094 Z M 55.601562 25.121094 L 55.601562 22.367188 C 55.601562 22.273438 55.636719 22.191406 55.703125 22.125 C 55.769531 22.054688 55.851562 22.023438 55.945312 22.023438 L 69.707031 22.023438 C 69.804688 22.023438 69.882812 22.054688 69.953125 22.125 C 70.019531 22.191406 70.050781 22.273438 70.050781 22.367188 L 70.050781 25.121094 C 70.050781 25.214844 70.019531 25.296875 69.953125 25.363281 C 69.882812 25.429688 69.804688 25.464844 69.707031 25.464844 L 55.945312 25.464844 C 55.851562 25.464844 55.769531 25.429688 55.703125 25.363281 C 55.636719 25.296875 55.601562 25.214844 55.601562 25.121094 Z M 70.050781 33.378906 L 70.050781 36.128906 C 70.050781 36.222656 70.019531 36.304688 69.953125 36.371094 C 69.882812 36.441406 69.804688 36.472656 69.707031 36.472656 L 55.945312 36.472656 C 55.851562 36.472656 55.769531 36.441406 55.703125 36.371094 C 55.636719 36.304688 55.601562 36.222656 55.601562 36.128906 L 55.601562 33.378906 C 55.601562 33.28125 55.636719 33.199219 55.703125 33.132812 C 55.769531 33.066406 55.851562 33.03125 55.945312 33.03125 L 69.707031 33.03125 C 69.804688 33.03125 69.882812 33.066406 69.953125 33.132812 C 70.019531 33.199219 70.050781 33.28125 70.050781 33.378906 Z M 69.019531 32.34375 L 56.632812 32.34375 L 56.632812 31.65625 L 69.019531 31.65625 Z M 70.050781 27.871094 L 70.050781 30.625 C 70.050781 30.71875 70.019531 30.800781 69.953125 30.867188 C 69.882812 30.933594 69.804688 30.96875 69.707031 30.96875 L 55.945312 30.96875 C 55.851562 30.96875 55.769531 30.933594 55.703125 30.867188 C 55.636719 30.800781 55.601562 30.71875 55.601562 30.625 L 55.601562 27.871094 C 55.601562 27.777344 55.636719 27.695312 55.703125 27.628906 C 55.769531 27.5625 55.851562 27.527344 55.945312 27.527344 L 69.707031 27.527344 C 69.804688 27.527344 69.882812 27.5625 69.953125 27.628906 C 70.019531 27.695312 70.050781 27.777344 70.050781 27.871094 Z M 69.019531 26.839844 L 56.632812 26.839844 L 56.632812 26.152344 L 69.019531 26.152344 Z M 69.019531 26.839844 " fill-opacity="1" fill-rule="nonzero"/></g><path fill="#263f6a" d="M 57.320312 33.722656 C 57.183594 33.722656 57.054688 33.746094 56.925781 33.800781 C 56.800781 33.851562 56.6875 33.925781 56.59375 34.023438 C 56.496094 34.121094 56.421875 34.230469 56.367188 34.359375 C 56.316406 34.484375 56.289062 34.617188 56.289062 34.753906 C 56.289062 34.890625 56.316406 35.023438 56.367188 35.148438 C 56.421875 35.273438 56.496094 35.386719 56.59375 35.484375 C 56.6875 35.578125 56.800781 35.65625 56.925781 35.707031 C 57.054688 35.757812 57.183594 35.785156 57.320312 35.785156 C 57.457031 35.785156 57.589844 35.757812 57.71875 35.707031 C 57.84375 35.65625 57.953125 35.578125 58.050781 35.484375 C 58.148438 35.386719 58.222656 35.273438 58.277344 35.148438 C 58.328125 35.023438 58.355469 34.890625 58.355469 34.753906 C 58.355469 34.617188 58.328125 34.484375 58.273438 34.359375 C 58.222656 34.230469 58.148438 34.121094 58.050781 34.023438 C 57.953125 33.925781 57.84375 33.851562 57.714844 33.800781 C 57.589844 33.746094 57.457031 33.722656 57.320312 33.722656 Z M 57.320312 35.097656 C 57.226562 35.097656 57.144531 35.0625 57.078125 34.996094 C 57.011719 34.929688 56.976562 34.847656 56.976562 34.753906 C 56.976562 34.660156 57.011719 34.578125 57.078125 34.511719 C 57.144531 34.441406 57.226562 34.410156 57.320312 34.410156 C 57.417969 34.410156 57.496094 34.441406 57.566406 34.511719 C 57.632812 34.578125 57.664062 34.660156 57.664062 34.753906 C 57.664062 34.847656 57.632812 34.929688 57.566406 34.996094 C 57.496094 35.0625 57.417969 35.097656 57.320312 35.097656 Z M 57.320312 35.097656 " fill-opacity="1" fill-rule="nonzero"/><path fill="#263f6a" d="M 60.417969 33.722656 C 60.28125 33.722656 60.148438 33.746094 60.023438 33.800781 C 59.898438 33.851562 59.785156 33.925781 59.6875 34.023438 C 59.59375 34.121094 59.515625 34.230469 59.464844 34.359375 C 59.414062 34.484375 59.386719 34.617188 59.386719 34.753906 C 59.386719 34.890625 59.414062 35.023438 59.464844 35.148438 C 59.515625 35.273438 59.59375 35.386719 59.6875 35.484375 C 59.785156 35.578125 59.898438 35.65625 60.023438 35.707031 C 60.148438 35.757812 60.28125 35.785156 60.417969 35.785156 C 60.554688 35.785156 60.6875 35.757812 60.8125 35.707031 C 60.941406 35.65625 61.050781 35.578125 61.148438 35.484375 C 61.246094 35.386719 61.320312 35.273438 61.371094 35.148438 C 61.425781 35.023438 61.449219 34.890625 61.449219 34.753906 C 61.449219 34.617188 61.425781 34.484375 61.371094 34.359375 C 61.320312 34.230469 61.246094 34.121094 61.148438 34.023438 C 61.050781 33.925781 60.941406 33.851562 60.8125 33.800781 C 60.6875 33.746094 60.554688 33.722656 60.417969 33.722656 Z M 60.417969 35.097656 C 60.324219 35.097656 60.242188 35.0625 60.175781 34.996094 C 60.109375 34.929688 60.074219 34.847656 60.074219 34.753906 C 60.074219 34.660156 60.109375 34.578125 60.175781 34.511719 C 60.242188 34.441406 60.324219 34.410156 60.417969 34.410156 C 60.511719 34.410156 60.59375 34.441406 60.660156 34.511719 C 60.730469 34.578125 60.761719 34.660156 60.761719 34.753906 C 60.761719 34.847656 60.730469 34.929688 60.660156 34.996094 C 60.59375 35.0625 60.511719 35.097656 60.417969 35.097656 Z M 60.417969 35.097656 " fill-opacity="1" fill-rule="nonzero"/><path fill="#263f6a" d="M 69.019531 34.410156 L 64.203125 34.410156 C 64.109375 34.410156 64.027344 34.441406 63.960938 34.511719 C 63.894531 34.578125 63.859375 34.660156 63.859375 34.753906 C 63.859375 34.847656 63.894531 34.929688 63.960938 34.996094 C 64.027344 35.0625 64.109375 35.097656 64.203125 35.097656 L 69.019531 35.097656 C 69.113281 35.097656 69.195312 35.0625 69.261719 34.996094 C 69.332031 34.929688 69.363281 34.847656 69.363281 34.753906 C 69.363281 34.660156 69.332031 34.578125 69.261719 34.511719 C 69.195312 34.441406 69.113281 34.410156 69.019531 34.410156 Z M 69.019531 34.410156 " fill-opacity="1" fill-rule="nonzero"/><g clip-path="url(#ee988ae68d)"><g fill="#d2492a" fill-opacity="1"><g transform="translate(0.578701, 46.080232)"><g><path d="M 0.796875 0.0390625 C 1.328125 0.0390625 1.601562 -0.433594 1.601562 -0.976562 C 1.601562 -1.53125 1.328125 -2.003906 0.796875 -2.003906 C 0.265625 -2.003906 0 -1.53125 0 -0.976562 C 0 -0.433594 0.265625 0.0390625 0.796875 0.0390625 Z M 0.796875 -1.53125 C 1.007812 -1.53125 1.109375 -1.316406 1.109375 -0.976562 C 1.109375 -0.671875 1.007812 -0.425781 0.796875 -0.425781 C 0.589844 -0.425781 0.488281 -0.671875 0.488281 -0.976562 C 0.488281 -1.316406 0.589844 -1.53125 0.796875 -1.53125 Z M 0.796875 -1.53125 "/></g></g></g></g><g fill="#d2492a" fill-opacity="1"><g transform="translate(2.377101, 46.080232)"><g><path d="M 0.570312 -1.992188 L -0.0585938 -1.304688 L 0.265625 -0.984375 L 0.429688 -1.140625 L 0.429688 0 L 0.890625 0 L 0.890625 -1.992188 Z M 0.570312 -1.992188 "/></g></g></g><g fill="#d2492a" fill-opacity="1"><g transform="translate(3.491203, 46.080232)"><g><path d="M 0.570312 -1.992188 L -0.0585938 -1.304688 L 0.265625 -0.984375 L 0.429688 -1.140625 L 0.429688 0 L 0.890625 0 L 0.890625 -1.992188 Z M 0.570312 -1.992188 "/></g></g></g><g fill="#d2492a" fill-opacity="1"><g transform="translate(4.605305, 46.080232)"><g><path d="M 0.796875 0.0390625 C 1.328125 0.0390625 1.601562 -0.433594 1.601562 -0.976562 C 1.601562 -1.53125 1.328125 -2.003906 0.796875 -2.003906 C 0.265625 -2.003906 0 -1.53125 0 -0.976562 C 0 -0.433594 0.265625 0.0390625 0.796875 0.0390625 Z M 0.796875 -1.53125 C 1.007812 -1.53125 1.109375 -1.316406 1.109375 -0.976562 C 1.109375 -0.671875 1.007812 -0.425781 0.796875 -0.425781 C 0.589844 -0.425781 0.488281 -0.671875 0.488281 -0.976562 C 0.488281 -1.316406 0.589844 -1.53125 0.796875 -1.53125 Z M 0.796875 -1.53125 "/></g></g></g><g fill="#d2492a" fill-opacity="1"><g transform="translate(6.403704, 46.080232)"><g><path d="M 0.570312 -1.992188 L -0.0585938 -1.304688 L 0.265625 -0.984375 L 0.429688 -1.140625 L 0.429688 0 L 0.890625 0 L 0.890625 -1.992188 Z M 0.570312 -1.992188 "/></g></g></g><g fill="#d2492a" fill-opacity="1"><g transform="translate(7.517807, 46.080232)"><g><path d="M 0.570312 -1.992188 L -0.0585938 -1.304688 L 0.265625 -0.984375 L 0.429688 -1.140625 L 0.429688 0 L 0.890625 0 L 0.890625 -1.992188 Z M 0.570312 -1.992188 "/></g></g></g><g fill="#d2492a" fill-opacity="1"><g transform="translate(8.631909, 46.080232)"><g><path d="M 0.570312 -1.992188 L -0.0585938 -1.304688 L 0.265625 -0.984375 L 0.429688 -1.140625 L 0.429688 0 L 0.890625 0 L 0.890625 -1.992188 Z M 0.570312 -1.992188 "/></g></g></g><g fill="#d2492a" fill-opacity="1"><g transform="translate(9.746011, 46.080232)"><g><path d="M 0.570312 -1.992188 L -0.0585938 -1.304688 L 0.265625 -0.984375 L 0.429688 -1.140625 L 0.429688 0 L 0.890625 0 L 0.890625 -1.992188 Z M 0.570312 -1.992188 "/></g></g></g><g fill="#d2492a" fill-opacity="1"><g transform="translate(10.860113, 46.080232)"><g/></g></g><g fill="#d2492a" fill-opacity="1"><g transform="translate(11.56986, 46.080232)"><g><path d="M 0.796875 0.0390625 C 1.328125 0.0390625 1.601562 -0.433594 1.601562 -0.976562 C 1.601562 -1.53125 1.328125 -2.003906 0.796875 -2.003906 C 0.265625 -2.003906 0 -1.53125 0 -0.976562 C 0 -0.433594 0.265625 0.0390625 0.796875 0.0390625 Z M 0.796875 -1.53125 C 1.007812 -1.53125 1.109375 -1.316406 1.109375 -0.976562 C 1.109375 -0.671875 1.007812 -0.425781 0.796875 -0.425781 C 0.589844 -0.425781 0.488281 -0.671875 0.488281 -0.976562 C 0.488281 -1.316406 0.589844 -1.53125 0.796875 -1.53125 Z M 0.796875 -1.53125 "/></g></g></g><g fill="#d2492a" fill-opacity="1"><g transform="translate(13.368259, 46.080232)"><g><path d="M 0.570312 -1.992188 L -0.0585938 -1.304688 L 0.265625 -0.984375 L 0.429688 -1.140625 L 0.429688 0 L 0.890625 0 L 0.890625 -1.992188 Z M 0.570312 -1.992188 "/></g></g></g><g fill="#d2492a" fill-opacity="1"><g transform="translate(14.482361, 46.080232)"><g><path d="M 0.570312 -1.992188 L -0.0585938 -1.304688 L 0.265625 -0.984375 L 0.429688 -1.140625 L 0.429688 0 L 0.890625 0 L 0.890625 -1.992188 Z M 0.570312 -1.992188 "/></g></g></g><g fill="#d2492a" fill-opacity="1"><g transform="translate(15.596464, 46.080232)"><g><path d="M 0.570312 -1.992188 L -0.0585938 -1.304688 L 0.265625 -0.984375 L 0.429688 -1.140625 L 0.429688 0 L 0.890625 0 L 0.890625 -1.992188 Z M 0.570312 -1.992188 "/></g></g></g><g fill="#d2492a" fill-opacity="1"><g transform="translate(16.710566, 46.080232)"><g><path d="M 0.796875 0.0390625 C 1.328125 0.0390625 1.601562 -0.433594 1.601562 -0.976562 C 1.601562 -1.53125 1.328125 -2.003906 0.796875 -2.003906 C 0.265625 -2.003906 0 -1.53125 0 -0.976562 C 0 -0.433594 0.265625 0.0390625 0.796875 0.0390625 Z M 0.796875 -1.53125 C 1.007812 -1.53125 1.109375 -1.316406 1.109375 -0.976562 C 1.109375 -0.671875 1.007812 -0.425781 0.796875 -0.425781 C 0.589844 -0.425781 0.488281 -0.671875 0.488281 -0.976562 C 0.488281 -1.316406 0.589844 -1.53125 0.796875 -1.53125 Z M 0.796875 -1.53125 "/></g></g></g><g fill="#d2492a" fill-opacity="1"><g transform="translate(18.508965, 46.080232)"><g><path d="M 0.796875 0.0390625 C 1.328125 0.0390625 1.601562 -0.433594 1.601562 -0.976562 C 1.601562 -1.53125 1.328125 -2.003906 0.796875 -2.003906 C 0.265625 -2.003906 0 -1.53125 0 -0.976562 C 0 -0.433594 0.265625 0.0390625 0.796875 0.0390625 Z M 0.796875 -1.53125 C 1.007812 -1.53125 1.109375 -1.316406 1.109375 -0.976562 C 1.109375 -0.671875 1.007812 -0.425781 0.796875 -0.425781 C 0.589844 -0.425781 0.488281 -0.671875 0.488281 -0.976562 C 0.488281 -1.316406 0.589844 -1.53125 0.796875 -1.53125 Z M 0.796875 -1.53125 "/></g></g></g><g fill="#d2492a" fill-opacity="1"><g transform="translate(20.307365, 46.080232)"><g><path d="M 0.570312 -1.992188 L -0.0585938 -1.304688 L 0.265625 -0.984375 L 0.429688 -1.140625 L 0.429688 0 L 0.890625 0 L 0.890625 -1.992188 Z M 0.570312 -1.992188 "/></g></g></g><g fill="#d2492a" fill-opacity="1"><g transform="translate(21.421467, 46.080232)"><g><path d="M 0.796875 0.0390625 C 1.328125 0.0390625 1.601562 -0.433594 1.601562 -0.976562 C 1.601562 -1.53125 1.328125 -2.003906 0.796875 -2.003906 C 0.265625 -2.003906 0 -1.53125 0 -0.976562 C 0 -0.433594 0.265625 0.0390625 0.796875 0.0390625 Z M 0.796875 -1.53125 C 1.007812 -1.53125 1.109375 -1.316406 1.109375 -0.976562 C 1.109375 -0.671875 1.007812 -0.425781 0.796875 -0.425781 C 0.589844 -0.425781 0.488281 -0.671875 0.488281 -0.976562 C 0.488281 -1.316406 0.589844 -1.53125 0.796875 -1.53125 Z M 0.796875 -1.53125 "/></g></g></g><g fill="#d2492a" fill-opacity="1"><g transform="translate(23.219867, 46.080232)"><g><path d="M 0.796875 0.0390625 C 1.328125 0.0390625 1.601562 -0.433594 1.601562 -0.976562 C 1.601562 -1.53125 1.328125 -2.003906 0.796875 -2.003906 C 0.265625 -2.003906 0 -1.53125 0 -0.976562 C 0 -0.433594 0.265625 0.0390625 0.796875 0.0390625 Z M 0.796875 -1.53125 C 1.007812 -1.53125 1.109375 -1.316406 1.109375 -0.976562 C 1.109375 -0.671875 1.007812 -0.425781 0.796875 -0.425781 C 0.589844 -0.425781 0.488281 -0.671875 0.488281 -0.976562 C 0.488281 -1.316406 0.589844 -1.53125 0.796875 -1.53125 Z M 0.796875 -1.53125 "/></g></g></g><g fill="#d2492a" fill-opacity="1"><g transform="translate(25.018266, 46.080232)"><g><path d="M 0.570312 -1.992188 L -0.0585938 -1.304688 L 0.265625 -0.984375 L 0.429688 -1.140625 L 0.429688 0 L 0.890625 0 L 0.890625 -1.992188 Z M 0.570312 -1.992188 "/></g></g></g><g fill="#d2492a" fill-opacity="1"><g transform="translate(26.132368, 46.080232)"><g><path d="M 0.570312 -1.992188 L -0.0585938 -1.304688 L 0.265625 -0.984375 L 0.429688 -1.140625 L 0.429688 0 L 0.890625 0 L 0.890625 -1.992188 Z M 0.570312 -1.992188 "/></g></g></g><g fill="#d2492a" fill-opacity="1"><g transform="translate(27.246471, 46.080232)"><g><path d="M 0.796875 0.0390625 C 1.328125 0.0390625 1.601562 -0.433594 1.601562 -0.976562 C 1.601562 -1.53125 1.328125 -2.003906 0.796875 -2.003906 C 0.265625 -2.003906 0 -1.53125 0 -0.976562 C 0 -0.433594 0.265625 0.0390625 0.796875 0.0390625 Z M 0.796875 -1.53125 C 1.007812 -1.53125 1.109375 -1.316406 1.109375 -0.976562 C 1.109375 -0.671875 1.007812 -0.425781 0.796875 -0.425781 C 0.589844 -0.425781 0.488281 -0.671875 0.488281 -0.976562 C 0.488281 -1.316406 0.589844 -1.53125 0.796875 -1.53125 Z M 0.796875 -1.53125 "/></g></g></g><g fill="#d2492a" fill-opacity="1"><g transform="translate(29.04487, 46.080232)"><g><path d="M 0.796875 0.0390625 C 1.328125 0.0390625 1.601562 -0.433594 1.601562 -0.976562 C 1.601562 -1.53125 1.328125 -2.003906 0.796875 -2.003906 C 0.265625 -2.003906 0 -1.53125 0 -0.976562 C 0 -0.433594 0.265625 0.0390625 0.796875 0.0390625 Z M 0.796875 -1.53125 C 1.007812 -1.53125 1.109375 -1.316406 1.109375 -0.976562 C 1.109375 -0.671875 1.007812 -0.425781 0.796875 -0.425781 C 0.589844 -0.425781 0.488281 -0.671875 0.488281 -0.976562 C 0.488281 -1.316406 0.589844 -1.53125 0.796875 -1.53125 Z M 0.796875 -1.53125 "/></g></g></g><g fill="#d2492a" fill-opacity="1"><g transform="translate(30.84327, 46.080232)"><g><path d="M 0.570312 -1.992188 L -0.0585938 -1.304688 L 0.265625 -0.984375 L 0.429688 -1.140625 L 0.429688 0 L 0.890625 0 L 0.890625 -1.992188 Z M 0.570312 -1.992188 "/></g></g></g><g fill="#d2492a" fill-opacity="1"><g transform="translate(31.957372, 46.080232)"><g><path d="M 0.796875 0.0390625 C 1.328125 0.0390625 1.601562 -0.433594 1.601562 -0.976562 C 1.601562 -1.53125 1.328125 -2.003906 0.796875 -2.003906 C 0.265625 -2.003906 0 -1.53125 0 -0.976562 C 0 -0.433594 0.265625 0.0390625 0.796875 0.0390625 Z M 0.796875 -1.53125 C 1.007812 -1.53125 1.109375 -1.316406 1.109375 -0.976562 C 1.109375 -0.671875 1.007812 -0.425781 0.796875 -0.425781 C 0.589844 -0.425781 0.488281 -0.671875 0.488281 -0.976562 C 0.488281 -1.316406 0.589844 -1.53125 0.796875 -1.53125 Z M 0.796875 -1.53125 "/></g></g></g><g fill="#d2492a" fill-opacity="1"><g transform="translate(33.755772, 46.080232)"><g><path d="M 0.570312 -1.992188 L -0.0585938 -1.304688 L 0.265625 -0.984375 L 0.429688 -1.140625 L 0.429688 0 L 0.890625 0 L 0.890625 -1.992188 Z M 0.570312 -1.992188 "/></g></g></g><g fill="#d2492a" fill-opacity="1"><g transform="translate(34.871369, 46.080232)"><g/></g></g><g fill="#d2492a" fill-opacity="1"><g transform="translate(12.202357, 50.196638)"><g><path d="M 0.796875 0.0390625 C 1.328125 0.0390625 1.601562 -0.433594 1.601562 -0.976562 C 1.601562 -1.53125 1.328125 -2.003906 0.796875 -2.003906 C 0.265625 -2.003906 0 -1.53125 0 -0.976562 C 0 -0.433594 0.265625 0.0390625 0.796875 0.0390625 Z M 0.796875 -1.53125 C 1.007812 -1.53125 1.109375 -1.316406 1.109375 -0.976562 C 1.109375 -0.671875 1.007812 -0.425781 0.796875 -0.425781 C 0.589844 -0.425781 0.488281 -0.671875 0.488281 -0.976562 C 0.488281 -1.316406 0.589844 -1.53125 0.796875 -1.53125 Z M 0.796875 -1.53125 "/></g></g></g><g fill="#d2492a" fill-opacity="1"><g transform="translate(14.000757, 50.196638)"><g><path d="M 0.570312 -1.992188 L -0.0585938 -1.304688 L 0.265625 -0.984375 L 0.429688 -1.140625 L 0.429688 0 L 0.890625 0 L 0.890625 -1.992188 Z M 0.570312 -1.992188 "/></g></g></g><g fill="#d2492a" fill-opacity="1"><g transform="translate(15.114859, 50.196638)"><g><path d="M 0.570312 -1.992188 L -0.0585938 -1.304688 L 0.265625 -0.984375 L 0.429688 -1.140625 L 0.429688 0 L 0.890625 0 L 0.890625 -1.992188 Z M 0.570312 -1.992188 "/></g></g></g><g fill="#d2492a" fill-opacity="1"><g transform="translate(16.228961, 50.196638)"><g><path d="M 0.570312 -1.992188 L -0.0585938 -1.304688 L 0.265625 -0.984375 L 0.429688 -1.140625 L 0.429688 0 L 0.890625 0 L 0.890625 -1.992188 Z M 0.570312 -1.992188 "/></g></g></g><g fill="#d2492a" fill-opacity="1"><g transform="translate(17.343063, 50.196638)"><g><path d="M 0.796875 0.0390625 C 1.328125 0.0390625 1.601562 -0.433594 1.601562 -0.976562 C 1.601562 -1.53125 1.328125 -2.003906 0.796875 -2.003906 C 0.265625 -2.003906 0 -1.53125 0 -0.976562 C 0 -0.433594 0.265625 0.0390625 0.796875 0.0390625 Z M 0.796875 -1.53125 C 1.007812 -1.53125 1.109375 -1.316406 1.109375 -0.976562 C 1.109375 -0.671875 1.007812 -0.425781 0.796875 -0.425781 C 0.589844 -0.425781 0.488281 -0.671875 0.488281 -0.976562 C 0.488281 -1.316406 0.589844 -1.53125 0.796875 -1.53125 Z M 0.796875 -1.53125 "/></g></g></g><g fill="#d2492a" fill-opacity="1"><g transform="translate(19.141463, 50.196638)"><g><path d="M 0.796875 0.0390625 C 1.328125 0.0390625 1.601562 -0.433594 1.601562 -0.976562 C 1.601562 -1.53125 1.328125 -2.003906 0.796875 -2.003906 C 0.265625 -2.003906 0 -1.53125 0 -0.976562 C 0 -0.433594 0.265625 0.0390625 0.796875 0.0390625 Z M 0.796875 -1.53125 C 1.007812 -1.53125 1.109375 -1.316406 1.109375 -0.976562 C 1.109375 -0.671875 1.007812 -0.425781 0.796875 -0.425781 C 0.589844 -0.425781 0.488281 -0.671875 0.488281 -0.976562 C 0.488281 -1.316406 0.589844 -1.53125 0.796875 -1.53125 Z M 0.796875 -1.53125 "/></g></g></g><g fill="#d2492a" fill-opacity="1"><g transform="translate(20.939862, 50.196638)"><g><path d="M 0.570312 -1.992188 L -0.0585938 -1.304688 L 0.265625 -0.984375 L 0.429688 -1.140625 L 0.429688 0 L 0.890625 0 L 0.890625 -1.992188 Z M 0.570312 -1.992188 "/></g></g></g><g fill="#d2492a" fill-opacity="1"><g transform="translate(22.053964, 50.196638)"><g><path d="M 0.570312 -1.992188 L -0.0585938 -1.304688 L 0.265625 -0.984375 L 0.429688 -1.140625 L 0.429688 0 L 0.890625 0 L 0.890625 -1.992188 Z M 0.570312 -1.992188 "/></g></g></g><g fill="#d2492a" fill-opacity="1"><g transform="translate(23.168066, 50.196638)"><g/></g></g><g fill="#d2492a" fill-opacity="1"><g transform="translate(23.877813, 50.196638)"><g><path d="M 0.796875 0.0390625 C 1.328125 0.0390625 1.601562 -0.433594 1.601562 -0.976562 C 1.601562 -1.53125 1.328125 -2.003906 0.796875 -2.003906 C 0.265625 -2.003906 0 -1.53125 0 -0.976562 C 0 -0.433594 0.265625 0.0390625 0.796875 0.0390625 Z M 0.796875 -1.53125 C 1.007812 -1.53125 1.109375 -1.316406 1.109375 -0.976562 C 1.109375 -0.671875 1.007812 -0.425781 0.796875 -0.425781 C 0.589844 -0.425781 0.488281 -0.671875 0.488281 -0.976562 C 0.488281 -1.316406 0.589844 -1.53125 0.796875 -1.53125 Z M 0.796875 -1.53125 "/></g></g></g><g fill="#d2492a" fill-opacity="1"><g transform="translate(25.676213, 50.196638)"><g><path d="M 0.570312 -1.992188 L -0.0585938 -1.304688 L 0.265625 -0.984375 L 0.429688 -1.140625 L 0.429688 0 L 0.890625 0 L 0.890625 -1.992188 Z M 0.570312 -1.992188 "/></g></g></g><g fill="#d2492a" fill-opacity="1"><g transform="translate(26.790315, 50.196638)"><g><path d="M 0.570312 -1.992188 L -0.0585938 -1.304688 L 0.265625 -0.984375 L 0.429688 -1.140625 L 0.429688 0 L 0.890625 0 L 0.890625 -1.992188 Z M 0.570312 -1.992188 "/></g></g></g><g fill="#d2492a" fill-opacity="1"><g transform="translate(27.904417, 50.196638)"><g><path d="M 0.796875 0.0390625 C 1.328125 0.0390625 1.601562 -0.433594 1.601562 -0.976562 C 1.601562 -1.53125 1.328125 -2.003906 0.796875 -2.003906 C 0.265625 -2.003906 0 -1.53125 0 -0.976562 C 0 -0.433594 0.265625 0.0390625 0.796875 0.0390625 Z M 0.796875 -1.53125 C 1.007812 -1.53125 1.109375 -1.316406 1.109375 -0.976562 C 1.109375 -0.671875 1.007812 -0.425781 0.796875 -0.425781 C 0.589844 -0.425781 0.488281 -0.671875 0.488281 -0.976562 C 0.488281 -1.316406 0.589844 -1.53125 0.796875 -1.53125 Z M 0.796875 -1.53125 "/></g></g></g><g fill="#d2492a" fill-opacity="1"><g transform="translate(29.702817, 50.196638)"><g><path d="M 0.796875 0.0390625 C 1.328125 0.0390625 1.601562 -0.433594 1.601562 -0.976562 C 1.601562 -1.53125 1.328125 -2.003906 0.796875 -2.003906 C 0.265625 -2.003906 0 -1.53125 0 -0.976562 C 0 -0.433594 0.265625 0.0390625 0.796875 0.0390625 Z M 0.796875 -1.53125 C 1.007812 -1.53125 1.109375 -1.316406 1.109375 -0.976562 C 1.109375 -0.671875 1.007812 -0.425781 0.796875 -0.425781 C 0.589844 -0.425781 0.488281 -0.671875 0.488281 -0.976562 C 0.488281 -1.316406 0.589844 -1.53125 0.796875 -1.53125 Z M 0.796875 -1.53125 "/></g></g></g><g fill="#d2492a" fill-opacity="1"><g transform="translate(31.501216, 50.196638)"><g><path d="M 0.570312 -1.992188 L -0.0585938 -1.304688 L 0.265625 -0.984375 L 0.429688 -1.140625 L 0.429688 0 L 0.890625 0 L 0.890625 -1.992188 Z M 0.570312 -1.992188 "/></g></g></g><g fill="#d2492a" fill-opacity="1"><g transform="translate(32.615318, 50.196638)"><g><path d="M 0.796875 0.0390625 C 1.328125 0.0390625 1.601562 -0.433594 1.601562 -0.976562 C 1.601562 -1.53125 1.328125 -2.003906 0.796875 -2.003906 C 0.265625 -2.003906 0 -1.53125 0 -0.976562 C 0 -0.433594 0.265625 0.0390625 0.796875 0.0390625 Z M 0.796875 -1.53125 C 1.007812 -1.53125 1.109375 -1.316406 1.109375 -0.976562 C 1.109375 -0.671875 1.007812 -0.425781 0.796875 -0.425781 C 0.589844 -0.425781 0.488281 -0.671875 0.488281 -0.976562 C 0.488281 -1.316406 0.589844 -1.53125 0.796875 -1.53125 Z M 0.796875 -1.53125 "/></g></g></g><g fill="#d2492a" fill-opacity="1"><g transform="translate(34.414905, 50.196638)"><g/></g></g><g fill="#d2492a" fill-opacity="1"><g transform="translate(21.691014, 54.178324)"><g><path d="M 0.570312 -1.992188 L -0.0585938 -1.304688 L 0.265625 -0.984375 L 0.429688 -1.140625 L 0.429688 0 L 0.890625 0 L 0.890625 -1.992188 Z M 0.570312 -1.992188 "/></g></g></g><g fill="#d2492a" fill-opacity="1"><g transform="translate(22.805116, 54.178324)"><g><path d="M 0.796875 0.0390625 C 1.328125 0.0390625 1.601562 -0.433594 1.601562 -0.976562 C 1.601562 -1.53125 1.328125 -2.003906 0.796875 -2.003906 C 0.265625 -2.003906 0 -1.53125 0 -0.976562 C 0 -0.433594 0.265625 0.0390625 0.796875 0.0390625 Z M 0.796875 -1.53125 C 1.007812 -1.53125 1.109375 -1.316406 1.109375 -0.976562 C 1.109375 -0.671875 1.007812 -0.425781 0.796875 -0.425781 C 0.589844 -0.425781 0.488281 -0.671875 0.488281 -0.976562 C 0.488281 -1.316406 0.589844 -1.53125 0.796875 -1.53125 Z M 0.796875 -1.53125 "/></g></g></g><g fill="#d2492a" fill-opacity="1"><g transform="translate(24.603515, 54.178324)"><g><path d="M 0.570312 -1.992188 L -0.0585938 -1.304688 L 0.265625 -0.984375 L 0.429688 -1.140625 L 0.429688 0 L 0.890625 0 L 0.890625 -1.992188 Z M 0.570312 -1.992188 "/></g></g></g><g fill="#d2492a" fill-opacity="1"><g transform="translate(25.717618, 54.178324)"><g><path d="M 0.570312 -1.992188 L -0.0585938 -1.304688 L 0.265625 -0.984375 L 0.429688 -1.140625 L 0.429688 0 L 0.890625 0 L 0.890625 -1.992188 Z M 0.570312 -1.992188 "/></g></g></g><g fill="#d2492a" fill-opacity="1"><g transform="translate(26.83172, 54.178324)"><g><path d="M 0.796875 0.0390625 C 1.328125 0.0390625 1.601562 -0.433594 1.601562 -0.976562 C 1.601562 -1.53125 1.328125 -2.003906 0.796875 -2.003906 C 0.265625 -2.003906 0 -1.53125 0 -0.976562 C 0 -0.433594 0.265625 0.0390625 0.796875 0.0390625 Z M 0.796875 -1.53125 C 1.007812 -1.53125 1.109375 -1.316406 1.109375 -0.976562 C 1.109375 -0.671875 1.007812 -0.425781 0.796875 -0.425781 C 0.589844 -0.425781 0.488281 -0.671875 0.488281 -0.976562 C 0.488281 -1.316406 0.589844 -1.53125 0.796875 -1.53125 Z M 0.796875 -1.53125 "/></g></g></g><g fill="#d2492a" fill-opacity="1"><g transform="translate(28.630119, 54.178324)"><g><path d="M 0.796875 0.0390625 C 1.328125 0.0390625 1.601562 -0.433594 1.601562 -0.976562 C 1.601562 -1.53125 1.328125 -2.003906 0.796875 -2.003906 C 0.265625 -2.003906 0 -1.53125 0 -0.976562 C 0 -0.433594 0.265625 0.0390625 0.796875 0.0390625 Z M 0.796875 -1.53125 C 1.007812 -1.53125 1.109375 -1.316406 1.109375 -0.976562 C 1.109375 -0.671875 1.007812 -0.425781 0.796875 -0.425781 C 0.589844 -0.425781 0.488281 -0.671875 0.488281 -0.976562 C 0.488281 -1.316406 0.589844 -1.53125 0.796875 -1.53125 Z M 0.796875 -1.53125 "/></g></g></g><g fill="#d2492a" fill-opacity="1"><g transform="translate(30.428519, 54.178324)"><g><path d="M 0.796875 0.0390625 C 1.328125 0.0390625 1.601562 -0.433594 1.601562 -0.976562 C 1.601562 -1.53125 1.328125 -2.003906 0.796875 -2.003906 C 0.265625 -2.003906 0 -1.53125 0 -0.976562 C 0 -0.433594 0.265625 0.0390625 0.796875 0.0390625 Z M 0.796875 -1.53125 C 1.007812 -1.53125 1.109375 -1.316406 1.109375 -0.976562 C 1.109375 -0.671875 1.007812 -0.425781 0.796875 -0.425781 C 0.589844 -0.425781 0.488281 -0.671875 0.488281 -0.976562 C 0.488281 -1.316406 0.589844 -1.53125 0.796875 -1.53125 Z M 0.796875 -1.53125 "/></g></g></g><g fill="#d2492a" fill-opacity="1"><g transform="translate(32.226919, 54.178324)"><g><path d="M 0.570312 -1.992188 L -0.0585938 -1.304688 L 0.265625 -0.984375 L 0.429688 -1.140625 L 0.429688 0 L 0.890625 0 L 0.890625 -1.992188 Z M 0.570312 -1.992188 "/></g></g></g><g fill="#d2492a" fill-opacity="1"><g transform="translate(33.341021, 54.178324)"><g><path d="M 0.570312 -1.992188 L -0.0585938 -1.304688 L 0.265625 -0.984375 L 0.429688 -1.140625 L 0.429688 0 L 0.890625 0 L 0.890625 -1.992188 Z M 0.570312 -1.992188 "/></g></g></g></svg>
